<svg width="34" height="34" viewBox="0 0 34 34" fill="none" xmlns="http://www.w3.org/2000/svg">
<g clip-path="url(#clip0)">
<path d="M27.791 22.621V32.8108V32.8446H34.0008V26.2104L27.791 22.621Z" fill="#DBA834"/>
<path d="M0 32.8445H6.20983V32.8108V22.6131L0 26.2104V32.8445Z" fill="#DBA834"/>
<path d="M7.30664 19.1452V32.8108H13.6731V27.0171C13.6731 25.1999 15.1463 23.7267 16.9634 23.7267H17.0367C18.8538 23.7267 20.327 25.1999 20.327 27.0171V32.8108H26.6934V19.1452L17 11.1045L7.30664 19.1452Z" fill="#DBA834"/>
<path d="M3.01562 17.7225L4.66035 19.7184L16.9993 9.55105L29.3382 19.7184L30.9829 17.7225L17.767 6.83258V4.40926H20.1395V2.87377H17.767V1.15546H16.2315V2.87377H13.8591V4.40926H16.2315V6.83258L3.01562 17.7225Z" fill="#DBA834"/>
</g>
<defs>
<clipPath id="clip0">
<rect width="34" height="34" fill="white"/>
</clipPath>
</defs>
</svg>
