<svg width="400" height="280" viewBox="0 0 400 280" fill="none" xmlns="http://www.w3.org/2000/svg">
<g clip-path="url(#clip0)">
<path opacity="0.1" d="M159.522 35.6788C144.617 21.4718 125.471 12.5337 105.008 10.2295C84.5456 7.9253 63.8913 12.3816 46.1992 22.9178C82.5204 35.9197 122.597 36.3977 159.522 35.6788Z" fill="#FF0000"/>
<path opacity="0.1" d="M370.035 246.837L330.371 178.138C330.261 177.945 330.101 177.784 329.909 177.672C329.716 177.561 329.498 177.502 329.275 177.502C329.053 177.502 328.834 177.561 328.642 177.672C328.45 177.784 328.29 177.945 328.18 178.138L288.516 246.837C288.401 247.03 288.338 247.25 288.336 247.474C288.334 247.698 288.391 247.919 288.502 248.114C288.614 248.309 288.775 248.471 288.97 248.582C289.165 248.694 289.386 248.752 289.61 248.75H301.442C301.777 248.751 302.099 248.884 302.336 249.121C302.573 249.359 302.707 249.68 302.708 250.015V264.677C302.708 265.012 302.84 265.333 303.077 265.571C303.313 265.808 303.634 265.942 303.969 265.943H319.407C319.743 265.943 320.065 265.809 320.302 265.572C320.54 265.335 320.673 265.013 320.673 264.677V257.591C320.673 257.256 320.806 256.935 321.043 256.698C321.279 256.462 321.6 256.329 321.935 256.329H336.612C336.947 256.329 337.268 256.462 337.506 256.698C337.743 256.935 337.877 257.256 337.878 257.591V264.677C337.878 265.013 338.011 265.335 338.248 265.572C338.486 265.809 338.808 265.943 339.143 265.943H354.577C354.913 265.943 355.235 265.809 355.473 265.572C355.71 265.335 355.843 265.013 355.843 264.677V250C355.843 249.664 355.977 249.342 356.214 249.105C356.451 248.868 356.773 248.734 357.109 248.734H368.941C369.163 248.734 369.38 248.675 369.572 248.564C369.764 248.452 369.923 248.293 370.034 248.101C370.145 247.909 370.203 247.691 370.203 247.469C370.203 247.248 370.145 247.03 370.035 246.837ZM314.723 254.44C314.606 254.56 314.467 254.655 314.314 254.721C314.16 254.786 313.995 254.821 313.828 254.822H308.272C307.936 254.822 307.614 254.689 307.377 254.451C307.139 254.214 307.006 253.892 307.006 253.556C307.006 253.221 307.139 252.899 307.377 252.661C307.614 252.424 307.936 252.291 308.272 252.291H313.839C314.09 252.291 314.334 252.365 314.542 252.504C314.751 252.643 314.913 252.841 315.008 253.072C315.104 253.303 315.129 253.558 315.081 253.803C315.032 254.049 314.911 254.274 314.734 254.451L314.723 254.44ZM351.159 254.44C351.042 254.56 350.903 254.655 350.75 254.721C350.596 254.786 350.431 254.821 350.264 254.822H344.711C344.376 254.822 344.054 254.689 343.816 254.451C343.579 254.214 343.446 253.892 343.446 253.556C343.446 253.221 343.579 252.899 343.816 252.661C344.054 252.424 344.376 252.291 344.711 252.291H350.287C350.537 252.291 350.782 252.365 350.99 252.504C351.198 252.643 351.36 252.841 351.456 253.072C351.552 253.303 351.577 253.558 351.528 253.803C351.479 254.049 351.359 254.274 351.182 254.451L351.159 254.44Z" fill="#6C63FF"/>
<path opacity="0.1" d="M124.876 247.442L85.213 178.742C85.1018 178.55 84.942 178.39 84.7497 178.279C84.5574 178.168 84.3393 178.11 84.1174 178.11C83.8954 178.11 83.6773 178.168 83.485 178.279C83.2927 178.39 83.1329 178.55 83.0218 178.742L48.7617 238.08C53.0419 243.474 57.844 248.433 63.0982 252.883H68.6814C69.0171 252.883 69.3391 253.017 69.5764 253.254C69.8138 253.491 69.9472 253.813 69.9472 254.149C69.9472 254.485 69.8138 254.807 69.5764 255.044C69.3391 255.282 69.0171 255.415 68.6814 255.415H66.3258C69.211 257.585 72.2822 259.495 75.5036 261.124V258.199C75.5036 257.863 75.6369 257.541 75.8743 257.304C76.1117 257.066 76.4337 256.933 76.7694 256.933H91.4462C91.7813 256.934 92.1022 257.068 92.3388 257.305C92.5753 257.542 92.7082 257.864 92.7082 258.199V265.281C92.7075 265.465 92.748 265.646 92.8267 265.813C92.9281 266.032 93.0899 266.217 93.2932 266.347C93.4964 266.477 93.7326 266.547 93.9739 266.547H109.412C109.608 266.548 109.801 266.502 109.976 266.413C110.151 266.325 110.302 266.196 110.418 266.038C110.587 265.82 110.678 265.55 110.674 265.273V250.608C110.674 250.272 110.807 249.95 111.044 249.713C111.282 249.476 111.604 249.342 111.94 249.342H123.771C123.994 249.344 124.214 249.287 124.408 249.176C124.602 249.066 124.763 248.906 124.876 248.713C124.988 248.52 125.047 248.301 125.047 248.077C125.047 247.854 124.988 247.635 124.876 247.442ZM98.6623 253.254C98.7787 253.134 98.9178 253.039 99.0714 252.973C99.225 252.908 99.3901 252.873 99.5571 252.872H105.125C105.461 252.872 105.783 253.005 106.02 253.243C106.257 253.48 106.391 253.802 106.391 254.138C106.391 254.473 106.257 254.795 106.02 255.033C105.783 255.27 105.461 255.403 105.125 255.403H99.5533C99.303 255.403 99.0584 255.329 98.8503 255.19C98.6422 255.051 98.48 254.853 98.3843 254.622C98.2885 254.391 98.2634 254.136 98.3122 253.891C98.361 253.645 98.4815 253.42 98.6585 253.243L98.6623 253.254ZM73.7483 227.832C73.4126 227.832 73.0907 227.698 72.8533 227.461C72.6159 227.224 72.4826 226.902 72.4826 226.566V216.952C72.4826 216.616 72.6159 216.294 72.8533 216.057C73.0907 215.82 73.4126 215.686 73.7483 215.686H94.494C94.8291 215.687 95.15 215.821 95.3866 216.058C95.6231 216.296 95.756 216.617 95.756 216.952V226.566C95.756 226.901 95.6231 227.222 95.3866 227.46C95.15 227.697 94.8291 227.831 94.494 227.832H73.7483Z" fill="#6C63FF"/>
<path opacity="0.1" d="M281.655 124.031H232.573V113.415C232.573 112.741 232.305 112.096 231.829 111.619C231.353 111.143 230.707 110.876 230.034 110.876H215.621V99.5679C215.621 99.1439 215.452 98.7374 215.153 98.4376C214.853 98.1378 214.446 97.9694 214.022 97.9694H195.456C195.032 97.9694 194.626 98.1378 194.326 98.4376C194.026 98.7374 193.858 99.1439 193.858 99.5679V110.872H176.913C176.24 110.872 175.594 111.139 175.118 111.616C174.642 112.092 174.374 112.738 174.374 113.411V124.027H127.571C127.435 124.028 127.304 124.083 127.208 124.179C127.112 124.276 127.059 124.407 127.059 124.543V265.472C127.059 265.609 127.112 265.739 127.208 265.836C127.304 265.933 127.435 265.988 127.571 265.989H158.676C158.813 265.989 158.944 265.934 159.041 265.837C159.138 265.741 159.192 265.609 159.192 265.472V246.512C159.193 246.376 159.248 246.245 159.345 246.148C159.441 246.052 159.572 245.997 159.709 245.996H172.848C172.985 245.997 173.116 246.052 173.212 246.148C173.309 246.245 173.364 246.376 173.365 246.512V265.472C173.365 265.609 173.418 265.739 173.514 265.836C173.61 265.933 173.741 265.988 173.877 265.989H235.349C235.486 265.988 235.617 265.933 235.713 265.836C235.81 265.74 235.864 265.609 235.865 265.472V246.512C235.865 246.376 235.919 246.245 236.015 246.149C236.111 246.052 236.242 245.997 236.378 245.996H249.517C249.654 245.996 249.786 246.051 249.883 246.147C249.979 246.244 250.034 246.376 250.034 246.512V265.472C250.035 265.609 250.089 265.74 250.186 265.836C250.283 265.933 250.413 265.988 250.55 265.989H281.655C281.792 265.988 281.922 265.933 282.019 265.836C282.116 265.74 282.17 265.609 282.171 265.472V124.547C282.17 124.41 282.116 124.28 282.019 124.183C281.922 124.086 281.792 124.032 281.655 124.031ZM153.625 239.411C153.625 239.547 153.571 239.677 153.474 239.773C153.378 239.87 153.248 239.924 153.112 239.924H133.9C133.832 239.924 133.765 239.911 133.703 239.886C133.64 239.86 133.583 239.822 133.535 239.775C133.487 239.727 133.449 239.671 133.423 239.608C133.397 239.546 133.384 239.479 133.384 239.411V232.86C133.384 232.724 133.438 232.592 133.535 232.495C133.632 232.399 133.763 232.344 133.9 232.344H153.112C153.248 232.345 153.379 232.4 153.475 232.497C153.571 232.593 153.625 232.724 153.625 232.86V239.411ZM153.625 222.455C153.625 222.523 153.612 222.59 153.587 222.652C153.561 222.715 153.523 222.772 153.476 222.82C153.428 222.868 153.372 222.906 153.309 222.932C153.247 222.958 153.18 222.971 153.112 222.971H133.9C133.832 222.972 133.765 222.959 133.702 222.933C133.639 222.907 133.582 222.869 133.534 222.821C133.486 222.773 133.448 222.716 133.422 222.653C133.396 222.59 133.383 222.523 133.384 222.455V215.897C133.383 215.829 133.396 215.761 133.422 215.699C133.448 215.636 133.486 215.579 133.534 215.531C133.582 215.483 133.639 215.445 133.702 215.419C133.765 215.393 133.832 215.38 133.9 215.38H153.112C153.18 215.38 153.247 215.394 153.309 215.42C153.372 215.446 153.428 215.484 153.476 215.532C153.523 215.58 153.561 215.637 153.587 215.699C153.612 215.762 153.625 215.829 153.625 215.897V222.455ZM153.625 205.503C153.625 205.639 153.571 205.77 153.475 205.867C153.379 205.963 153.248 206.018 153.112 206.019H133.9C133.832 206.019 133.765 206.006 133.702 205.98C133.64 205.954 133.583 205.916 133.535 205.868C133.487 205.82 133.449 205.763 133.423 205.7C133.397 205.638 133.384 205.571 133.384 205.503V198.941C133.384 198.804 133.438 198.673 133.535 198.576C133.632 198.479 133.763 198.424 133.9 198.424H153.112C153.248 198.425 153.379 198.48 153.475 198.577C153.571 198.674 153.625 198.804 153.625 198.941V205.503ZM153.625 188.547C153.625 188.614 153.612 188.682 153.587 188.744C153.561 188.807 153.523 188.864 153.476 188.912C153.428 188.96 153.372 188.998 153.309 189.024C153.247 189.05 153.18 189.063 153.112 189.063H133.9C133.832 189.064 133.765 189.051 133.702 189.025C133.639 188.999 133.582 188.961 133.534 188.913C133.486 188.865 133.448 188.808 133.422 188.745C133.396 188.682 133.383 188.615 133.384 188.547V182C133.383 181.932 133.396 181.865 133.422 181.802C133.448 181.739 133.486 181.682 133.534 181.634C133.582 181.586 133.639 181.548 133.702 181.522C133.765 181.496 133.832 181.483 133.9 181.484H153.112C153.18 181.484 153.247 181.497 153.309 181.523C153.372 181.549 153.428 181.587 153.476 181.635C153.523 181.683 153.561 181.74 153.587 181.803C153.612 181.865 153.625 181.932 153.625 182V188.547ZM153.625 171.595C153.625 171.731 153.571 171.862 153.475 171.958C153.379 172.055 153.248 172.11 153.112 172.111H133.9C133.763 172.111 133.632 172.057 133.535 171.96C133.438 171.863 133.384 171.732 133.384 171.595V165.033C133.384 164.965 133.397 164.898 133.423 164.836C133.449 164.773 133.487 164.716 133.535 164.669C133.583 164.621 133.64 164.584 133.703 164.558C133.765 164.532 133.832 164.52 133.9 164.52H153.112C153.248 164.52 153.378 164.574 153.474 164.67C153.571 164.766 153.625 164.897 153.625 165.033V171.595ZM153.625 154.642C153.625 154.778 153.571 154.909 153.474 155.005C153.378 155.101 153.248 155.155 153.112 155.155H133.9C133.832 155.155 133.765 155.143 133.703 155.117C133.64 155.091 133.583 155.054 133.535 155.006C133.487 154.959 133.449 154.902 133.423 154.839C133.397 154.777 133.384 154.71 133.384 154.642V148.08C133.384 147.943 133.438 147.812 133.535 147.715C133.632 147.618 133.763 147.564 133.9 147.564H153.112C153.248 147.565 153.379 147.62 153.475 147.717C153.571 147.813 153.625 147.944 153.625 148.08V154.642ZM153.625 137.686C153.625 137.754 153.612 137.821 153.587 137.884C153.561 137.946 153.523 138.003 153.476 138.051C153.428 138.099 153.372 138.137 153.309 138.163C153.247 138.189 153.18 138.203 153.112 138.203H133.9C133.832 138.203 133.765 138.19 133.702 138.164C133.639 138.139 133.582 138.101 133.534 138.053C133.486 138.005 133.448 137.947 133.422 137.885C133.396 137.822 133.383 137.754 133.384 137.686V131.14C133.383 131.072 133.396 131.004 133.422 130.941C133.448 130.879 133.486 130.821 133.534 130.773C133.582 130.725 133.639 130.687 133.702 130.662C133.765 130.636 133.832 130.623 133.9 130.623H153.112C153.18 130.623 153.247 130.637 153.309 130.663C153.372 130.689 153.428 130.727 153.476 130.775C153.523 130.823 153.561 130.88 153.587 130.942C153.612 131.005 153.625 131.072 153.625 131.14V137.686ZM199.173 239.407C199.173 239.475 199.16 239.542 199.134 239.604C199.108 239.667 199.07 239.723 199.022 239.771C198.974 239.819 198.917 239.856 198.854 239.882C198.792 239.907 198.725 239.92 198.657 239.92H179.445C179.309 239.92 179.178 239.866 179.081 239.77C178.984 239.674 178.93 239.544 178.929 239.407V232.86C178.93 232.724 178.984 232.593 179.081 232.496C179.177 232.4 179.308 232.345 179.445 232.344H198.657C198.794 232.344 198.925 232.399 199.022 232.495C199.119 232.592 199.173 232.724 199.173 232.86V239.407ZM199.173 222.451C199.174 222.519 199.161 222.587 199.135 222.649C199.109 222.712 199.071 222.769 199.023 222.817C198.975 222.865 198.918 222.903 198.855 222.929C198.792 222.955 198.725 222.968 198.657 222.967H179.445C179.377 222.967 179.31 222.954 179.247 222.928C179.185 222.902 179.128 222.864 179.08 222.816C179.032 222.768 178.994 222.711 178.968 222.649C178.942 222.586 178.929 222.519 178.929 222.451V215.897C178.929 215.829 178.942 215.762 178.968 215.699C178.994 215.637 179.032 215.58 179.08 215.532C179.128 215.484 179.185 215.446 179.247 215.42C179.31 215.394 179.377 215.38 179.445 215.38H198.657C198.725 215.38 198.792 215.393 198.855 215.419C198.918 215.445 198.975 215.483 199.023 215.531C199.071 215.579 199.109 215.636 199.135 215.699C199.161 215.761 199.174 215.829 199.173 215.897V222.451ZM199.173 205.499C199.173 205.636 199.119 205.767 199.022 205.864C198.925 205.961 198.794 206.015 198.657 206.015H179.445C179.308 206.014 179.177 205.96 179.081 205.863C178.984 205.766 178.93 205.636 178.929 205.499V198.941C178.93 198.804 178.984 198.673 179.081 198.577C179.177 198.48 179.308 198.425 179.445 198.424H198.657C198.794 198.424 198.925 198.479 199.022 198.576C199.119 198.673 199.173 198.804 199.173 198.941V205.499ZM199.173 188.543C199.174 188.611 199.161 188.678 199.135 188.741C199.109 188.804 199.071 188.861 199.023 188.909C198.975 188.957 198.918 188.995 198.855 189.021C198.792 189.047 198.725 189.06 198.657 189.059H179.445C179.377 189.059 179.31 189.046 179.247 189.02C179.185 188.994 179.128 188.956 179.08 188.908C179.032 188.86 178.994 188.803 178.968 188.741C178.942 188.678 178.929 188.611 178.929 188.543V182C178.929 181.932 178.942 181.865 178.968 181.802C178.994 181.74 179.032 181.683 179.08 181.635C179.128 181.587 179.185 181.549 179.247 181.523C179.31 181.497 179.377 181.484 179.445 181.484H198.657C198.725 181.483 198.792 181.496 198.855 181.522C198.918 181.548 198.975 181.586 199.023 181.634C199.071 181.682 199.109 181.739 199.135 181.802C199.161 181.865 199.174 181.932 199.173 182V188.543ZM199.173 171.591C199.173 171.728 199.119 171.859 199.022 171.956C198.925 172.053 198.794 172.107 198.657 172.107H179.445C179.308 172.106 179.177 172.051 179.081 171.955C178.984 171.858 178.93 171.727 178.929 171.591V165.033C178.93 164.896 178.984 164.766 179.081 164.67C179.178 164.574 179.309 164.52 179.445 164.52H198.657C198.725 164.52 198.792 164.532 198.854 164.558C198.917 164.584 198.974 164.621 199.022 164.669C199.07 164.716 199.108 164.773 199.134 164.836C199.16 164.898 199.173 164.965 199.173 165.033V171.591ZM199.173 154.639C199.173 154.706 199.16 154.773 199.134 154.836C199.108 154.898 199.07 154.955 199.022 155.002C198.974 155.05 198.917 155.088 198.854 155.113C198.792 155.139 198.725 155.152 198.657 155.151H179.445C179.309 155.151 179.178 155.097 179.081 155.001C178.984 154.905 178.93 154.775 178.929 154.639V148.08C178.93 147.944 178.984 147.813 179.081 147.716C179.177 147.62 179.308 147.565 179.445 147.564H198.657C198.794 147.564 198.925 147.618 199.022 147.715C199.119 147.812 199.173 147.943 199.173 148.08V154.639ZM199.173 137.683C199.174 137.751 199.161 137.818 199.135 137.881C199.109 137.944 199.071 138.001 199.023 138.049C198.975 138.097 198.918 138.135 198.855 138.161C198.792 138.186 198.725 138.199 198.657 138.199H179.445C179.377 138.199 179.31 138.186 179.247 138.16C179.185 138.134 179.128 138.096 179.08 138.048C179.032 138 178.994 137.943 178.968 137.88C178.942 137.818 178.929 137.75 178.929 137.683V131.14C178.929 131.072 178.942 131.005 178.968 130.942C178.994 130.879 179.032 130.822 179.08 130.775C179.128 130.727 179.185 130.689 179.247 130.663C179.31 130.637 179.377 130.623 179.445 130.623H198.657C198.725 130.623 198.792 130.636 198.855 130.662C198.918 130.687 198.975 130.725 199.023 130.773C199.071 130.821 199.109 130.879 199.135 130.941C199.161 131.004 199.174 131.072 199.173 131.14V137.683ZM230.298 239.403C230.298 239.471 230.284 239.538 230.258 239.6C230.232 239.663 230.194 239.72 230.146 239.767C230.098 239.815 230.041 239.852 229.979 239.878C229.916 239.904 229.849 239.916 229.781 239.916H210.569C210.433 239.916 210.302 239.862 210.205 239.766C210.109 239.67 210.054 239.54 210.053 239.403V232.86C210.054 232.724 210.109 232.593 210.205 232.496C210.302 232.4 210.433 232.345 210.569 232.344H229.781C229.918 232.344 230.05 232.399 230.146 232.495C230.243 232.592 230.298 232.724 230.298 232.86V239.403ZM230.298 222.447C230.298 222.515 230.285 222.583 230.259 222.646C230.234 222.708 230.196 222.766 230.148 222.814C230.099 222.862 230.042 222.9 229.98 222.925C229.917 222.951 229.849 222.964 229.781 222.964H210.569C210.501 222.964 210.434 222.95 210.372 222.924C210.309 222.898 210.252 222.86 210.204 222.812C210.156 222.765 210.118 222.708 210.092 222.645C210.066 222.582 210.053 222.515 210.053 222.447V215.897C210.053 215.829 210.066 215.762 210.092 215.699C210.118 215.637 210.156 215.58 210.204 215.532C210.252 215.484 210.309 215.446 210.372 215.42C210.434 215.394 210.501 215.38 210.569 215.38H229.781C229.849 215.38 229.917 215.393 229.98 215.419C230.042 215.445 230.099 215.483 230.148 215.531C230.196 215.579 230.234 215.636 230.259 215.699C230.285 215.761 230.298 215.829 230.298 215.897V222.447ZM230.298 205.495C230.298 205.632 230.243 205.763 230.146 205.86C230.05 205.957 229.918 206.011 229.781 206.011H210.569C210.433 206.01 210.302 205.956 210.205 205.859C210.109 205.763 210.054 205.632 210.053 205.495V198.941C210.054 198.804 210.109 198.673 210.205 198.577C210.302 198.48 210.433 198.425 210.569 198.424H229.781C229.918 198.424 230.05 198.479 230.146 198.576C230.243 198.673 230.298 198.804 230.298 198.941V205.495ZM230.298 188.539C230.298 188.607 230.285 188.674 230.259 188.737C230.234 188.8 230.196 188.857 230.148 188.905C230.099 188.953 230.042 188.991 229.98 189.017C229.917 189.043 229.849 189.056 229.781 189.055H210.569C210.501 189.055 210.434 189.042 210.372 189.016C210.309 188.99 210.252 188.952 210.204 188.904C210.156 188.856 210.118 188.799 210.092 188.737C210.066 188.674 210.053 188.607 210.053 188.539V182C210.053 181.932 210.066 181.865 210.092 181.802C210.118 181.74 210.156 181.683 210.204 181.635C210.252 181.587 210.309 181.549 210.372 181.523C210.434 181.497 210.501 181.484 210.569 181.484H229.781C229.849 181.483 229.917 181.496 229.98 181.522C230.042 181.548 230.099 181.586 230.148 181.634C230.196 181.682 230.234 181.739 230.259 181.802C230.285 181.865 230.298 181.932 230.298 182V188.539ZM230.298 171.587C230.298 171.724 230.243 171.855 230.146 171.952C230.05 172.049 229.918 172.103 229.781 172.103H210.569C210.433 172.102 210.302 172.048 210.205 171.951C210.109 171.854 210.054 171.724 210.053 171.587V165.033C210.054 164.896 210.109 164.766 210.205 164.67C210.302 164.574 210.433 164.52 210.569 164.52H229.781C229.849 164.52 229.916 164.532 229.979 164.558C230.041 164.584 230.098 164.621 230.146 164.669C230.194 164.716 230.232 164.773 230.258 164.836C230.284 164.898 230.298 164.965 230.298 165.033V171.587ZM230.298 154.635C230.298 154.702 230.284 154.769 230.258 154.832C230.232 154.894 230.194 154.951 230.146 154.999C230.098 155.046 230.041 155.084 229.979 155.109C229.916 155.135 229.849 155.148 229.781 155.147H210.569C210.433 155.147 210.302 155.093 210.205 154.997C210.109 154.901 210.054 154.771 210.053 154.635V148.08C210.054 147.944 210.109 147.813 210.205 147.716C210.302 147.62 210.433 147.565 210.569 147.564H229.781C229.918 147.564 230.05 147.618 230.146 147.715C230.243 147.812 230.298 147.943 230.298 148.08V154.635ZM230.298 137.679C230.298 137.747 230.285 137.814 230.259 137.877C230.234 137.94 230.196 137.997 230.148 138.045C230.099 138.093 230.042 138.131 229.98 138.157C229.917 138.183 229.849 138.196 229.781 138.195H210.569C210.501 138.195 210.434 138.182 210.372 138.156C210.309 138.13 210.252 138.092 210.204 138.044C210.156 137.996 210.118 137.939 210.092 137.876C210.066 137.814 210.053 137.747 210.053 137.679V131.14C210.053 131.072 210.066 131.005 210.092 130.942C210.118 130.879 210.156 130.822 210.204 130.775C210.252 130.727 210.309 130.689 210.372 130.663C210.434 130.637 210.501 130.623 210.569 130.623H229.781C229.849 130.623 229.917 130.636 229.98 130.662C230.042 130.687 230.099 130.725 230.148 130.773C230.196 130.821 230.234 130.879 230.259 130.941C230.285 131.004 230.298 131.072 230.298 131.14V137.679ZM275.846 239.4C275.845 239.536 275.791 239.666 275.694 239.762C275.597 239.858 275.466 239.912 275.33 239.912H256.118C256.05 239.913 255.983 239.9 255.921 239.874C255.858 239.849 255.801 239.811 255.753 239.763C255.705 239.716 255.667 239.659 255.641 239.597C255.615 239.534 255.602 239.467 255.602 239.4V232.86C255.602 232.724 255.656 232.592 255.753 232.495C255.85 232.399 255.981 232.344 256.118 232.344H275.334C275.471 232.345 275.601 232.4 275.698 232.496C275.794 232.593 275.849 232.724 275.85 232.86L275.846 239.4ZM275.846 222.444C275.846 222.581 275.792 222.712 275.695 222.809C275.598 222.905 275.467 222.96 275.33 222.96H256.118C256.05 222.96 255.983 222.947 255.92 222.922C255.857 222.896 255.8 222.858 255.752 222.81C255.704 222.762 255.666 222.705 255.64 222.642C255.614 222.579 255.601 222.512 255.602 222.444V215.897C255.601 215.829 255.614 215.761 255.64 215.699C255.666 215.636 255.704 215.579 255.752 215.531C255.8 215.483 255.857 215.445 255.92 215.419C255.983 215.393 256.05 215.38 256.118 215.38H275.334C275.471 215.38 275.602 215.435 275.699 215.532C275.796 215.629 275.85 215.76 275.85 215.897L275.846 222.444ZM275.846 205.491C275.845 205.628 275.791 205.759 275.694 205.855C275.597 205.952 275.467 206.007 275.33 206.008H256.118C255.981 206.008 255.85 205.953 255.753 205.856C255.656 205.76 255.602 205.628 255.602 205.491V198.941C255.602 198.804 255.656 198.673 255.753 198.576C255.85 198.479 255.981 198.424 256.118 198.424H275.334C275.471 198.425 275.601 198.48 275.698 198.577C275.794 198.673 275.849 198.804 275.85 198.941L275.846 205.491ZM275.846 188.535C275.846 188.672 275.792 188.804 275.695 188.9C275.598 188.997 275.467 189.052 275.33 189.052H256.118C256.05 189.052 255.983 189.039 255.92 189.013C255.857 188.988 255.8 188.95 255.752 188.902C255.704 188.854 255.666 188.796 255.64 188.734C255.614 188.671 255.601 188.603 255.602 188.535V182C255.601 181.932 255.614 181.865 255.64 181.802C255.666 181.739 255.704 181.682 255.752 181.634C255.8 181.586 255.857 181.548 255.92 181.522C255.983 181.496 256.05 181.483 256.118 181.484H275.334C275.471 181.484 275.602 181.538 275.699 181.635C275.796 181.732 275.85 181.863 275.85 182L275.846 188.535ZM275.846 171.583C275.845 171.72 275.791 171.851 275.694 171.947C275.597 172.044 275.467 172.098 275.33 172.099H256.118C255.981 172.099 255.85 172.045 255.753 171.948C255.656 171.851 255.602 171.72 255.602 171.583V165.033C255.602 164.965 255.615 164.898 255.641 164.836C255.667 164.773 255.705 164.716 255.753 164.669C255.801 164.621 255.858 164.584 255.921 164.558C255.983 164.532 256.05 164.52 256.118 164.52H275.334C275.47 164.52 275.601 164.574 275.698 164.67C275.794 164.766 275.849 164.896 275.85 165.033L275.846 171.583ZM275.846 154.631C275.847 154.699 275.835 154.767 275.81 154.83C275.784 154.893 275.747 154.951 275.699 155C275.652 155.048 275.595 155.087 275.532 155.114C275.469 155.14 275.402 155.154 275.334 155.155H256.118C256.05 155.155 255.983 155.143 255.921 155.117C255.858 155.091 255.801 155.054 255.753 155.006C255.705 154.959 255.667 154.902 255.641 154.839C255.615 154.777 255.602 154.71 255.602 154.642V148.08C255.602 147.943 255.656 147.812 255.753 147.715C255.85 147.618 255.981 147.564 256.118 147.564H275.334C275.471 147.565 275.601 147.62 275.698 147.716C275.794 147.813 275.849 147.944 275.85 148.08L275.846 154.631ZM275.846 137.675C275.846 137.812 275.792 137.943 275.695 138.04C275.598 138.137 275.467 138.191 275.33 138.191H256.118C256.05 138.192 255.983 138.179 255.92 138.153C255.857 138.127 255.8 138.089 255.752 138.041C255.704 137.993 255.666 137.936 255.64 137.873C255.614 137.81 255.601 137.743 255.602 137.675V131.14C255.601 131.072 255.614 131.004 255.64 130.941C255.666 130.879 255.704 130.821 255.752 130.773C255.8 130.725 255.857 130.687 255.92 130.662C255.983 130.636 256.05 130.623 256.118 130.623H275.334C275.471 130.623 275.602 130.678 275.699 130.775C275.796 130.871 275.85 131.003 275.85 131.14L275.846 137.675Z" fill="#6C63FF"/>
<path opacity="0.1" d="M141.873 85.8355C139.714 85.4244 137.481 85.6667 135.46 86.5315C134.242 87.0743 132.923 87.3532 131.59 87.3499C130.257 87.3466 128.939 87.0612 127.724 86.5124C126.292 85.8844 124.74 85.5753 123.177 85.6063C121.613 85.6373 120.075 86.0078 118.669 86.6921C117.864 87.1158 116.97 87.3389 116.061 87.3422C112.389 87.3422 109.334 83.6443 108.699 78.7648C109.433 78.2303 110.056 77.5589 110.535 76.7877C112.688 73.3193 116.022 71.0898 119.766 71.0898C123.51 71.0898 126.802 73.2925 128.944 76.7227C129.586 77.7591 130.485 78.6121 131.554 79.199C132.622 79.7859 133.824 80.0868 135.043 80.0726H135.139C138.091 80.0726 140.623 82.4168 141.873 85.8355Z" fill="#6C63FF"/>
<path opacity="0.1" d="M153.04 70.5201L147.105 74.283L150.707 67.7323C149.686 66.9174 148.422 66.4665 147.116 66.4512H147.02C146.608 66.4572 146.196 66.4265 145.789 66.3594L143.785 67.6367L144.649 66.0688C143.223 65.5705 141.992 64.6334 141.131 63.3919L137.529 65.6864L139.797 61.5411C137.69 59.0134 134.852 57.4646 131.732 57.4646C127.988 57.4646 124.653 59.6902 122.5 63.1587C121.863 64.1995 120.96 65.0525 119.886 65.631C118.811 66.2094 117.602 66.4924 116.382 66.4512H116.179C112.045 66.4512 108.695 71.1357 108.695 76.9178C108.695 82.6998 112.045 87.3843 116.179 87.3843C117.089 87.3819 117.984 87.1574 118.787 86.7304C120.194 86.0467 121.732 85.6768 123.295 85.6464C124.859 85.6161 126.411 85.9259 127.843 86.5545C129.054 87.0952 130.366 87.3747 131.693 87.3747C133.02 87.3747 134.332 87.0952 135.544 86.5545C136.965 85.9365 138.503 85.632 140.053 85.6617C141.602 85.6914 143.127 86.0546 144.523 86.7265C145.319 87.1429 146.203 87.3619 147.101 87.3652C151.235 87.3652 154.584 82.6768 154.584 76.8986C154.611 74.6767 154.08 72.4837 153.04 70.5201Z" fill="#6C63FF"/>
<path opacity="0.1" d="M318.164 155.614C316.652 155.327 315.09 155.497 313.674 156.099C312.826 156.479 311.907 156.675 310.978 156.675C310.049 156.675 309.13 156.479 308.282 156.099C307.279 155.66 306.193 155.443 305.098 155.465C304.003 155.487 302.927 155.747 301.942 156.226C301.38 156.523 300.754 156.679 300.118 156.681C297.548 156.681 295.41 154.092 294.967 150.677C295.479 150.301 295.915 149.831 296.252 149.293C297.758 146.864 300.076 145.304 302.711 145.304C305.345 145.304 307.64 146.834 309.147 149.247C309.595 149.972 310.224 150.569 310.972 150.98C311.72 151.391 312.561 151.601 313.414 151.591H313.483C315.51 151.583 317.28 153.224 318.164 155.614Z" fill="#6C63FF"/>
<path opacity="0.1" d="M325.972 144.906L321.819 147.541L324.339 142.952C323.625 142.383 322.741 142.068 321.827 142.057H321.762C321.474 142.061 321.186 142.039 320.901 141.992L319.49 142.883L320.095 141.79C319.098 141.44 318.237 140.785 317.632 139.92L315.104 141.51L316.695 138.616C315.223 136.845 313.253 135.759 311.051 135.759C308.431 135.759 306.079 137.319 304.588 139.748C304.142 140.473 303.511 141.067 302.761 141.47C302.011 141.873 301.168 142.07 300.316 142.042H300.19C297.299 142.042 294.951 145.319 294.951 149.365C294.951 153.411 297.299 156.692 300.19 156.692C300.826 156.69 301.452 156.534 302.014 156.237C302.999 155.758 304.076 155.498 305.171 155.477C306.266 155.456 307.352 155.674 308.355 156.115C309.203 156.492 310.122 156.686 311.051 156.686C311.979 156.686 312.898 156.492 313.747 156.115C314.741 155.683 315.817 155.47 316.901 155.491C317.986 155.513 319.052 155.767 320.03 156.237C320.587 156.526 321.206 156.678 321.835 156.681C324.729 156.681 327.074 153.403 327.074 149.354C327.083 147.803 326.704 146.274 325.972 144.906Z" fill="#6C63FF"/>
<path opacity="0.1" d="M91.252 131.14C92.7635 130.854 94.326 131.023 95.7414 131.625C96.5889 132.005 97.507 132.201 98.4355 132.201C99.364 132.201 100.282 132.005 101.13 131.625C102.132 131.186 103.219 130.969 104.314 130.991C105.408 131.013 106.485 131.272 107.47 131.751C108.032 132.048 108.658 132.204 109.294 132.207C111.864 132.207 114.005 129.618 114.449 126.203C113.936 125.828 113.499 125.358 113.164 124.818C111.665 122.382 109.321 120.815 106.694 120.815C104.066 120.815 101.768 122.344 100.262 124.757C99.8112 125.484 99.1811 126.082 98.4322 126.494C97.6833 126.906 96.8409 127.118 95.9862 127.109H95.9212C93.8867 127.109 92.1124 128.75 91.252 131.14Z" fill="#6C63FF"/>
<path opacity="0.1" d="M83.418 120.432L87.571 123.055L85.0471 118.467C85.762 117.898 86.6459 117.583 87.5595 117.572H87.6283C87.9165 117.575 88.2044 117.553 88.4888 117.507L89.896 118.398L89.2918 117.304C90.2894 116.954 91.1521 116.3 91.7584 115.434L94.2784 117.032L92.6838 114.138C94.1599 112.367 96.1446 111.281 98.332 111.281C100.951 111.281 103.303 112.841 104.795 115.27C105.241 115.995 105.871 116.59 106.621 116.993C107.371 117.396 108.215 117.593 109.066 117.564H109.204C112.099 117.564 114.443 120.841 114.443 124.887C114.443 128.933 112.099 132.214 109.204 132.214C108.568 132.211 107.942 132.055 107.38 131.759C106.395 131.28 105.318 131.02 104.223 130.999C103.128 130.978 102.042 131.195 101.039 131.637C100.191 132.014 99.2735 132.208 98.3453 132.208C97.4172 132.208 96.4994 132.014 95.6513 131.637C94.656 131.205 93.5793 130.992 92.4945 131.013C91.4098 131.034 90.3422 131.289 89.3645 131.759C88.8067 132.049 88.1879 132.201 87.5595 132.203C84.6685 132.203 82.3205 128.925 82.3205 124.876C82.3109 123.326 82.6882 121.799 83.418 120.432Z" fill="#6C63FF"/>
<path d="M83.625 267.709C88.8028 270.998 96.2636 267.671 101.476 270.91C102.822 271.744 103.908 272.971 105.3 273.729C106.971 274.642 108.937 274.807 110.837 274.876C126.753 275.491 142.937 271.052 158.455 274.639C162.795 275.641 167.04 277.27 171.487 277.507C179.17 277.924 186.531 274.176 194.222 273.969C205.885 273.656 217.346 281.461 228.6 278.382C232.302 277.369 235.698 275.208 239.518 274.845C243.774 274.463 247.866 276.317 252.004 277.4C266.677 281.224 281.958 275.029 297.128 274.566C307.021 274.264 316.818 276.421 326.703 276.918C333.732 277.27 340.776 276.776 347.797 276.287C350.474 276.099 353.277 275.87 355.518 274.402C357.759 272.933 359.136 269.778 357.751 267.484L83.625 267.709Z" fill="#3F3D56"/>
<path opacity="0.1" d="M83.625 267.709C88.8028 270.998 96.2636 267.671 101.476 270.91C102.822 271.744 103.908 272.971 105.3 273.729C106.971 274.642 108.937 274.807 110.837 274.876C126.753 275.491 142.937 271.052 158.455 274.639C162.795 275.641 167.04 277.27 171.487 277.507C179.17 277.924 186.531 274.176 194.222 273.969C205.885 273.656 217.346 281.461 228.6 278.382C232.302 277.369 235.698 275.208 239.518 274.845C243.774 274.463 247.866 276.317 252.004 277.4C266.677 281.224 281.958 275.029 297.128 274.566C307.021 274.264 316.818 276.421 326.703 276.918C333.732 277.27 340.776 276.776 347.797 276.287C350.474 276.099 353.277 275.87 355.518 274.402C357.759 272.933 359.136 269.778 357.751 267.484L83.625 267.709Z" fill="black"/>
<path d="M83.625 265.797C88.8028 269.086 96.2636 265.759 101.476 268.998C102.822 269.832 103.908 271.059 105.3 271.816C106.971 272.73 108.937 272.895 110.837 272.964C126.753 273.579 142.937 269.14 158.455 272.727C162.795 273.728 167.04 275.358 171.487 275.595C179.17 276.011 186.531 272.264 194.222 272.057C205.885 271.744 217.346 279.549 228.6 276.47C232.302 275.457 235.698 273.296 239.518 272.933C243.774 272.551 247.866 274.405 252.004 275.488C266.677 279.312 281.958 273.117 297.128 272.654C307.021 272.352 316.818 274.509 326.703 275.006C333.732 275.358 340.776 274.864 347.797 274.375C350.474 274.187 353.277 273.958 355.518 272.489C357.759 271.021 359.136 267.866 357.751 265.572L83.625 265.797Z" fill="#3F3D56"/>
<g opacity="0.1">
<path opacity="0.1" d="M46.7872 218.685C46.8029 220.344 46.3766 221.978 45.552 223.419C46.3619 224.865 46.7872 226.495 46.7872 228.153C46.7872 229.811 46.3619 231.441 45.552 232.887C45.9708 233.604 46.2851 234.376 46.4851 235.182C42.3107 229.679 38.4683 223.933 34.9784 217.973C35.0624 216.552 35.4761 215.169 36.1868 213.935C35.3621 212.495 34.9358 210.861 34.9516 209.201C34.9467 208.079 35.1356 206.965 35.5099 205.908C35.6881 205.407 35.9148 204.924 36.1868 204.467C37.2652 202.635 38.9631 201.453 40.8675 201.453C42.7719 201.453 44.4736 202.635 45.552 204.467C45.8143 204.911 46.0357 205.378 46.2136 205.862C46.5971 206.933 46.7912 208.063 46.7872 209.201C46.8029 210.861 46.3766 212.495 45.552 213.935C46.3793 215.38 46.8057 217.02 46.7872 218.685Z" fill="#3F3D56"/>
<path opacity="0.1" d="M40.867 207.499C44.1343 207.499 46.7829 204.03 46.7829 199.751C46.7829 195.473 44.1343 192.004 40.867 192.004C37.5998 192.004 34.9512 195.473 34.9512 199.751C34.9512 204.03 37.5998 207.499 40.867 207.499Z" fill="#3F3D56"/>
<path opacity="0.1" d="M40.867 198.031C44.1343 198.031 46.7829 194.562 46.7829 190.283C46.7829 186.004 44.1343 182.535 40.867 182.535C37.5998 182.535 34.9512 186.004 34.9512 190.283C34.9512 194.562 37.5998 198.031 40.867 198.031Z" fill="#3F3D56"/>
<path opacity="0.1" d="M69.0893 142.994C69.0991 149.353 66.9606 155.529 63.0204 160.52C66.0211 164.335 67.9918 168.857 68.7438 173.653C69.4958 178.448 69.0038 183.356 67.3151 187.907C65.6264 192.458 62.7974 196.498 59.0993 199.642C55.4011 202.786 50.9576 204.928 46.1944 205.862C45.5137 206 44.8216 206.107 44.1218 206.191C41.9631 206.449 39.7821 206.461 37.6208 206.226C36.9019 206.149 36.1919 206.043 35.4908 205.908C32.3994 205.337 29.4261 204.25 26.6954 202.692C21.6057 192.294 17.16 181.594 13.3837 170.65C14.3772 166.97 16.1061 163.529 18.4659 160.535C15.5487 156.829 13.6014 152.455 12.8002 147.807C11.9989 143.159 12.369 138.385 13.877 133.916L35.399 141.14L15.2155 130.654C16.1044 128.82 17.1877 127.086 18.4468 125.484C16.0397 122.425 14.2884 118.903 13.3021 115.137C12.3158 111.371 12.1155 107.443 12.7138 103.597C13.3121 99.7504 14.6962 96.0685 16.7797 92.7805C18.8633 89.4924 21.6017 86.6687 24.8242 84.4853C28.0468 82.3019 31.6846 80.8056 35.5108 80.0896C39.3369 79.3736 43.2696 79.4533 47.0636 80.3237C50.8577 81.1941 54.4318 82.8366 57.5633 85.1487C60.6948 87.4609 63.3165 90.3932 65.2652 93.7629L44.4583 109.059L67.0204 97.3576C68.4631 100.941 69.159 104.781 69.0656 108.643C68.9722 112.505 68.0915 116.307 66.4774 119.816L49.6514 119.69L65.2002 122.245C64.5401 123.375 63.8029 124.459 62.9937 125.488C66.9388 130.47 69.0866 136.639 69.0893 142.994Z" fill="#6C63FF"/>
<path opacity="0.1" d="M69.0887 178.061C69.0876 184.63 66.8062 190.994 62.634 196.067C58.4618 201.141 52.6577 204.608 46.213 205.878C45.5323 206.015 44.8401 206.122 44.1403 206.206C41.9817 206.465 39.8006 206.476 37.6394 206.241C36.9204 206.164 36.2104 206.059 35.5093 205.923C32.4179 205.352 29.4446 204.265 26.7139 202.707C21.6171 192.305 17.1651 181.599 13.3831 170.65C14.3766 166.97 16.1055 163.529 18.4654 160.535C14.5233 155.539 12.3847 149.358 12.3965 142.994C12.3965 139.813 66.821 155.698 63.0199 160.52C66.9633 165.515 69.102 171.697 69.0887 178.061Z" fill="black"/>
</g>
<g opacity="0.1">
<path opacity="0.1" d="M388.107 211.312C386.998 214.853 385.813 218.367 384.597 221.801C384.259 220.789 384.088 219.729 384.092 218.662C384.092 215.247 385.774 212.348 388.107 211.312Z" fill="#3F3D56"/>
<path opacity="0.1" d="M400 150.294C400 157.006 398.646 167.61 396.176 179.74C394.012 190.393 391.313 200.93 388.088 211.312C386.979 214.853 385.794 218.367 384.578 221.801C383.182 225.702 381.71 229.495 380.168 233.124C375.955 231.578 372.167 229.056 369.115 225.766C366.062 222.476 363.831 218.51 362.604 214.193C361.376 209.876 361.188 205.329 362.053 200.925C362.919 196.521 364.814 192.385 367.583 188.853C364.665 185.136 362.718 180.751 361.917 176.094C361.116 171.437 361.486 166.654 362.994 162.176L384.516 169.415L364.333 158.906C365.222 157.069 366.305 155.331 367.564 153.725C364.876 150.297 363.01 146.298 362.112 142.035C361.213 137.773 361.306 133.361 362.381 129.139C363.457 124.918 365.488 121 368.317 117.688C371.147 114.376 374.699 111.757 378.7 110.034C387.387 115.961 393.926 124.536 397.342 134.482L393.614 137.258L397.614 135.182C398.956 139.305 399.739 143.589 399.943 147.92H398.819L399.966 148.107C400 148.83 400 149.556 400 150.294Z" fill="#6C63FF"/>
<path opacity="0.1" d="M396.195 179.74C394.031 190.393 391.332 200.93 388.107 211.312C386.998 214.853 385.812 218.367 384.596 221.801C383.201 225.702 381.728 229.495 380.187 233.124C375.974 231.578 372.186 229.056 369.134 225.766C366.081 222.476 363.85 218.51 362.623 214.193C361.395 209.876 361.207 205.329 362.072 200.925C362.938 196.521 364.832 192.385 367.602 188.853C363.665 183.847 361.528 177.661 361.537 171.293C361.537 169.38 381.315 174.39 396.195 179.74Z" fill="black"/>
</g>
<path opacity="0.1" d="M399.95 148.099C399.95 148.042 399.95 147.981 399.95 147.92C399.746 143.589 398.963 139.305 397.621 135.182C397.545 134.948 397.469 134.711 397.388 134.482C393.972 124.536 387.433 115.961 378.746 110.034C369.008 103.4 357.188 100.538 345.495 101.984C333.801 103.429 323.033 109.083 315.205 117.889C314.385 113.247 313.09 108.702 311.339 104.325C298.579 105.938 285.701 106.418 272.857 105.759C280.728 109.388 288.889 112.352 297.254 114.619L296.956 115.728C287.568 113.179 278.437 109.761 269.683 105.518L267.04 104.237L269.969 104.428C283.615 105.322 297.315 104.929 310.887 103.254C307.951 96.2507 303.878 89.78 298.834 84.1032C276.822 81.8853 254.983 77.2658 234.589 68.1071L235.059 67.0631C254.91 75.9847 276.184 80.5698 297.66 82.826C290.39 75.0333 281.409 69.0375 271.424 65.3121C261.439 61.5867 250.725 60.2338 240.128 61.3601C229.531 62.4865 219.34 66.0614 210.362 71.8023C201.384 77.5433 193.863 85.2931 188.394 94.4398C186.36 74.7142 178.166 56.1299 164.975 41.3231C153.232 46.0152 141.107 49.6884 128.734 52.3021C110.127 56.257 91.0832 57.7726 72.0842 56.8107C79.9552 60.44 88.1162 63.4038 96.4819 65.6711L96.1836 66.7801C86.7978 64.2303 77.6698 60.8121 68.9178 56.5698L66.2754 55.2887L69.2046 55.4799C101.589 57.6069 134.039 52.4656 164.18 40.4321C163.045 39.1905 161.878 37.977 160.677 36.7916C123.04 37.5564 82.0498 37.174 44.9408 23.6635C31.1897 32.1509 19.8403 44.0174 11.9737 58.1328C4.10698 72.2482 -0.0150791 88.1426 4.14494e-05 104.302C4.14494e-05 122.069 4.88341 146.501 13.3844 171.013C17.1725 181.984 21.6309 192.712 26.7343 203.136C29.3308 208.413 32.088 213.541 34.9828 218.451C38.4732 224.411 42.3155 230.157 46.4895 235.66C47.2391 236.646 47.9975 237.615 48.7649 238.566C53.0423 243.98 57.8431 248.958 63.0976 253.43C64.1607 254.317 65.2301 255.163 66.306 255.966C69.1896 258.145 72.2609 260.065 75.4838 261.702C81.0937 264.512 86.8834 266.161 92.8069 266.398C93.2811 266.417 93.7591 266.428 94.2333 266.428V266.623H351.212V266.428H351.404C352.885 266.423 354.354 266.164 355.748 265.663C364.834 262.44 373.201 249.495 380.157 233.136C381.686 229.507 383.17 225.713 384.566 221.813C385.797 218.371 386.968 214.864 388.077 211.323C391.301 200.942 394.001 190.405 396.164 179.751C398.616 167.621 399.989 157.017 399.989 150.306C400 149.556 400 148.83 399.95 148.099Z" fill="#FF0000"/>
<path d="M127.748 255.369L135.067 251.063C134.077 249.373 132.812 247.86 131.324 246.585L117.515 250.88L128.337 244.52C125.658 243.053 122.643 242.308 119.589 242.359C116.535 242.411 113.547 243.257 110.919 244.814C108.291 246.371 106.114 248.586 104.602 251.24C103.089 253.894 102.294 256.896 102.295 259.95C102.295 269.663 110.169 270 119.886 270C129.603 270 137.477 269.663 137.477 259.95C137.48 257.491 136.965 255.058 135.966 252.811L127.748 255.369Z" fill="#DBA834"/>
<path opacity="0.1" d="M129.61 264.811C128.831 264.031 127.961 263.347 127.017 262.776C125.687 261.893 124.314 260.99 122.746 260.692C121.369 260.428 119.951 260.65 118.539 260.57C116.105 260.421 113.814 259.371 112.111 257.625C111.113 256.593 110.325 255.331 109.125 254.532C107.828 253.683 106.184 253.499 104.647 253.709C104.2 253.773 103.759 253.864 103.323 253.981C102.633 255.895 102.281 257.915 102.283 259.95C102.283 269.664 110.157 270 119.874 270C124.589 270 128.868 269.92 132.027 268.73L131.499 267.744C130.995 266.691 130.36 265.705 129.61 264.811Z" fill="black"/>
<path d="M209.308 84.7113C216.858 84.7113 222.979 78.5905 222.979 71.0401C222.979 63.4898 216.858 57.369 209.308 57.369C201.757 57.369 195.637 63.4898 195.637 71.0401C195.637 78.5905 201.757 84.7113 209.308 84.7113Z" fill="#3F3D56"/>
<path d="M201.377 177.388C202.788 187.289 201.067 197.384 198.386 207.017C197.886 208.811 197.346 210.619 196.409 212.229C195.473 213.839 194.168 215.224 193.067 216.738C190.773 219.897 189.427 223.621 188.168 227.308C184.7 237.508 181.787 247.889 179.442 258.405C179.301 258.836 179.301 259.301 179.442 259.732C179.775 260.497 180.784 260.597 181.614 260.593L192.344 260.535C192.727 259.801 192.019 259.006 191.58 258.302C190.05 255.924 191.518 252.834 192.868 250.344C196.149 244.298 198.689 237.878 200.432 231.224C201.167 228.421 201.763 225.556 202.956 222.914C204.398 219.709 206.658 216.952 208.494 213.954C210.627 210.47 212.184 206.688 213.729 202.891C215.886 197.621 218.061 192.287 218.91 186.658C219.71 181.373 219.316 175.989 218.796 170.669C218.82 170.511 218.806 170.349 218.755 170.197C218.705 170.046 218.619 169.908 218.504 169.796C218.39 169.684 218.251 169.6 218.098 169.553C217.945 169.505 217.783 169.495 217.625 169.522L203.228 168.78C200.26 168.627 199.557 167.977 200.008 170.891C200.321 173.067 201.063 175.185 201.377 177.388Z" fill="#3F3D56"/>
<path opacity="0.1" d="M201.377 177.388C202.788 187.289 201.067 197.384 198.386 207.017C197.886 208.811 197.346 210.619 196.409 212.229C195.473 213.839 194.168 215.224 193.067 216.738C190.773 219.897 189.427 223.621 188.168 227.308C184.7 237.508 181.787 247.889 179.442 258.405C179.301 258.836 179.301 259.301 179.442 259.732C179.775 260.497 180.784 260.597 181.614 260.593L192.344 260.535C192.727 259.801 192.019 259.006 191.58 258.302C190.05 255.924 191.518 252.834 192.868 250.344C196.149 244.298 198.689 237.878 200.432 231.224C201.167 228.421 201.763 225.556 202.956 222.914C204.398 219.709 206.658 216.952 208.494 213.954C210.627 210.47 212.184 206.688 213.729 202.891C215.886 197.621 218.061 192.287 218.91 186.658C219.71 181.373 219.316 175.989 218.796 170.669C218.82 170.511 218.806 170.349 218.755 170.197C218.705 170.046 218.619 169.908 218.504 169.796C218.39 169.684 218.251 169.6 218.098 169.553C217.945 169.505 217.783 169.495 217.625 169.522L203.228 168.78C200.26 168.627 199.557 167.977 200.008 170.891C200.321 173.067 201.063 175.185 201.377 177.388Z" fill="black"/>
<path d="M204.206 153.319C201.281 157.526 198.214 162.367 199.185 167.403C199.923 171.228 202.837 174.191 205.587 176.964C216.577 188 227.384 200.26 231.124 215.384C232.088 219.293 232.554 223.304 233.384 227.239C234.891 234.39 237.591 241.228 240.267 248.023L247.441 266.13C249.666 266.185 251.854 265.554 253.708 264.322C255.562 263.091 256.992 261.319 257.805 259.247C256.864 259.174 255.636 258.264 255.086 257.499C252.027 253.266 251.399 247.82 250.615 242.658C249.747 236.952 248.589 231.293 247.426 225.637L242.287 200.612C241.694 197.725 241.101 194.834 240.329 191.989C237.338 180.968 231.671 170.574 230.795 159.178C230.665 157.503 230.585 155.663 229.449 154.421C228.256 153.109 226.298 152.891 224.527 152.788C217.365 152.329 211.185 151.629 204.206 153.319Z" fill="#3F3D56"/>
<path d="M184.883 258.149C184.103 257.964 183.306 257.861 182.504 257.843C181.736 257.87 180.985 258.076 180.311 258.445C179.636 258.813 179.057 259.334 178.619 259.966C178.172 260.681 177.821 261.453 177.575 262.26L176.539 265.235C176.233 266.107 175.935 267.113 176.39 267.912C176.728 268.409 177.216 268.785 177.782 268.987C180.29 270.103 183.135 270.164 185.851 270.432C188.504 270.692 191.135 271.159 193.755 271.648C194.657 271.82 195.556 271.992 196.47 272.084C198.512 272.291 200.57 272.084 202.612 271.901L204.719 271.698C205.424 271.667 206.122 271.539 206.791 271.315C207.126 271.202 207.434 271.022 207.697 270.786C207.96 270.55 208.172 270.263 208.321 269.943C208.841 268.654 207.724 267.128 206.359 266.86C205.805 266.753 205.212 266.803 204.669 266.73C204.032 266.621 203.41 266.435 202.818 266.176C200.141 265.117 197.399 264.046 195.028 262.379C194.371 261.916 193.682 261.27 193.755 260.467C193.823 260.123 193.938 259.789 194.095 259.476C194.417 258.656 194.428 257.746 194.126 256.918C193.996 256.566 193.743 256.195 193.388 256.153C192.378 256.031 192.501 257.503 192.352 258.065C192.149 258.83 191.782 258.899 191.063 258.83C188.998 258.642 186.933 258.539 184.883 258.149Z" fill="#C4C4C4"/>
<path d="M245.254 268.424C245.272 269.919 245.786 271.365 246.714 272.535C246.998 272.885 247.353 273.17 247.755 273.373C248.359 273.622 249.014 273.725 249.667 273.675C251.487 273.635 253.286 273.271 254.978 272.6C255.575 272.33 256.188 272.099 256.814 271.908C257.602 271.747 258.399 271.632 259.2 271.564C262.363 271.109 265.139 269.243 268.194 268.298C269.107 268.072 270.002 267.778 270.871 267.419C272.08 266.849 273.059 265.889 274.018 264.96C274.584 264.458 275.072 263.874 275.464 263.228C276.026 262.184 276.06 260.933 276.083 259.751C276.104 259.567 276.072 259.38 275.992 259.212C275.904 259.092 275.785 258.998 275.647 258.941C274.718 258.482 273.617 258.711 272.588 258.891C268.871 259.553 265.066 259.43 261.292 259.308C260.934 259.357 260.569 259.287 260.255 259.108C259.942 258.928 259.696 258.651 259.556 258.317L258.122 256.023C257.712 255.365 257.062 254.612 256.321 254.837C255.728 255.017 255.487 255.744 255.51 256.367C255.533 256.99 255.724 257.61 255.605 258.218C255.521 258.553 255.369 258.866 255.158 259.14C254.948 259.414 254.683 259.641 254.382 259.809C253.779 260.136 253.136 260.383 252.47 260.543C250.359 261.14 247.904 261.816 246.271 263.369C245.07 264.47 245.181 266.937 245.254 268.424Z" fill="#C4C4C4"/>
<path d="M244.512 116.707C245.336 116.078 246.042 115.309 246.6 114.436C247.081 113.45 247.383 112.387 247.491 111.296L248.092 107.503C248.424 105.411 248.814 103.197 250.21 101.602C251.606 100.008 254.386 99.4379 255.805 101.013C256.424 101.698 256.669 102.639 256.822 103.553C257.258 106.278 257.079 109.066 256.297 111.713C255.515 114.36 254.15 116.798 252.302 118.849C250.585 120.73 248.478 122.226 246.661 124.004C245.078 125.533 243.705 127.289 242.245 128.952C238.712 132.971 234.666 136.506 230.21 139.468C230.264 136.623 230.627 133.572 230.21 130.746C229.9 128.704 229.063 127.602 231.04 126.268C235.629 123.147 240.26 120.325 244.512 116.707Z" fill="#FBBEBE"/>
<path d="M205.95 88.7227C205.801 90.7572 204.956 92.8375 203.273 94.0115C208.038 95.6788 212.738 97.5169 217.373 99.5258C216.478 98.6654 216.207 97.3461 216.164 96.1071C216.046 92.8681 217.166 89.6826 218.803 86.891C219.063 86.5369 219.214 86.1139 219.235 85.6749C219.182 84.7725 218.111 84.3556 217.231 84.1453C214.231 83.4174 211.168 82.9731 208.084 82.8184C206.765 82.7763 205.201 82.3595 205.499 84.0382C205.782 85.6061 206.069 87.1357 205.95 88.7227Z" fill="#FBBEBE"/>
<path d="M215.166 89.8126C221.339 89.8126 226.344 84.8081 226.344 78.6348C226.344 72.4615 221.339 67.457 215.166 67.457C208.993 67.457 203.988 72.4615 203.988 78.6348C203.988 84.8081 208.993 89.8126 215.166 89.8126Z" fill="#FBBEBE"/>
<path d="M226.233 108.826C225.843 107.987 225.368 107.19 224.814 106.447C222.788 103.537 220.707 100.631 218.107 98.2218C216.137 96.4651 214.005 94.8992 211.74 93.545C210.518 92.7071 209.174 92.0622 207.755 91.6329C206.913 91.4464 206.058 91.33 205.197 91.2849L202.294 91.0478C202.04 91.0141 201.782 91.0218 201.53 91.0708C200.742 91.2696 200.382 92.2486 200.551 93.0402C200.719 93.8318 201.315 94.4742 201.843 95.0746C201.973 100.998 199.338 106.841 198.983 112.757C198.359 123.101 204.673 132.723 205.178 143.075C205.23 143.542 205.18 144.016 205.032 144.463C204.948 144.677 204.822 144.872 204.726 145.082C204.428 145.732 204.44 146.47 204.386 147.185C204.178 149.736 203.061 152.127 201.239 153.924C201.712 154.511 202.321 154.976 203.013 155.277C204.233 155.809 205.69 155.855 206.987 156.226C210.367 157.212 213.832 158.207 217.346 157.996C217.783 157.046 218.053 156.028 218.145 154.987C218.642 154.677 219.216 155.338 219.292 155.92C219.369 156.501 219.258 157.178 219.675 157.598C220.092 158.019 220.619 157.954 221.128 157.889C223.273 157.618 225.335 156.895 227.438 156.409C229.541 155.924 231.79 155.69 233.836 156.386C234.249 155.862 234.073 155.086 233.736 154.512C233.4 153.939 232.922 153.434 232.73 152.795C232.634 152.427 232.593 152.047 232.608 151.667C232.608 148.398 233.281 145.094 232.642 141.885C232.455 140.945 232.157 140.027 231.966 139.082C231.583 137.25 231.64 135.361 231.69 133.491C231.74 131.621 231.514 129.598 231.476 127.702C231.475 126.918 231.424 126.135 231.323 125.358C231.193 124.543 230.941 123.748 230.872 122.925C230.665 120.837 231.507 118.765 231.38 116.669C231.17 113.488 227.472 111.759 226.233 108.826Z" fill="#FF6F61"/>
<path d="M201.006 107.327C198.298 114.509 196.975 122.126 195.652 129.69L192.593 147.457C191.725 152.478 190.853 157.53 190.887 162.623C190.887 164.054 190.979 165.511 190.604 166.891C190.115 168.704 188.899 170.214 187.977 171.862C186.107 175.228 185.484 179.146 186.218 182.925C186.531 184.512 187.388 186.314 188.998 186.497C190.321 186.642 191.465 185.591 192.237 184.505C194.011 182.015 194.891 179.01 195.679 176.05C198.215 166.377 199.988 156.52 200.983 146.57C201.077 145.31 201.255 144.058 201.514 142.822C201.852 141.548 202.284 140.3 202.807 139.09C203.977 136.189 205.148 133.287 206.321 130.386C209.025 123.683 211.744 116.948 215.457 110.746C211.786 109.69 207.965 108.451 204.294 107.407C203.235 107.094 202.099 107.281 201.006 107.327Z" fill="#FBBEBE"/>
<path d="M207.368 112.784C204.798 112.229 202.14 112.401 199.517 112.336C199.144 112.364 198.773 112.267 198.461 112.061C197.93 111.606 198.156 110.753 198.423 110.107L199.693 107.048C199.901 106.415 200.249 105.838 200.71 105.358C201.356 104.784 202.266 104.642 203.123 104.539C205.911 104.218 208.779 104.111 211.483 104.864C214.186 105.618 216.729 107.331 217.938 109.866C218.442 110.922 218.676 112.252 218.006 113.212C217.012 114.639 214.783 116.233 213.119 115.453C211.127 114.509 209.601 113.258 207.368 112.784Z" fill="#FF6F61"/>
<path d="M221.032 61.2735C218.823 61.2498 216.656 61.8747 214.799 63.0708C213.041 61.4047 210.871 60.2357 208.513 59.6834C206.154 59.1311 203.692 59.2153 201.376 59.9274C201.131 58.5175 200.503 57.2022 199.56 56.125C198.618 55.0478 197.398 54.2501 196.033 53.819C194.669 53.3879 193.212 53.3399 191.822 53.6802C190.432 54.0205 189.162 54.7362 188.151 55.749C187.14 56.7618 186.426 58.0329 186.088 59.4235C185.75 60.8142 185.801 62.271 186.234 63.6349C186.668 64.9988 187.467 66.2174 188.546 67.1578C189.625 68.0982 190.941 68.7243 192.352 68.9676C191.847 70.6906 191.687 72.496 191.88 74.2809C192.074 76.0658 192.617 77.7952 193.478 79.3702C194.34 80.9453 195.503 82.3352 196.902 83.4606C198.301 84.586 199.908 85.4249 201.631 85.9293C203.354 86.4338 205.159 86.5939 206.944 86.4006C208.729 86.2073 210.458 85.6643 212.033 84.8026C213.608 83.941 214.998 82.7775 216.124 81.3787C217.249 79.9799 218.088 78.3732 218.592 76.6502C219.399 76.8153 220.22 76.8985 221.044 76.8987C226.436 76.8987 230.81 73.3997 230.81 69.0861C230.81 64.7725 226.417 61.2735 221.032 61.2735Z" fill="#3F3D56"/>
<path opacity="0.1" d="M222.979 72.9904C222.156 72.9927 221.334 72.9094 220.528 72.7419C220.145 74.1406 219.541 75.469 218.738 76.6769C219.494 76.8226 220.263 76.8968 221.033 76.8987C226.073 76.8987 230.211 73.8394 230.742 69.9235C228.949 71.7897 226.138 72.9904 222.979 72.9904Z" fill="black"/>
<path opacity="0.1" d="M207.354 82.7572C205.215 82.7541 203.106 82.2498 201.197 81.2848C199.288 80.3197 197.632 78.9208 196.361 77.2001C195.09 75.4795 194.24 73.485 193.879 71.3766C193.519 69.2682 193.657 67.1046 194.283 65.0593C192.474 64.7409 190.834 63.7951 189.653 62.388C188.472 60.9808 187.824 59.2024 187.824 57.3652C187.823 56.8958 187.865 56.4273 187.95 55.9656C186.996 56.996 186.338 58.2645 186.044 59.6375C185.75 61.0105 185.832 62.4374 186.28 63.768C186.729 65.0985 187.528 66.2836 188.593 67.1986C189.658 68.1136 190.95 68.7247 192.333 68.9675C191.28 72.4244 191.639 76.1576 193.33 79.3508C195.022 82.544 197.909 84.9375 201.361 86.008C204.812 87.0785 208.547 86.7389 211.749 85.0634C214.951 83.3879 217.359 80.5129 218.447 77.0669C217.183 78.8286 215.518 80.2637 213.588 81.2533C211.659 82.2428 209.522 82.7584 207.354 82.7572Z" fill="black"/>
<path d="M257.225 105.807C257.267 105.748 257.254 105.668 257.196 105.626C257.138 105.585 257.058 105.599 257.016 105.658L255.937 107.171C255.895 107.229 255.908 107.31 255.966 107.351C256.023 107.392 256.104 107.378 256.145 107.32L257.225 105.807Z" fill="#3A3768"/>
<path d="M251.182 99.3824C251.205 99.3497 251.197 99.3043 251.165 99.281C251.132 99.2577 251.087 99.2653 251.063 99.298L250.743 99.7462C250.72 99.7789 250.728 99.8243 250.76 99.8476C250.793 99.8709 250.838 99.8633 250.862 99.8306L251.182 99.3824Z" fill="#3A3768"/>
<path d="M250.438 100.438C250.463 100.402 250.455 100.352 250.419 100.326C250.383 100.3 250.333 100.309 250.307 100.345L249.696 101.201C249.67 101.237 249.679 101.287 249.715 101.313C249.751 101.339 249.801 101.33 249.827 101.294L250.438 100.438Z" fill="#3A3768"/>
<path d="M249.49 101.766C249.515 101.732 249.507 101.684 249.472 101.659C249.438 101.635 249.39 101.643 249.366 101.677L248.744 102.549C248.719 102.583 248.727 102.631 248.762 102.656C248.796 102.68 248.844 102.672 248.868 102.638L249.49 101.766Z" fill="#3A3768"/>
<path d="M259.078 102.559L253.65 98.6855C253.216 98.3763 252.615 98.4769 252.305 98.9102L243.276 111.564C242.967 111.997 243.068 112.599 243.501 112.908L248.93 116.782C249.363 117.091 249.965 116.99 250.274 116.557L259.303 103.903C259.612 103.47 259.512 102.868 259.078 102.559Z" fill="#3A3768"/>
<path opacity="0.1" d="M259.078 102.559L253.65 98.6855C253.216 98.3763 252.615 98.4769 252.305 98.9102L243.276 111.564C242.967 111.997 243.068 112.599 243.501 112.908L248.93 116.782C249.363 117.091 249.965 116.99 250.274 116.557L259.303 103.903C259.612 103.47 259.512 102.868 259.078 102.559Z" fill="black"/>
<path d="M258.723 101.846L253.294 97.9726C252.861 97.6634 252.259 97.7641 251.95 98.1973L242.921 110.851C242.612 111.284 242.712 111.886 243.146 112.195L248.574 116.069C249.008 116.378 249.609 116.278 249.919 115.844L258.948 103.191C259.257 102.757 259.156 102.155 258.723 101.846Z" fill="#3A3768"/>
<path d="M258.233 102.076L257.434 101.503L257.365 101.598C257.28 101.716 257.152 101.795 257.01 101.82C256.867 101.845 256.72 101.814 256.6 101.732L254.046 99.9082C253.925 99.8214 253.843 99.6901 253.818 99.5431C253.794 99.3961 253.829 99.2455 253.916 99.1243L253.985 99.0287L253.22 98.4933C253.147 98.4408 253.065 98.4033 252.977 98.3828C252.89 98.3623 252.8 98.3592 252.711 98.3738C252.623 98.3884 252.538 98.4203 252.462 98.4677C252.386 98.5151 252.32 98.5771 252.268 98.6501L243.441 111.021C243.337 111.168 243.294 111.351 243.324 111.529C243.353 111.708 243.452 111.867 243.598 111.973L248.623 115.556C248.696 115.609 248.779 115.646 248.866 115.666C248.954 115.686 249.044 115.689 249.133 115.674C249.221 115.659 249.306 115.627 249.382 115.579C249.458 115.531 249.524 115.469 249.575 115.396L258.401 103.029C258.453 102.955 258.49 102.872 258.51 102.785C258.529 102.697 258.531 102.606 258.516 102.517C258.5 102.429 258.467 102.344 258.419 102.269C258.37 102.193 258.307 102.128 258.233 102.076Z" fill="#DBA834"/>
<path d="M255.905 100.482L255.127 99.9268C255.072 99.8875 254.996 99.9003 254.956 99.9553C254.917 100.01 254.93 100.087 254.985 100.126L255.763 100.681C255.818 100.721 255.894 100.708 255.934 100.653C255.973 100.598 255.96 100.521 255.905 100.482Z" fill="#E6E8EC"/>
<path d="M256.177 100.987C256.253 100.987 256.314 100.925 256.314 100.849C256.314 100.773 256.253 100.711 256.177 100.711C256.101 100.711 256.039 100.773 256.039 100.849C256.039 100.925 256.101 100.987 256.177 100.987Z" fill="#E6E8EC"/>
<path d="M256.213 5.3269C249.418 5.3269 242.901 8.0263 238.096 12.8312C233.291 17.6362 230.592 24.1531 230.592 30.9483C230.592 45.0975 257.437 91.9579 257.437 91.9579C257.437 91.9579 281.835 45.1166 281.835 30.9483C281.835 24.1531 279.135 17.6362 274.33 12.8312C269.525 8.0263 263.008 5.3269 256.213 5.3269ZM256.213 48.0344C253.558 48.0344 250.963 47.2471 248.756 45.7723C246.549 44.2974 244.828 42.201 243.812 39.7484C242.796 37.2957 242.531 34.5969 243.049 31.9932C243.566 29.3895 244.845 26.9978 246.722 25.1206C248.599 23.2434 250.991 21.9651 253.595 21.4471C256.198 20.9292 258.897 21.195 261.35 22.211C263.802 23.2269 265.899 24.9473 267.374 27.1546C268.849 29.3619 269.636 31.9571 269.636 34.6118C269.638 36.3756 269.292 38.1225 268.618 39.7525C267.945 41.3826 266.956 42.8638 265.71 44.1115C264.463 45.3592 262.983 46.3489 261.353 47.024C259.724 47.6991 257.977 48.0463 256.213 48.0458V48.0344Z" fill="#FF0000"/>
<path opacity="0.1" d="M256.213 5.3269C249.418 5.3269 242.901 8.0263 238.096 12.8312C233.291 17.6362 230.592 24.1531 230.592 30.9483C230.592 45.0975 257.437 91.9579 257.437 91.9579C257.437 91.9579 281.835 45.1166 281.835 30.9483C281.835 24.1531 279.135 17.6362 274.33 12.8312C269.525 8.0263 263.008 5.3269 256.213 5.3269ZM256.213 48.0344C253.558 48.0344 250.963 47.2471 248.756 45.7723C246.549 44.2974 244.828 42.201 243.812 39.7484C242.796 37.2957 242.531 34.5969 243.049 31.9932C243.566 29.3895 244.845 26.9978 246.722 25.1206C248.599 23.2434 250.991 21.9651 253.595 21.4471C256.198 20.9292 258.897 21.195 261.35 22.211C263.802 23.2269 265.899 24.9473 267.374 27.1546C268.849 29.3619 269.636 31.9571 269.636 34.6118C269.638 36.3756 269.292 38.1225 268.618 39.7525C267.945 41.3826 266.956 42.8638 265.71 44.1115C264.463 45.3592 262.983 46.3489 261.353 47.024C259.724 47.6991 257.977 48.0463 256.213 48.0458V48.0344Z" fill="black"/>
<path d="M256.213 0C249.418 0 242.901 2.69939 238.096 7.50434C233.291 12.3093 230.592 18.8262 230.592 25.6214C230.592 39.7705 257.437 91.9694 257.437 91.9694C257.437 91.9694 281.835 39.7782 281.835 25.6252C281.835 22.2603 281.173 18.9281 279.885 15.8192C278.598 12.7102 276.711 9.88526 274.332 7.50569C271.952 5.12612 269.128 3.23852 266.019 1.95068C262.91 0.662844 259.578 -3.74802e-08 256.213 0ZM256.213 42.7074C253.558 42.7074 250.963 41.9202 248.756 40.4453C246.549 38.9705 244.828 36.8741 243.812 34.4215C242.796 31.9688 242.531 29.27 243.049 26.6663C243.566 24.0626 244.845 21.6709 246.722 19.7937C248.599 17.9165 250.991 16.6382 253.595 16.1202C256.198 15.6023 258.897 15.8681 261.35 16.8841C263.802 17.9 265.899 19.6204 267.374 21.8277C268.849 24.035 269.636 26.6302 269.636 29.2849C269.636 31.0476 269.289 32.793 268.614 34.4215C267.94 36.05 266.951 37.5297 265.704 38.7761C264.458 40.0225 262.978 41.0112 261.35 41.6857C259.721 42.3603 257.976 42.7074 256.213 42.7074Z" fill="#FF0000"/>
</g>
<defs>
<clipPath id="clip0">
<rect width="400" height="279.109" fill="white"/>
</clipPath>
</defs>
</svg>
