<svg width="24" height="24" viewBox="0 0 24 24" fill="none" xmlns="http://www.w3.org/2000/svg">
<path d="M22.1788 21.2651H1.82529C1.39738 21.2651 1.0625 21.6186 1.0625 22.0279C1.0625 22.4372 1.41599 22.7907 1.82529 22.7907H22.1974C22.6253 22.7907 22.9602 22.4372 22.9602 22.0279C22.9602 21.6186 22.6067 21.2651 22.1788 21.2651Z" fill="#C4C4C4"/>
<path d="M1.06157 14.5116L1.04297 18.1395C1.04297 18.3442 1.11739 18.5488 1.26622 18.6977C1.41506 18.8465 1.60111 18.9209 1.80576 18.9209L5.41506 18.9023C5.61971 18.9023 5.80576 18.8279 5.9546 18.6791L18.4197 6.21395C18.7174 5.91628 18.7174 5.43256 18.4197 5.11628L14.8476 1.50698C14.5499 1.2093 14.0662 1.2093 13.7499 1.50698L11.2569 4.01861L1.28483 13.9721C1.1546 14.1209 1.06157 14.307 1.06157 14.5116ZM14.3081 3.14419L16.8197 5.65582L15.4058 7.06977L12.8941 4.55814L14.3081 3.14419ZM2.60576 14.8465L11.7965 5.65582L14.3081 8.16744L5.11739 17.3395L2.58715 17.3581L2.60576 14.8465Z" fill="#C4C4C4"/>
</svg>
