<svg width="287" height="235" viewBox="0 0 287 235" fill="none" xmlns="http://www.w3.org/2000/svg">
<g clip-path="url(#clip0)">
<path opacity="0.18" d="M17.9242 109.845C8.79387 120.393 -0.873502 132.434 0.0607863 146.169C0.80486 157.058 8.24001 166.854 8.12812 177.748C8.01622 188.642 0.295757 198.854 1.97412 209.678C3.8427 221.963 17.0178 229.561 29.4993 232.478C55.8496 238.637 83.3132 231.937 110.335 229.88C131.079 228.306 151.93 229.507 172.697 230.708L231.043 234.064C238.875 234.518 246.987 234.935 254.31 232.218C261.024 229.734 266.445 224.837 271.094 219.582C281.282 208.13 288.929 193.22 286.54 178.294C282.686 154.233 254.685 138.171 253.08 113.893C252.554 105.948 254.842 97.1919 250.361 90.5191C248.598 87.8943 245.963 85.9406 243.228 84.2792C226.175 73.9425 204.827 73.6936 184.703 73.7693L86.1944 74.1265C75.3242 74.1644 57.0244 70.6954 47.4745 76.0423C42.6408 78.7428 17.9242 104.72 17.9242 109.845Z" fill="#FDBE68"/>
<path opacity="0.1" d="M266.534 185.341C266.954 189.914 265.913 193.816 264.162 195.932C262.411 198.048 259.793 199.368 257.085 200.072C254.377 200.775 245.588 202.907 242.791 203.059C245.51 202.242 255.972 199.184 257.337 196.765C257.907 195.653 258.407 194.509 258.836 193.339C259.759 191.093 260.968 180.583 262.752 178.857C264.828 176.866 266.333 183.122 266.534 185.341Z" fill="url(#paint0_linear)"/>
<path opacity="0.1" d="M149.765 198.026C124.795 195.839 99.719 195.001 74.6528 195.515C67.5365 195.666 59.1895 195.358 55.1055 189.719C59.665 186.282 65.8638 185.931 71.6373 185.741C128.383 183.782 181.016 182.121 237.762 180.161C235.16 178.338 237.762 173.884 237.236 170.815C242.83 169.159 254.668 171.73 258.344 175.491C254.903 173.104 247.563 172.244 244.43 173.483C241.297 174.723 238.757 177.45 240.464 180.27C240.967 181.103 241.779 181.812 241.913 182.77C242.137 184.366 240.408 185.525 238.869 186.142C225.314 191.553 208.832 186.374 195.735 192.777C194.951 193.1 194.265 193.612 193.744 194.265C191.797 197.128 196.362 199.936 199.853 200.505C212.342 202.551 224.973 203.676 237.639 203.871L194.734 205.798C195.959 207.215 195.338 209.51 193.912 210.739C192.485 211.967 190.521 212.362 188.642 212.687C172.764 215.312 150.274 214.267 136.97 204.028C141.015 201.733 145.502 199.964 149.765 198.026Z" fill="url(#paint1_linear)"/>
<path d="M46.6868 60.4885L40.5328 67.275C39.4586 68.4548 38.295 69.8511 38.5411 71.4097C38.7427 72.2883 39.192 73.0956 39.8391 73.7422C41.0025 75.0855 42.3307 76.2868 43.7944 77.3195C45.8644 71.8643 47.4644 66.263 46.6868 60.4885Z" fill="#FDBE68"/>
<path d="M46.7649 60.4615L40.6109 67.2481C39.5368 68.4278 38.3731 69.8295 38.6192 71.3827C38.8129 72.2584 39.2523 73.0654 39.8892 73.7152C41.0549 75.0569 42.385 76.2563 43.8501 77.2871C45.9649 71.8373 47.5425 66.2414 46.7649 60.4615Z" fill="url(#paint2_linear)"/>
<path d="M237.969 0H52.7285V179.653H237.969V0Z" fill="#FDBE68"/>
<path d="M237.969 0H52.7285V179.653H237.969V0Z" fill="white"/>
<path d="M56.8804 48.4033L23.2773 208.604L24.4287 208.83L58.0318 48.6293L56.8804 48.4033Z" fill="#FDBE68"/>
<path d="M74.8252 48.788L40.9258 209.395L42.0769 209.622L75.9763 49.0154L74.8252 48.788Z" fill="#FDBE68"/>
<path d="M73.0483 58.8596H55.0898V59.9961H73.0483V58.8596Z" fill="#FDBE68"/>
<path d="M70.2163 72.4218H52.2578V73.5583H70.2163V72.4218Z" fill="#FDBE68"/>
<path d="M67.3804 85.9785H49.4219V87.115H67.3804V85.9785Z" fill="#FDBE68"/>
<path d="M64.5444 99.5406H46.5859V100.677H64.5444V99.5406Z" fill="#FDBE68"/>
<path d="M61.7085 113.103H43.75V114.239H61.7085V113.103Z" fill="#FDBE68"/>
<path d="M58.8706 126.665H40.9121V127.802H58.8706V126.665Z" fill="#FDBE68"/>
<path d="M56.0405 140.227H38.082V141.364H56.0405V140.227Z" fill="#FDBE68"/>
<path d="M53.2046 153.789H35.2461V154.926H53.2046V153.789Z" fill="#FDBE68"/>
<path d="M50.3667 167.352H32.4082V168.488H50.3667V167.352Z" fill="#FDBE68"/>
<path d="M47.5307 180.914H29.5723V182.05H47.5307V180.914Z" fill="#FDBE68"/>
<path d="M44.6948 194.47H26.7363V195.607H44.6948V194.47Z" fill="#FDBE68"/>
<path opacity="0.1" d="M77.6645 179.501L76.1987 50.6227L74.9735 50.3954L75.0854 60.2071H71.8126C71.7622 58.5186 71.5217 56.8842 70.9063 55.7802C69.1775 52.6683 66.9901 55.7802 66.3635 57.8637C66.0838 58.7729 65.6474 59.7308 64.8026 60.1908H61.5018C61.1152 60.1152 60.7214 60.0789 60.327 60.0826C60.0836 60.0948 59.842 60.1293 59.6053 60.1854H57.9269L57.7982 50.2005L56.573 49.9786L56.7297 62.3502C56.6458 62.4801 56.5619 62.6154 56.4891 62.7561C55.7395 64.1794 55.5492 65.803 55.3702 67.3941C53.8037 83.3212 54.6317 99.362 55.4653 115.338C55.6108 118.103 55.7618 120.918 56.7409 123.521C56.9508 124.083 57.211 124.626 57.5185 125.144L58.2234 179.544L77.6645 179.501ZM76.4393 179.236L59.471 179.198L59.32 167.081L76.2994 167.119L76.4393 179.236ZM76.2882 166.009L59.292 165.971L59.1353 153.854L76.1372 153.897L76.2882 166.009ZM76.1372 152.788L59.1353 152.729L58.9787 140.611L75.9973 140.655L76.1372 152.788ZM75.9861 139.561L58.9619 139.518L58.8053 127.401H59.9242C60.0802 127.482 60.2408 127.554 60.4053 127.617C60.8884 127.778 61.4001 127.842 61.9095 127.807C62.419 127.771 62.9159 127.637 63.3704 127.412H75.8574L75.9861 139.561ZM75.8351 126.335H64.6012C64.7595 126.076 64.8622 125.789 64.9033 125.491C65.06 124.359 64.411 123.299 63.969 122.243C62.9117 119.711 63.018 116.918 63.6445 114.218L75.7008 114.245L75.8351 126.335ZM75.684 113.108H63.9355C64.1369 112.399 64.3718 111.701 64.6236 111.019C65.8768 107.675 67.5775 104.46 68.4055 101.007H75.5497L75.684 113.108ZM75.5162 99.8816H68.6293C69.3342 95.9038 68.7803 91.7637 69.0433 87.7644H75.3819L75.5162 99.8816ZM75.3651 86.6549H69.144C69.2452 85.6879 69.4191 84.7292 69.6643 83.7866C70.0335 82.4228 70.5818 81.0807 70.8112 79.7007C70.9957 77.984 70.9619 76.2519 70.7105 74.5431H75.2308L75.3651 86.6549ZM75.0798 61.3165L75.2197 73.4337H70.6209C70.5753 72.8503 70.5603 72.2651 70.5762 71.6803C70.6545 69.5913 71.2531 67.551 71.5049 65.4728C71.6803 64.0952 71.7811 62.7097 71.807 61.3219L75.0798 61.3165Z" fill="url(#paint3_linear)"/>
<g opacity="0.74">
<path opacity="0.74" d="M109.435 7.46838H73.2051V11.1268H109.435V7.46838Z" fill="#FDBE68"/>
<path opacity="0.74" d="M95.3203 14.5525H73.2051V17.9944H95.3203V14.5525Z" fill="#FDBE68"/>
<path opacity="0.54" d="M173.829 14.5525H104.238V18.0161H173.829V14.5525Z" fill="#FDBE68"/>
<path opacity="0.74" d="M219.513 14.5525H180.34V18.0161H219.513V14.5525Z" fill="#FDBE68"/>
<path opacity="0.74" d="M115.113 21.6367H84.707V25.2681H115.113V21.6367Z" fill="#FDBE68"/>
<path opacity="0.48" d="M104.445 48.8639H84.707V52.9499H104.445V48.8639Z" fill="#FDBE68"/>
<path opacity="0.74" d="M147.545 61.3545H139.209V65.4242H147.545V61.3545Z" fill="#FDBE68"/>
<path opacity="0.74" d="M104.445 54.9576H84.707V59.0436H104.445V54.9576Z" fill="#FDBE68"/>
<path opacity="0.74" d="M104.445 128.705H84.707V132.791H104.445V128.705Z" fill="#FDBE68"/>
<path opacity="0.74" d="M115.679 94.9568H95.9414V99.0427H115.679V94.9568Z" fill="#FDBE68"/>
<path opacity="0.48" d="M115.679 101.662H95.9414V105.748H115.679V101.662Z" fill="#FDBE68"/>
<path opacity="0.74" d="M115.679 114.461H95.9414V118.547H115.679V114.461Z" fill="#FDBE68"/>
<path opacity="0.74" d="M115.679 121.167H95.9414V125.252H115.679V121.167Z" fill="#FDBE68"/>
<path opacity="0.74" d="M140.255 101.662H120.518V105.748H140.255V101.662Z" fill="#FDBE68"/>
<path opacity="0.48" d="M140.255 120.961H120.518V125.047H140.255V120.961Z" fill="#FDBE68"/>
<path opacity="0.74" d="M174.93 128.705H110.855V132.791H174.93V128.705Z" fill="#FDBE68"/>
<path opacity="0.74" d="M130.701 28.7208H94.4707V32.3793H130.701V28.7208Z" fill="#FDBE68"/>
<path opacity="0.52" d="M163.434 28.7208H133.066V32.7851H163.434V28.7208Z" fill="#FDBE68"/>
<path opacity="0.74" d="M122.398 35.8104H94.4199V39.2524H122.398V35.8104Z" fill="#FDBE68"/>
<path opacity="0.48" d="M135.327 61.8145H94.4199V65.0237H135.327V61.8145Z" fill="#FDBE68"/>
<path opacity="0.74" d="M231.189 35.8104H203.211V39.2524H231.189V35.8104Z" fill="#FDBE68"/>
<path opacity="0.74" d="M182.82 35.8104H125.084V39.6258H182.82V35.8104Z" fill="#FDBE68"/>
<path opacity="0.74" d="M201.028 35.8104H188.301V39.6907H201.028V35.8104Z" fill="#FDBE68"/>
<path opacity="0.48" d="M157.397 42.8945H94.3125V46.3094H157.397V42.8945Z" fill="#FDBE68"/>
<path opacity="0.74" d="M135.919 135.844H94.3125V139.41H135.919V135.844Z" fill="#FDBE68"/>
<path opacity="0.74" d="M141.726 69.5588H105.496V73.2173H141.726V69.5588Z" fill="#FDBE68"/>
<path opacity="0.48" d="M141.726 88.0459H105.496V91.7043H141.726V88.0459Z" fill="#FDBE68"/>
<path opacity="0.74" d="M127.499 161.799H105.496V165.338H127.499V161.799Z" fill="#FDBE68"/>
<path opacity="0.74" d="M110.482 168.656H95.5781V171.925H110.482V168.656Z" fill="#FDBE68"/>
<path opacity="0.74" d="M127.835 141.683H105.496V145.341H127.835V141.683Z" fill="#FDBE68"/>
<path opacity="0.74" d="M154.775 141.683H132.436V145.341H154.775V141.683Z" fill="#FDBE68"/>
<path opacity="0.74" d="M138.079 148.388H115.74V152.047H138.079V148.388Z" fill="#FDBE68"/>
<path opacity="0.74" d="M165.011 148.388H142.672V152.047H165.011V148.388Z" fill="#FDBE68"/>
<path opacity="0.74" d="M146.387 155.245H115.74V158.904H146.387V155.245Z" fill="#FDBE68"/>
<path opacity="0.74" d="M159.366 155.245H151.182V158.904H159.366V155.245Z" fill="#FDBE68"/>
<path opacity="0.74" d="M123.617 108.162H105.496V111.658H123.617V108.162Z" fill="#FDBE68"/>
<path opacity="0.74" d="M141.732 81.5461H116.512V84.8041H141.732V81.5461Z" fill="#FDBE68"/>
<path opacity="0.74" d="M173.656 81.5461H148.436V84.8041H173.656V81.5461Z" fill="#FDBE68"/>
<path opacity="0.74" d="M173.656 101.256H148.436V104.514H173.656V101.256Z" fill="#FDBE68"/>
<path opacity="0.74" d="M203.9 81.5461H178.68V84.8041H203.9V81.5461Z" fill="#FDBE68"/>
<path opacity="0.74" d="M203.898 155.397H162.342V158.655H203.898V155.397Z" fill="#FDBE68"/>
<path opacity="0.48" d="M184.576 69.5588H148.346V73.2173H184.576V69.5588Z" fill="#FDBE68"/>
<path opacity="0.74" d="M153.492 75.0465H117.262V78.7049H153.492V75.0465Z" fill="#FDBE68"/>
<path opacity="0.48" d="M196.336 75.0465H160.105V78.7049H196.336V75.0465Z" fill="#FDBE68"/>
<path opacity="0.74" d="M225.371 69.5588H189.141V73.2173H225.371V69.5588Z" fill="#FDBE68"/>
</g>
<path d="M67.7218 47.197C67.6141 46.8795 67.5667 46.5458 67.582 46.212C67.6045 46.0685 67.6045 45.9226 67.582 45.7791C67.4994 45.577 67.3758 45.3929 67.2183 45.2379C67.0412 45.0084 66.9251 44.7403 66.8803 44.4572C66.8354 44.1741 66.8631 43.8846 66.961 43.6143C67.347 43.5386 67.4813 43.2463 67.6155 42.8946C67.71 42.5292 67.8669 42.1816 68.0799 41.8663C68.103 41.8323 68.1335 41.8036 68.1693 41.7821C68.205 41.7606 68.2451 41.7469 68.2869 41.7418C68.3324 41.7462 68.376 41.762 68.4132 41.7876C68.4505 41.8132 68.4802 41.8478 68.4995 41.8879C68.6617 42.2018 68.4491 42.6294 68.6673 42.9054C68.796 43.0569 69.0198 43.1056 69.1764 43.2247C69.5121 43.4682 69.5289 43.9661 69.8254 44.2421C69.8955 44.2946 69.9593 44.3545 70.0156 44.4207C70.0774 44.5296 70.1009 44.6549 70.0827 44.7779C70.049 45.2597 69.8765 45.7227 69.5848 46.1146C69.3014 46.3892 69.097 46.7306 68.9918 47.105C68.9938 47.2219 68.9788 47.3385 68.947 47.4514C68.8959 47.5466 68.8122 47.6218 68.7102 47.6642C68.6083 47.7066 68.4943 47.7137 68.3876 47.6841C68.1806 47.6354 67.8953 47.2998 67.7218 47.197Z" fill="url(#paint4_linear)"/>
<path d="M56.8065 60.2721C56.6506 60.0644 56.4618 59.8818 56.2471 59.7309C55.8965 59.5136 55.4815 59.4146 55.0666 59.4495C54.6561 59.488 54.2486 59.5531 53.847 59.6443C52.0904 59.9582 50.2889 59.5631 48.5043 59.6443C46.5014 59.7579 45.7517 61.8091 45.3993 62.6317C44.71 64.2174 44.2688 65.8936 44.0902 67.6052C44.0062 68.417 43.9839 69.2287 43.9615 70.0513C43.8608 73.3688 43.6314 76.6538 43.7657 79.9713L43.9895 85.4157C43.9645 85.7427 44.0531 86.0684 44.2412 86.3411C44.4476 86.5393 44.7107 86.6732 44.9965 86.7253C48.1574 87.6075 51.4917 87.6291 54.7813 87.6291C56.4597 87.6291 58.373 87.5317 59.4807 86.3086C60.7003 84.9557 60.3815 82.9154 60.1241 81.1403C59.1786 74.3321 61.092 65.7489 56.8065 60.2721Z" fill="#FDBE68"/>
<path d="M56.8065 60.2721C56.6506 60.0644 56.4618 59.8818 56.2471 59.7309C55.8965 59.5136 55.4815 59.4146 55.0666 59.4495C54.6561 59.488 54.2486 59.5531 53.847 59.6443C52.0904 59.9582 50.2889 59.5631 48.5043 59.6443C46.5014 59.7579 45.7517 61.8091 45.3993 62.6317C44.71 64.2174 44.2688 65.8936 44.0902 67.6052C44.0062 68.417 43.9839 69.2287 43.9615 70.0513C43.8608 73.3688 43.6314 76.6538 43.7657 79.9713L43.9895 85.4157C43.9645 85.7427 44.0531 86.0684 44.2412 86.3411C44.4476 86.5393 44.7107 86.6732 44.9965 86.7253C48.1574 87.6075 51.4917 87.6291 54.7813 87.6291C56.4597 87.6291 58.373 87.5317 59.4807 86.3086C60.7003 84.9557 60.3815 82.9154 60.1241 81.1403C59.1786 74.3321 61.092 65.7489 56.8065 60.2721Z" fill="url(#paint5_linear)"/>
<path d="M54.6024 57.7827C55.0144 57.4991 55.3548 57.1291 55.5982 56.7003C55.7587 56.288 55.8143 55.8444 55.7605 55.4069C55.7287 54.7129 55.5375 54.0344 55.201 53.4207C55.0309 53.115 54.7967 52.8469 54.5135 52.6335C54.2303 52.4201 53.9043 52.2662 53.5562 52.1814C52.4373 51.9595 51.2848 52.7226 50.759 53.6859C50.2789 54.7034 50.0509 55.8153 50.0932 56.933C50.054 58.3347 48.9407 60.4778 50.3002 60.9703C51.8723 61.5385 53.0975 59.8879 53.3604 59.1627C53.6244 58.5941 54.0566 58.1139 54.6024 57.7827Z" fill="url(#paint6_linear)"/>
<path d="M55.1059 50.6064C55.0997 51.0865 54.9543 51.5553 54.6863 51.9594C54.4528 52.4018 54.1715 52.819 53.8471 53.2041C53.6217 53.4194 53.4329 53.6678 53.2877 53.9401C53.1667 54.4112 53.2099 54.9078 53.4107 55.3526C53.1702 55.4717 52.9408 54.9413 52.717 55.0875C52.6758 55.1235 52.6466 55.1706 52.6331 55.2228C52.5787 55.3902 52.5724 55.5687 52.6148 55.7393C52.6571 55.9099 52.7466 56.0662 52.8737 56.1915C52.9481 56.2488 53.0091 56.3207 53.0527 56.4025C53.1198 56.5703 52.9744 56.7435 52.9072 56.9113C52.7394 57.3226 53.0359 57.8259 52.8121 58.2101C52.6978 58.3513 52.549 58.4628 52.3791 58.5346C52.2091 58.6064 52.0235 58.6362 51.8387 58.6214C51.1841 58.6647 50.5295 58.6809 49.875 58.6647C49.7416 58.6732 49.6084 58.647 49.489 58.5889C49.4043 58.5228 49.3344 58.4407 49.2834 58.3477C49.2325 58.2547 49.2015 58.1527 49.1925 58.0478C48.8108 56.4893 48.623 54.8923 48.633 53.2907C48.5926 52.818 48.706 52.3449 48.9575 51.9377C49.1533 51.6834 49.4386 51.5156 49.6456 51.2829C49.8526 51.0502 50.054 50.6064 50.3281 50.3142C50.7385 49.9518 51.2434 49.7048 51.7883 49.5998C52.8681 49.3238 54.9828 48.9287 55.1059 50.6064Z" fill="#3F3D56"/>
<path d="M43.8898 99.9249C43.9913 100.744 44.0119 101.57 43.9514 102.393C43.8543 103.052 43.7009 103.701 43.4926 104.336C42.7918 106.907 41.9018 109.426 40.8296 111.874C40.0576 113.498 39.1121 115.121 38.4967 116.81C37.8588 118.812 37.448 120.875 37.2715 122.963C37.8131 122.825 38.2952 122.524 38.6477 122.103C43.6098 117.253 47.7841 111.704 51.0285 105.645C51.7654 104.366 52.3294 103 52.7068 101.581C52.9418 100.377 53.0598 99.1536 53.0593 97.9279C53.203 95.2855 53.1619 92.6366 52.9362 89.9995C52.8355 89.0795 52.6117 88.0458 51.8173 87.5588C51.4135 87.3501 50.9657 87.2335 50.5082 87.2178C48.9809 87.0825 47.42 87.2178 45.915 86.8931C45.3556 86.7849 44.4884 86.2653 44.0744 86.6117C43.6605 86.9581 43.8898 88.6574 43.8674 89.1228C43.6448 92.7205 43.6523 96.3281 43.8898 99.9249Z" fill="#3F3D56"/>
<path d="M43.8898 99.9249C43.9913 100.744 44.0119 101.57 43.9514 102.393C43.8543 103.052 43.7009 103.701 43.4926 104.336C42.7918 106.907 41.9018 109.426 40.8296 111.874C40.0576 113.498 39.1121 115.121 38.4967 116.81C37.8588 118.812 37.448 120.875 37.2715 122.963C37.8131 122.825 38.2952 122.524 38.6477 122.103C43.6098 117.253 47.7841 111.704 51.0285 105.645C51.7654 104.366 52.3294 103 52.7068 101.581C52.9418 100.377 53.0598 99.1536 53.0593 97.9279C53.203 95.2855 53.1619 92.6366 52.9362 89.9995C52.8355 89.0795 52.6117 88.0458 51.8173 87.5588C51.4135 87.3501 50.9657 87.2335 50.5082 87.2178C48.9809 87.0825 47.42 87.2178 45.915 86.8931C45.3556 86.7849 44.4884 86.2653 44.0744 86.6117C43.6605 86.9581 43.8898 88.6574 43.8674 89.1228C43.6448 92.7205 43.6523 96.3281 43.8898 99.9249Z" fill="url(#paint7_linear)"/>
<path d="M55.5027 107.567C55.6349 109.64 55.5147 111.722 55.1446 113.769L53.6956 124.278C53.7718 124.407 53.8747 124.52 53.9978 124.609C54.1209 124.698 54.2617 124.761 54.4113 124.795C54.5608 124.829 54.7161 124.833 54.8673 124.807C55.0185 124.78 55.1624 124.724 55.2901 124.641C55.7922 124.287 56.1802 123.803 56.409 123.245C58.6076 119.067 60.8343 114.808 61.6511 110.191C61.9951 108.022 62.1355 105.826 62.0706 103.632C62.0006 98.1198 61.3482 92.6289 60.1237 87.2449C60.0973 86.9872 59.9762 86.7472 59.7825 86.5684C59.5316 86.4408 59.2411 86.4062 58.9657 86.471L53.9809 87.0772C52.7893 87.2233 46.9766 87.0501 46.9766 87.0501C46.9766 87.0501 48.9962 91.8558 49.5724 93.3441C51.3235 97.8684 55.5027 102.566 55.5027 107.567Z" fill="#3F3D56"/>
<path d="M36.1399 123.78C36.2315 123.989 36.3712 124.174 36.5483 124.322C37.6614 125.378 39.0906 126.067 40.6323 126.292C40.8347 126.349 41.049 126.354 41.254 126.306C41.459 126.259 41.6477 126.16 41.8015 126.021C41.9101 125.852 41.9554 125.653 41.93 125.456C41.9045 125.259 41.8098 125.076 41.6617 124.939C41.3729 124.67 41.0328 124.459 40.6603 124.316C40.2945 124.178 39.9613 123.969 39.6807 123.703C39.4 123.437 39.1776 123.119 39.0267 122.768C38.2266 120.192 35.4518 121.664 36.1399 123.78Z" fill="url(#paint8_linear)"/>
<path d="M53.1649 126.584C53.4451 127.021 53.8686 127.354 54.3677 127.531C55.5761 128.072 56.9356 128.538 58.2447 128.245C58.6271 128.183 58.9742 127.991 59.2238 127.704C59.3437 127.559 59.4062 127.378 59.4 127.192C59.3939 127.007 59.3195 126.829 59.1902 126.692C58.8881 126.427 58.4126 126.508 58.0042 126.465C57.7679 126.437 57.5404 126.361 57.3369 126.241C57.1334 126.122 56.9584 125.962 56.8237 125.772C56.6727 125.556 56.5776 125.307 56.4377 125.085C55.2349 123.126 52.1299 124.522 53.1649 126.584Z" fill="url(#paint9_linear)"/>
<path d="M36.0446 122.038C36.1542 121.919 36.2933 121.828 36.4489 121.775C36.6045 121.722 36.7715 121.708 36.9342 121.735C37.4041 121.843 37.6503 122.379 38.0978 122.563C38.2992 122.644 38.523 122.649 38.73 122.72C39.1163 122.9 39.4593 123.156 39.737 123.472C40.5314 124.176 41.6783 124.554 42.2042 125.447C42.2696 125.536 42.3106 125.639 42.3233 125.747C42.336 125.855 42.3201 125.964 42.2769 126.064C42.2256 126.132 42.1603 126.188 42.0852 126.23C42.0101 126.272 41.9268 126.299 41.8406 126.308C41.2419 126.421 40.4531 126.627 39.8881 126.4C38.9116 126.029 37.9653 125.588 37.0572 125.079C36.5593 124.787 36.2013 123.997 35.8432 123.526C35.4068 122.963 35.5467 122.536 36.0446 122.038Z" fill="#3F3D56"/>
<path d="M53.243 124.922C53.092 124.863 52.9074 124.787 52.7899 124.895C52.7632 124.92 52.7423 124.949 52.7283 124.982C52.591 125.32 52.5663 125.691 52.6576 126.043C52.7489 126.395 52.9516 126.711 53.2375 126.946C53.815 127.413 54.4718 127.779 55.1788 128.029C55.8831 128.384 56.6368 128.639 57.4166 128.786C57.8044 128.857 58.2047 128.823 58.5744 128.69C58.944 128.556 59.269 128.328 59.5145 128.029C59.6791 127.804 59.7492 127.528 59.7103 127.255C59.5929 126.66 58.8935 126.4 58.3117 126.172C57.5732 125.891 56.9299 125.377 56.169 125.15C55.1955 124.841 54.155 125.285 53.243 124.922Z" fill="#3F3D56"/>
<path d="M56.7626 59.9258L61.1599 57.8097C61.7138 57.5687 62.2375 57.2673 62.7208 56.9113C65.3334 54.8548 65.188 51.0557 66.5419 48.0737C66.6091 47.8734 66.7454 47.7015 66.9279 47.5867C67.0883 47.5351 67.2597 47.524 67.4258 47.5542L69.1993 47.7599L67.7839 57.8314C67.7069 58.5689 67.5417 59.2954 67.2915 59.9961C67.0729 60.4903 66.803 60.9617 66.4859 61.4032C64.7861 63.8702 62.625 66.0085 60.1137 67.708C59.8513 67.9134 59.5459 68.0612 59.2186 68.141C58.833 68.1992 58.4383 68.1285 58.0997 67.9407C56.8857 67.3292 56.3822 65.9113 56.1472 64.607C55.7854 63.0248 56.0029 61.37 56.7626 59.9258Z" fill="#FDBE68"/>
<path d="M56.7626 59.9258L61.1599 57.8097C61.7138 57.5687 62.2375 57.2673 62.7208 56.9113C65.3334 54.8548 65.188 51.0557 66.5419 48.0737C66.6091 47.8734 66.7454 47.7015 66.9279 47.5867C67.0883 47.5351 67.2597 47.524 67.4258 47.5542L69.1993 47.7599L67.7839 57.8314C67.7069 58.5689 67.5417 59.2954 67.2915 59.9961C67.0729 60.4903 66.803 60.9617 66.4859 61.4032C64.7861 63.8702 62.625 66.0085 60.1137 67.708C59.8513 67.9134 59.5459 68.0612 59.2186 68.141C58.833 68.1992 58.4383 68.1285 58.0997 67.9407C56.8857 67.3292 56.3822 65.9113 56.1472 64.607C55.7854 63.0248 56.0029 61.37 56.7626 59.9258Z" fill="url(#paint10_linear)"/>
<path d="M237.969 179.653H52.7285V189.708H237.969V179.653Z" fill="#FDBE68"/>
<path d="M237.969 181.482H52.7285V189.708H237.969V181.482Z" fill="url(#paint11_linear)"/>
<path d="M264.823 185.974C264.006 189.654 261.774 193.605 257.645 196.96C250.07 203.119 240.274 204.715 233.387 204.975C232.537 205.007 231.709 205.024 230.847 205.024C224.693 205.024 218.539 204.239 212.587 203.476L208.368 202.935C201.235 202.074 193.017 201.365 185.766 203.838L185.129 202.085L184.463 200.267C192.513 197.517 201.274 198.264 208.849 199.184C210.265 199.352 211.68 199.536 213.101 199.725C219.714 200.57 226.556 201.446 233.242 201.197C239.513 200.959 248.409 199.531 255.133 194.065C257.813 191.9 260.168 188.718 261.002 185.351C261.473 183.584 261.425 181.725 260.862 179.983C260.619 179.259 260.282 178.568 259.861 177.926C257.958 175.02 254.54 173.153 251.614 172.32C247.267 171.08 242.523 171.237 237.924 171.394H237.757L237.695 169.727L237.617 167.611C242.338 167.444 247.687 167.254 252.722 168.694C258.579 170.361 263.016 174.149 264.582 178.819C265.306 181.143 265.389 183.609 264.823 185.974Z" fill="#FDBE68"/>
<path d="M264.902 183.917C264.566 188.155 262.345 193.025 257.411 197.041C249.836 203.194 240.034 204.796 233.147 205.051C232.302 205.083 231.469 205.099 230.607 205.099C224.453 205.099 218.299 204.315 212.352 203.552L208.128 203.01C200.995 202.15 192.777 201.441 185.532 203.914L184.229 200.342C184.553 200.234 184.877 200.126 185.208 200.028L185.845 201.782C193.118 199.309 201.314 200.018 208.447 200.878L212.666 201.419C218.624 202.182 224.761 202.967 230.926 202.967C231.771 202.967 232.605 202.967 233.466 202.918C240.353 202.659 250.149 201.062 257.724 194.903C261.853 191.548 264.085 187.597 264.902 183.917Z" fill="url(#paint12_linear)"/>
<path d="M169.61 182.494L196.072 188.339L191.031 210.739L173.52 218.862L149.525 208.758L165.621 201.798L169.61 182.494Z" fill="#FDBE68"/>
<path d="M169.61 182.494L196.072 188.339L191.031 210.739L173.52 218.862L149.525 208.758L165.621 201.798L169.61 182.494Z" fill="url(#paint13_linear)"/>
<path d="M167.876 182.039L194.338 187.879L189.297 210.279L172.128 218.358L148.133 208.249L163.887 201.338L167.876 182.039Z" fill="#FDBE68"/>
<path d="M167.244 201.441L187.726 207.692L191.978 189.556L170.713 185.14L167.244 201.441Z" fill="#FDBE68"/>
<path d="M167.244 201.441L187.726 207.692L191.978 189.556L170.713 185.14L167.244 201.441Z" fill="url(#paint14_linear)"/>
<path d="M260.447 178.029L259.854 177.921C257.952 175.015 254.534 173.148 251.608 172.314C247.261 171.075 242.366 171.232 237.767 171.394L237.717 169.576C237.717 169.576 247.787 169.035 253.751 171.805C257.533 173.57 260.447 178.029 260.447 178.029Z" fill="url(#paint15_linear)"/>
</g>
<defs>
<linearGradient id="paint0_linear" x1="242.774" y1="190.752" x2="266.629" y2="190.752" gradientUnits="userSpaceOnUse">
<stop stop-opacity="0"/>
<stop offset="0.99"/>
</linearGradient>
<linearGradient id="paint1_linear" x1="20687.9" y1="16556.1" x2="94520.4" y2="16556.1" gradientUnits="userSpaceOnUse">
<stop stop-opacity="0"/>
<stop offset="0.99"/>
</linearGradient>
<linearGradient id="paint2_linear" x1="638.973" y1="2614.07" x2="1388.58" y2="2502.15" gradientUnits="userSpaceOnUse">
<stop stop-opacity="0"/>
<stop offset="0.99"/>
</linearGradient>
<linearGradient id="paint3_linear" x1="148.61" y1="-3.96274e+06" x2="129795" y2="2.1485e+06" gradientUnits="userSpaceOnUse">
<stop stop-opacity="0"/>
<stop offset="0.99"/>
</linearGradient>
<linearGradient id="paint4_linear" x1="66.8435" y1="44.7075" x2="70.066" y2="44.7075" gradientUnits="userSpaceOnUse">
<stop stop-color="#ECC4D7"/>
<stop offset="0.42" stop-color="#EFD4D1"/>
<stop offset="1" stop-color="#F2EAC9"/>
</linearGradient>
<linearGradient id="paint5_linear" x1="1596.94" y1="4632.42" x2="5700.41" y2="1537.18" gradientUnits="userSpaceOnUse">
<stop stop-opacity="0"/>
<stop offset="0.99"/>
</linearGradient>
<linearGradient id="paint6_linear" x1="613.961" y1="1173.6" x2="681.649" y2="1173.6" gradientUnits="userSpaceOnUse">
<stop stop-color="#ECC4D7"/>
<stop offset="0.42" stop-color="#EFD4D1"/>
<stop offset="1" stop-color="#F2EAC9"/>
</linearGradient>
<linearGradient id="paint7_linear" x1="1437.47" y1="7790.94" x2="1612.8" y2="7771.87" gradientUnits="userSpaceOnUse">
<stop stop-opacity="0"/>
<stop offset="0.99"/>
</linearGradient>
<linearGradient id="paint8_linear" x1="434.247" y1="1354.77" x2="496.492" y2="1354.77" gradientUnits="userSpaceOnUse">
<stop stop-color="#ECC4D7"/>
<stop offset="0.42" stop-color="#EFD4D1"/>
<stop offset="1" stop-color="#F2EAC9"/>
</linearGradient>
<linearGradient id="paint9_linear" x1="682.351" y1="1188.95" x2="756.579" y2="1188.95" gradientUnits="userSpaceOnUse">
<stop stop-color="#ECC4D7"/>
<stop offset="0.42" stop-color="#EFD4D1"/>
<stop offset="1" stop-color="#F2EAC9"/>
</linearGradient>
<linearGradient id="paint10_linear" x1="1677.35" y1="2825.28" x2="-215.567" y2="1420.8" gradientUnits="userSpaceOnUse">
<stop stop-opacity="0"/>
<stop offset="0.99"/>
</linearGradient>
<linearGradient id="paint11_linear" x1="48180.2" y1="3200.19" x2="48180.2" y2="2816.28" gradientUnits="userSpaceOnUse">
<stop stop-color="white" stop-opacity="0"/>
<stop offset="0.99" stop-color="white"/>
</linearGradient>
<linearGradient id="paint12_linear" x1="38559.7" y1="6831.27" x2="34020.9" y2="23277.9" gradientUnits="userSpaceOnUse">
<stop stop-opacity="0"/>
<stop offset="0.99"/>
</linearGradient>
<linearGradient id="paint13_linear" x1="14863.4" y1="13724.8" x2="18092.9" y2="16865.8" gradientUnits="userSpaceOnUse">
<stop stop-opacity="0"/>
<stop offset="0.99"/>
</linearGradient>
<linearGradient id="paint14_linear" x1="8375.79" y1="7188.22" x2="7932.61" y2="9427.42" gradientUnits="userSpaceOnUse">
<stop stop-color="white" stop-opacity="0"/>
<stop offset="0.99" stop-color="white"/>
</linearGradient>
<linearGradient id="paint15_linear" x1="10679" y1="2984.96" x2="10272.4" y2="4019.87" gradientUnits="userSpaceOnUse">
<stop stop-opacity="0"/>
<stop offset="0.99"/>
</linearGradient>
<clipPath id="clip0">
<rect width="287" height="235" fill="white"/>
</clipPath>
</defs>
</svg>
