<svg width="141" height="33" viewBox="0 0 141 33" fill="none" xmlns="http://www.w3.org/2000/svg">
<g clip-path="url(#clip0)">
<path d="M14 33L16.45 30.55L6.65 20.75L28 20.75V17.25L6.65 17.25L16.45 7.45L14 5L-1.90735e-06 19L14 33Z" fill="#333333"/>
</g>
<path d="M65.007 19.444C66.2443 19.734 67.2207 20.3333 67.936 21.242C68.6707 22.1507 69.038 23.2043 69.038 24.403C69.038 26.1623 68.4483 27.535 67.269 28.521C66.109 29.507 64.4367 30 62.252 30H52.711V9.497H62.02C64.108 9.497 65.7223 9.95133 66.863 10.86C68.0037 11.7687 68.574 13.064 68.574 14.746C68.574 15.9833 68.2453 17.0177 67.588 17.849C66.9307 18.661 66.0703 19.1927 65.007 19.444ZM57.67 17.878H60.918C62.6387 17.878 63.499 17.1433 63.499 15.674C63.499 14.2047 62.6193 13.47 60.86 13.47H57.67V17.878ZM61.208 25.969C63.0447 25.969 63.963 25.215 63.963 23.707C63.963 22.9723 63.7213 22.402 63.238 21.996C62.7547 21.5707 62.0683 21.358 61.179 21.358H57.67V25.969H61.208ZM77.8053 13.615C79.0426 13.615 80.106 13.8953 80.9953 14.456C81.8846 15.0167 82.542 15.7803 82.9673 16.747V13.818H87.8973V30H82.9673V27.071C82.542 28.0377 81.8846 28.8013 80.9953 29.362C80.106 29.9227 79.0426 30.203 77.8053 30.203C76.4713 30.203 75.2726 29.8743 74.2093 29.217C73.1653 28.5403 72.334 27.5737 71.7153 26.317C71.116 25.0603 70.8163 23.591 70.8163 21.909C70.8163 20.2077 71.116 18.7383 71.7153 17.501C72.334 16.2443 73.1653 15.2873 74.2093 14.63C75.2726 13.9533 76.4713 13.615 77.8053 13.615ZM79.4003 17.965C78.337 17.965 77.4766 18.313 76.8193 19.009C76.1813 19.705 75.8623 20.6717 75.8623 21.909C75.8623 23.1463 76.1813 24.113 76.8193 24.809C77.4766 25.505 78.337 25.853 79.4003 25.853C80.4443 25.853 81.295 25.4953 81.9523 24.78C82.629 24.0647 82.9673 23.1077 82.9673 21.909C82.9673 20.691 82.629 19.734 81.9523 19.038C81.295 18.3227 80.4443 17.965 79.4003 17.965ZM98.6196 13.615C100.708 13.615 102.457 14.195 103.869 15.355C105.28 16.4957 106.169 18.0713 106.537 20.082H101.288C101.133 19.386 100.814 18.8447 100.331 18.458C99.8473 18.0713 99.2383 17.878 98.5036 17.878C97.6336 17.878 96.9183 18.226 96.3576 18.922C95.7969 19.5987 95.5166 20.5943 95.5166 21.909C95.5166 23.2237 95.7969 24.229 96.3576 24.925C96.9183 25.6017 97.6336 25.94 98.5036 25.94C99.2383 25.94 99.8473 25.7467 100.331 25.36C100.814 24.9733 101.133 24.432 101.288 23.736H106.537C106.169 25.7467 105.28 27.332 103.869 28.492C102.457 29.6327 100.708 30.203 98.6196 30.203C97.0343 30.203 95.6229 29.8743 94.3856 29.217C93.1676 28.5403 92.2106 27.5737 91.5146 26.317C90.8186 25.0603 90.4706 23.591 90.4706 21.909C90.4706 20.2077 90.8089 18.7383 91.4856 17.501C92.1816 16.2443 93.1483 15.2873 94.3856 14.63C95.6229 13.9533 97.0343 13.615 98.6196 13.615ZM118.927 30L114.084 23.127V30H109.125V8.54H114.084V20.314L118.927 13.818H124.756L118.231 21.909L124.901 30H118.927Z" fill="#DBA834"/>
<defs>
<clipPath id="clip0">
<rect width="28" height="28" fill="white" transform="translate(28 33) rotate(-180)"/>
</clipPath>
</defs>
</svg>
