<svg width="1242" height="426" viewBox="0 0 1242 426" fill="none" xmlns="http://www.w3.org/2000/svg">
<g filter="url(#filter0_d)">
<rect x="4" y="362" width="158" height="56" rx="8" fill="#DBA834"/>
<path d="M41.904 393.728H37.376L36.576 396H34.192L38.352 384.832H40.928L45.072 396H42.688L41.904 393.728ZM41.296 392.016L39.632 387.248L37.968 392.016H41.296ZM56.2256 390.336C56.2256 391.456 55.991 392.443 55.5216 393.296C55.0523 394.149 54.3696 394.816 53.4736 395.296C52.5883 395.765 51.5323 396 50.3056 396H46.2896V384.704H50.3056C51.5323 384.704 52.5883 384.939 53.4736 385.408C54.3696 385.867 55.0523 386.523 55.5216 387.376C55.991 388.219 56.2256 389.205 56.2256 390.336ZM50.1136 393.984C51.3296 393.984 52.2683 393.664 52.9296 393.024C53.6016 392.384 53.9376 391.488 53.9376 390.336C53.9376 389.173 53.6016 388.272 52.9296 387.632C52.2683 386.992 51.3296 386.672 50.1136 386.672H48.5456V393.984H50.1136ZM67.8506 390.336C67.8506 391.456 67.616 392.443 67.1466 393.296C66.6773 394.149 65.9946 394.816 65.0986 395.296C64.2133 395.765 63.1573 396 61.9306 396H57.9146V384.704H61.9306C63.1573 384.704 64.2133 384.939 65.0986 385.408C65.9946 385.867 66.6773 386.523 67.1466 387.376C67.616 388.219 67.8506 389.205 67.8506 390.336ZM61.7386 393.984C62.9546 393.984 63.8933 393.664 64.5546 393.024C65.2266 392.384 65.5626 391.488 65.5626 390.336C65.5626 389.173 65.2266 388.272 64.5546 387.632C63.8933 386.992 62.9546 386.672 61.7386 386.672H60.1706V393.984H61.7386ZM75.28 391.808V396H73.024V384.704H77.136C78.4693 384.704 79.472 385.024 80.144 385.664C80.8267 386.304 81.168 387.173 81.168 388.272C81.168 389.349 80.816 390.208 80.112 390.848C79.4187 391.488 78.4267 391.808 77.136 391.808H75.28ZM76.896 390C78.2187 390 78.88 389.424 78.88 388.272C78.88 387.707 78.7253 387.275 78.416 386.976C78.1067 386.677 77.6 386.528 76.896 386.528H75.28V390H76.896ZM91.9934 384.704V396H89.7214V391.088H84.8894V396H82.6334V384.704H84.8894V389.28H89.7214V384.704H91.9934ZM99.3356 384.544C100.392 384.544 101.346 384.789 102.2 385.28C103.064 385.771 103.741 386.459 104.232 387.344C104.733 388.219 104.984 389.211 104.984 390.32C104.984 391.429 104.733 392.427 104.232 393.312C103.741 394.197 103.064 394.885 102.2 395.376C101.346 395.867 100.392 396.112 99.3356 396.112C98.2796 396.112 97.3196 395.867 96.4556 395.376C95.6023 394.885 94.925 394.197 94.4236 393.312C93.933 392.427 93.6876 391.429 93.6876 390.32C93.6876 389.211 93.933 388.219 94.4236 387.344C94.925 386.459 95.6023 385.771 96.4556 385.28C97.3196 384.789 98.2796 384.544 99.3356 384.544ZM99.3356 386.624C98.6743 386.624 98.093 386.773 97.5916 387.072C97.0903 387.371 96.6956 387.803 96.4076 388.368C96.1303 388.923 95.9916 389.573 95.9916 390.32C95.9916 391.067 96.1303 391.723 96.4076 392.288C96.6956 392.843 97.0903 393.269 97.5916 393.568C98.093 393.867 98.6743 394.016 99.3356 394.016C99.997 394.016 100.578 393.867 101.08 393.568C101.581 393.269 101.97 392.843 102.248 392.288C102.536 391.723 102.68 391.067 102.68 390.32C102.68 389.573 102.536 388.923 102.248 388.368C101.97 387.803 101.581 387.371 101.08 387.072C100.578 386.773 99.997 386.624 99.3356 386.624ZM114.36 384.704V386.496H111.24V396H108.984V386.496H105.88V384.704H114.36ZM120.898 384.544C121.954 384.544 122.909 384.789 123.762 385.28C124.626 385.771 125.303 386.459 125.794 387.344C126.295 388.219 126.546 389.211 126.546 390.32C126.546 391.429 126.295 392.427 125.794 393.312C125.303 394.197 124.626 394.885 123.762 395.376C122.909 395.867 121.954 396.112 120.898 396.112C119.842 396.112 118.882 395.867 118.018 395.376C117.165 394.885 116.487 394.197 115.986 393.312C115.495 392.427 115.25 391.429 115.25 390.32C115.25 389.211 115.495 388.219 115.986 387.344C116.487 386.459 117.165 385.771 118.018 385.28C118.882 384.789 119.842 384.544 120.898 384.544ZM120.898 386.624C120.237 386.624 119.655 386.773 119.154 387.072C118.653 387.371 118.258 387.803 117.97 388.368C117.693 388.923 117.554 389.573 117.554 390.32C117.554 391.067 117.693 391.723 117.97 392.288C118.258 392.843 118.653 393.269 119.154 393.568C119.655 393.867 120.237 394.016 120.898 394.016C121.559 394.016 122.141 393.867 122.642 393.568C123.143 393.269 123.533 392.843 123.81 392.288C124.098 391.723 124.242 391.067 124.242 390.32C124.242 389.573 124.098 388.923 123.81 388.368C123.533 387.803 123.143 387.371 122.642 387.072C122.141 386.773 121.559 386.624 120.898 386.624Z" fill="white"/>
</g>
<rect x="3" width="1239" height="332" rx="8"/>
<defs>
<filter id="filter0_d" x="0" y="362" width="166" height="64" filterUnits="userSpaceOnUse" color-interpolation-filters="sRGB">
<feFlood flood-opacity="0" result="BackgroundImageFix"/>
<feColorMatrix in="SourceAlpha" type="matrix" values="0 0 0 0 0 0 0 0 0 0 0 0 0 0 0 0 0 0 127 0"/>
<feOffset dy="4"/>
<feGaussianBlur stdDeviation="2"/>
<feColorMatrix type="matrix" values="0 0 0 0 0 0 0 0 0 0 0 0 0 0 0 0 0 0 0.25 0"/>
<feBlend mode="normal" in2="BackgroundImageFix" result="effect1_dropShadow"/>
<feBlend mode="normal" in="SourceGraphic" in2="effect1_dropShadow" result="shape"/>
</filter>
</defs>
</svg>
