<svg width="82" height="25" viewBox="0 0 82 25" fill="none" xmlns="http://www.w3.org/2000/svg">
<path d="M80.1788 21.2651H59.8253C59.3974 21.2651 59.0625 21.6186 59.0625 22.0279C59.0625 22.4372 59.416 22.7907 59.8253 22.7907H80.1974C80.6253 22.7907 80.9602 22.4372 80.9602 22.0279C80.9602 21.6186 80.6067 21.2651 80.1788 21.2651Z" fill="#C4C4C4"/>
<path d="M59.0616 14.5116L59.043 18.1395C59.043 18.3442 59.1174 18.5488 59.2662 18.6977C59.4151 18.8465 59.6011 18.9209 59.8058 18.9209L63.4151 18.9023C63.6197 18.9023 63.8058 18.8279 63.9546 18.6791L76.4197 6.21395C76.7174 5.91628 76.7174 5.43256 76.4197 5.11628L72.8476 1.50698C72.5499 1.2093 72.0662 1.2093 71.7499 1.50698L69.2569 4.01861L59.2848 13.9721C59.1546 14.1209 59.0616 14.307 59.0616 14.5116ZM72.3081 3.14419L74.8197 5.65582L73.4058 7.06977L70.8941 4.55814L72.3081 3.14419ZM60.6058 14.8465L69.7965 5.65582L72.3081 8.16744L63.1174 17.3395L60.5872 17.3581L60.6058 14.8465Z" fill="#C4C4C4"/>
<path d="M2.737 15.076C2.703 15.2913 2.686 15.484 2.686 15.654C2.686 16.0167 2.78233 16.2717 2.975 16.419C3.179 16.5663 3.50767 16.64 3.961 16.64H4.913L4.658 18H3.502C2.70867 18 2.108 17.8413 1.7 17.524C1.30333 17.2067 1.105 16.6853 1.105 15.96C1.105 15.6313 1.13333 15.3253 1.19 15.042L2.091 10.01H0.697L0.918 8.667H2.329L2.737 6.338H4.284L3.876 8.667H6.29L6.052 10.01H3.638L2.737 15.076ZM8.5688 6.117C8.5688 5.78833 8.6878 5.51633 8.9258 5.301C9.1638 5.08567 9.45846 4.978 9.8098 4.978C10.0931 4.978 10.3141 5.05167 10.4728 5.199C10.6315 5.335 10.7108 5.51633 10.7108 5.743C10.7108 6.07167 10.5918 6.34367 10.3538 6.559C10.1158 6.77433 9.82113 6.882 9.4698 6.882C9.18646 6.882 8.96546 6.814 8.8068 6.678C8.64813 6.53067 8.5688 6.34367 8.5688 6.117ZM9.9288 8.667L8.2798 18H6.7328L8.3818 8.667H9.9288ZM13.0964 15.076C13.0624 15.2913 13.0454 15.484 13.0454 15.654C13.0454 16.0167 13.1417 16.2717 13.3344 16.419C13.5384 16.5663 13.867 16.64 14.3204 16.64H15.2724L15.0174 18H13.8614C13.068 18 12.4674 17.8413 12.0594 17.524C11.6627 17.2067 11.4644 16.6853 11.4644 15.96C11.4644 15.6313 11.4927 15.3253 11.5494 15.042L12.4504 10.01H11.0564L11.2774 8.667H12.6884L13.0964 6.338H14.6434L14.2354 8.667H16.6494L16.4114 10.01H13.9974L13.0964 15.076ZM20.9172 5.42L18.7072 18H17.1432L19.3532 5.42H20.9172ZM26.9071 8.548C27.7118 8.548 28.3975 8.701 28.9641 9.007C29.5308 9.30167 29.9558 9.70967 30.2391 10.231C30.5338 10.741 30.6811 11.3247 30.6811 11.982C30.6811 12.2767 30.6585 12.5543 30.6131 12.815C30.5451 13.1663 30.4658 13.4497 30.3751 13.665H22.9461C22.9008 14.005 22.8781 14.2487 22.8781 14.396C22.8781 15.212 23.1105 15.8297 23.5751 16.249C24.0511 16.657 24.6518 16.861 25.3771 16.861C26.1138 16.861 26.7711 16.674 27.3491 16.3C27.9271 15.9147 28.3295 15.4047 28.5561 14.77H30.2051C29.8425 15.7673 29.2191 16.5777 28.3351 17.201C27.4511 17.813 26.4141 18.119 25.2241 18.119C24.0455 18.119 23.1105 17.7903 22.4191 17.133C21.7278 16.4757 21.3821 15.5633 21.3821 14.396C21.3821 14.0333 21.4161 13.6593 21.4841 13.274C21.6541 12.3107 21.9998 11.472 22.5211 10.758C23.0425 10.044 23.6828 9.5 24.4421 9.126C25.2015 8.74067 26.0231 8.548 26.9071 8.548ZM29.0491 12.917C29.1171 12.611 29.1511 12.3277 29.1511 12.067C29.1511 11.3303 28.9131 10.7693 28.4371 10.384C27.9725 9.99867 27.3888 9.806 26.6861 9.806C25.8475 9.806 25.0881 10.0723 24.4081 10.605C23.7281 11.1263 23.2805 11.897 23.0651 12.917H29.0491Z" fill="#C4C4C4"/>
</svg>
