<svg width="400" height="302" viewBox="0 0 400 302" fill="none" xmlns="http://www.w3.org/2000/svg">
<g clip-path="url(#clip0)">
<path opacity="0.1" d="M358.223 300.506C377.57 300.506 393.253 296.631 393.253 291.852C393.253 287.073 377.57 283.199 358.223 283.199C338.877 283.199 323.193 287.073 323.193 291.852C323.193 296.631 338.877 300.506 358.223 300.506Z" fill="#6C63FF"/>
<path opacity="0.1" d="M49.0025 301.947C68.3489 301.947 84.0323 298.073 84.0323 293.294C84.0323 288.515 68.3489 284.641 49.0025 284.641C29.656 284.641 13.9727 288.515 13.9727 293.294C13.9727 298.073 29.656 301.947 49.0025 301.947Z" fill="#6C63FF"/>
<path d="M239.603 81.4843C239.603 81.4843 234.68 79.4863 219.025 86.67C203.37 93.8537 201.403 92.9369 197.358 91.8382C193.313 90.7395 191.06 90.4806 186.7 84.49C186.7 84.49 183.635 67.8761 180.671 65.3008C177.707 62.7254 165.1 66.7669 165.1 66.7669C165.1 66.7669 149.987 70.2346 147.107 50.0376C147.107 50.0376 149.151 34.8128 146.369 30.1415C146.369 30.1415 151.968 32.5664 161.254 28.6543C170.541 24.7423 177.942 32.8533 177.942 32.8533C177.942 32.8533 180.279 38.9068 180.041 42.5144C179.803 46.122 181.276 47.4762 185.699 45.7336C185.699 45.7336 187.869 42.6439 184.793 37.5386C181.717 32.4334 179.523 28.6264 180.384 24.6618C181.245 20.6973 183.708 15.2142 191.637 12.4499C199.566 9.68554 210.337 9.16767 215.508 7.0157C220.68 4.86373 221.929 3.46408 221.929 3.46408C221.929 3.46408 218.742 6.66229 226.247 20.1724C233.753 33.6826 228.966 39.5507 228.966 39.5507C228.966 39.5507 224.977 49.0543 207.376 48.2985C207.376 48.2985 190.416 48.9178 199.678 56.112C199.678 56.112 205.602 54.9049 214.455 52.0915C223.308 49.2782 229.701 60.8919 231.286 68.9749C232.871 77.0579 239.603 81.4843 239.603 81.4843Z" fill="#DBA834"/>
<path d="M216.795 13.7201L216.889 13.6956C217.568 16.2744 209.986 26.6424 203.509 34.8758L203.432 34.8163C212.575 23.1957 217.323 15.7041 216.795 13.7201Z" fill="#444053"/>
<path d="M203.568 34.6449L203.607 34.7499C198.431 41.3317 191.923 49.1838 186.713 54.9994C186.216 55.5557 185.722 56.1366 185.247 56.7314L185.1 56.609C185.575 56.0141 186.072 55.4298 186.569 54.8594C191.776 49.0613 198.396 41.2233 203.568 34.6449Z" fill="#444053"/>
<path d="M185.225 56.455L185.327 56.6299C175.844 68.4675 175.218 86.8484 175.179 87.0094L173.178 84.7C173.22 84.539 175.676 68.373 185.225 56.455Z" fill="#444053"/>
<path d="M228.603 75.0634C228.603 75.0634 217.406 69.2513 208.711 71.3368C200.015 73.4223 180.368 63.9676 180.368 63.9676C180.368 63.9676 172.036 60.5804 170.364 56.7244C170.364 56.7244 164.65 50.6849 164.324 47.5567C163.999 44.4285 158.435 36.5694 154.807 36.265" stroke="#444053" stroke-miterlimit="10"/>
<path d="M226.983 80.6585C226.983 80.6585 221.343 76.8655 222.008 72.4461" stroke="#444053" stroke-miterlimit="10"/>
<path d="M218.344 85.5608C218.344 85.5608 210.296 82.6355 209.484 71.1759" stroke="#444053" stroke-miterlimit="10"/>
<path d="M205.354 88.5281C205.354 88.5281 197.656 82.1422 200.214 70.987" stroke="#444053" stroke-miterlimit="10"/>
<path d="M189.743 85.4068C189.743 85.4068 184.617 74.661 189.176 67.6697" stroke="#444053" stroke-miterlimit="10"/>
<path d="M228.737 67.9811C228.737 67.9811 222.911 69.8287 224.16 72.8799" stroke="#444053" stroke-miterlimit="10"/>
<path d="M221.697 57.4103C221.697 57.4103 213.904 59.8842 213.719 70.9064" stroke="#444053" stroke-miterlimit="10"/>
<path d="M210.846 54.8665C210.846 54.8665 203.756 63.6143 204.277 71.5748" stroke="#444053" stroke-miterlimit="10"/>
<path d="M198.417 58.2991C198.417 58.2991 191.373 65.0315 192.273 68.779" stroke="#444053" stroke-miterlimit="10"/>
<path d="M194.171 55.9197C194.171 55.9197 187.564 57.1059 186.641 54.9364" stroke="#444053" stroke-miterlimit="10"/>
<path d="M185.584 47.9451C185.584 47.9451 188.922 52.3645 189.783 51.3742" stroke="#444053" stroke-miterlimit="10"/>
<path d="M218.671 45.1493C218.671 45.1493 202.022 46.3495 198.25 41.3387" stroke="#444053" stroke-miterlimit="10"/>
<path d="M182.088 25.6732C182.088 25.6732 189.901 42.4445 195.574 44.5685" stroke="#444053" stroke-miterlimit="10"/>
<path d="M190.281 17.6847C190.281 17.6847 195.082 33.1124 201.027 37.9272" stroke="#444053" stroke-miterlimit="10"/>
<path d="M225.683 32.4196C225.683 32.4196 213.02 37.8538 205.416 32.3566" stroke="#444053" stroke-width="0.75" stroke-miterlimit="10"/>
<path d="M201.562 14.3954C201.562 14.3954 204.456 25.7361 208.354 28.4759" stroke="#444053" stroke-width="0.75" stroke-miterlimit="10"/>
<path d="M223.763 19.7177C223.763 19.7177 216.65 22.412 213.99 20.3475" stroke="#444053" stroke-width="0.75" stroke-miterlimit="10"/>
<path d="M179.494 51.6508C179.494 51.6508 179.494 61.5358 176.803 62.2391" stroke="#444053" stroke-miterlimit="10"/>
<path d="M157.494 64.4575C157.494 64.4575 168.181 65.3743 173.111 59.8597" stroke="#444053" stroke-miterlimit="10"/>
<path d="M176.732 39.9741C176.732 39.9741 174.146 49.9991 167.012 52.7005" stroke="#444053" stroke-miterlimit="10"/>
<path d="M151.084 53.8972C151.084 53.8972 158.649 56.5285 165.154 49.8312" stroke="#444053" stroke-miterlimit="10"/>
<path d="M168.324 31.3558C168.324 31.3558 167.624 39.8692 162.98 43.8547" stroke="#444053" stroke-miterlimit="10"/>
<path d="M151.359 40.9224C151.359 40.9224 157.637 40.9679 159.106 38.9209" stroke="#444053" stroke-miterlimit="10"/>
<path opacity="0.1" d="M207.137 48.0991C182.153 52.2666 157.131 50.0236 133.043 46.9164C108.955 43.8092 84.9228 39.8411 59.8865 40.6179C43.7905 41.1218 25.8854 44.285 14.7477 53.9916C4.03332 63.3308 2.5007 76.0992 2.60218 87.6463C2.67916 96.3311 3.49446 105.327 9.3765 112.312C13.46 117.158 19.7024 120.678 24.4228 125.161C40.8687 140.76 36.2044 164.925 25.7909 185.388C20.8921 194.989 14.9051 204.412 11.6194 214.255C8.33376 224.099 8.00834 234.701 14.1948 242.85C20.3323 250.93 32.0719 255.584 44.2874 258.079C69.0927 263.142 96.6239 260.528 123.252 256.892C182.192 248.806 240.473 235.726 298.587 222.671C320.096 217.842 341.7 212.985 362.394 205.875C373.885 201.935 385.575 196.977 392.934 189.135C402.273 179.18 402.357 165.439 393.13 157.104C377.65 143.108 343.019 145.739 330.985 129.811C324.358 121.063 327.056 109.299 332.119 98.959C342.966 76.7745 364.224 54.9924 361.162 32.6994C359.062 17.3872 344.233 4.56637 324.533 1.02174C303.888 -2.69084 277.501 3.50963 265.824 18.7344C253.801 34.4525 229.196 44.425 207.137 48.0991Z" fill="#6C63FF"/>
<path d="M354.86 52.5255H31.0677C28.654 52.5255 26.6973 54.4822 26.6973 56.896V236.524C26.6973 238.938 28.654 240.894 31.0677 240.894H354.86C357.274 240.894 359.231 238.938 359.231 236.524V56.896C359.231 54.4822 357.274 52.5255 354.86 52.5255Z" fill="url(#paint0_linear)"/>
<path d="M354.367 55.1744H31.5931C29.1794 55.1744 27.2227 57.1311 27.2227 59.5448V235.898C27.2227 238.311 29.1794 240.268 31.5931 240.268H354.367C356.781 240.268 358.738 238.311 358.738 235.898V59.5448C358.738 57.1311 356.781 55.1744 354.367 55.1744Z" fill="white"/>
<path d="M354.367 55.1744H31.5931C29.1794 55.1744 27.2227 57.1311 27.2227 59.5448V235.898C27.2227 238.311 29.1794 240.268 31.5931 240.268H354.367C356.781 240.268 358.738 238.311 358.738 235.898V59.5448C358.738 57.1311 356.781 55.1744 354.367 55.1744Z" fill="white"/>
<path opacity="0.04" d="M354.367 55.1744H31.5931C29.1794 55.1744 27.2227 57.1311 27.2227 59.5448V235.898C27.2227 238.311 29.1794 240.268 31.5931 240.268H354.367C356.781 240.268 358.738 238.311 358.738 235.898V59.5448C358.738 57.1311 356.781 55.1744 354.367 55.1744Z" fill="#5A5773"/>
<path d="M357.055 53.0504H28.8921C28.4457 53.0504 28.0176 53.2277 27.7019 53.5434C27.3863 53.859 27.209 54.2871 27.209 54.7335V61.8507H358.724V54.7475C358.726 54.5265 358.684 54.3072 358.601 54.1023C358.518 53.8974 358.396 53.7109 358.241 53.5533C358.086 53.3957 357.901 53.2702 357.698 53.1839C357.494 53.0976 357.276 53.0522 357.055 53.0504Z" fill="#5A5773"/>
<path d="M33.8428 59.7232C35.0989 59.7232 36.1172 58.7049 36.1172 57.4488C36.1172 56.1927 35.0989 55.1744 33.8428 55.1744C32.5867 55.1744 31.5684 56.1927 31.5684 57.4488C31.5684 58.7049 32.5867 59.7232 33.8428 59.7232Z" fill="white"/>
<path d="M39.9678 59.7232C41.2239 59.7232 42.2422 58.7049 42.2422 57.4488C42.2422 56.1927 41.2239 55.1744 39.9678 55.1744C38.7117 55.1744 37.6934 56.1927 37.6934 57.4488C37.6934 58.7049 38.7117 59.7232 39.9678 59.7232Z" fill="white"/>
<path d="M46.0889 59.7232C47.345 59.7232 48.3633 58.7049 48.3633 57.4488C48.3633 56.1927 47.345 55.1744 46.0889 55.1744C44.8327 55.1744 43.8145 56.1927 43.8145 57.4488C43.8145 58.7049 44.8327 59.7232 46.0889 59.7232Z" fill="white"/>
<path d="M322.278 102.826H52.9777C51.0085 102.826 49.4121 104.422 49.4121 106.391V236.699C49.4121 238.668 51.0085 240.264 52.9777 240.264H322.278C324.247 240.264 325.844 238.668 325.844 236.699V106.391C325.844 104.422 324.247 102.826 322.278 102.826Z" fill="white"/>
<path opacity="0.2" d="M115.855 71.1898H39.0421C38.2961 71.1898 37.6914 71.7946 37.6914 72.5405V78.1846C37.6914 78.9306 38.2961 79.5353 39.0421 79.5353H115.855C116.601 79.5353 117.206 78.9306 117.206 78.1846V72.5405C117.206 71.7946 116.601 71.1898 115.855 71.1898Z" fill="#5A5773"/>
<path opacity="0.2" d="M265.793 118.778H188.98C188.234 118.778 187.629 119.383 187.629 120.129V125.773C187.629 126.519 188.234 127.124 188.98 127.124H265.793C266.539 127.124 267.143 126.519 267.143 125.773V120.129C267.143 119.383 266.539 118.778 265.793 118.778Z" fill="#FF0000"/>
<path opacity="0.2" d="M310.438 142.145H188.98C188.234 142.145 187.629 142.75 187.629 143.496V149.14C187.629 149.886 188.234 150.491 188.98 150.491H310.438C311.184 150.491 311.789 149.886 311.789 149.14V143.496C311.789 142.75 311.184 142.145 310.438 142.145Z" fill="#FF0000"/>
<path opacity="0.2" d="M310.438 155.792H188.98C188.234 155.792 187.629 156.397 187.629 157.143V162.787C187.629 163.533 188.234 164.137 188.98 164.137H310.438C311.184 164.137 311.789 163.533 311.789 162.787V157.143C311.789 156.397 311.184 155.792 310.438 155.792Z" fill="#FF0000"/>
<path opacity="0.2" d="M310.438 169.439H188.98C188.234 169.439 187.629 170.043 187.629 170.789V176.433C187.629 177.179 188.234 177.784 188.98 177.784H310.438C311.184 177.784 311.789 177.179 311.789 176.433V170.789C311.789 170.043 311.184 169.439 310.438 169.439Z" fill="#FF0000"/>
<path opacity="0.2" d="M310.438 183.085H188.98C188.234 183.085 187.629 183.69 187.629 184.436V190.08C187.629 190.826 188.234 191.431 188.98 191.431H310.438C311.184 191.431 311.789 190.826 311.789 190.08V184.436C311.789 183.69 311.184 183.085 310.438 183.085Z" fill="#FF0000"/>
<path opacity="0.2" d="M310.439 198.131H65.7511C65.0051 198.131 64.4004 198.736 64.4004 199.482V205.126C64.4004 205.872 65.0051 206.477 65.7511 206.477H310.439C311.184 206.477 311.789 205.872 311.789 205.126V199.482C311.789 198.736 311.184 198.131 310.439 198.131Z" fill="#FF0000"/>
<path opacity="0.2" d="M310.439 211.778H65.7511C65.0051 211.778 64.4004 212.383 64.4004 213.129V218.773C64.4004 219.519 65.0051 220.124 65.7511 220.124H310.439C311.184 220.124 311.789 219.519 311.789 218.773V213.129C311.789 212.383 311.184 211.778 310.439 211.778Z" fill="#FF0000"/>
<path opacity="0.2" d="M310.439 225.425H65.7511C65.0051 225.425 64.4004 226.029 64.4004 226.775V232.419C64.4004 233.165 65.0051 233.77 65.7511 233.77H310.439C311.184 233.77 311.789 233.165 311.789 232.419V226.775C311.789 226.029 311.184 225.425 310.439 225.425Z" fill="#FF0000"/>
<path d="M255.192 230.943C255.192 230.943 257.267 233.655 254.234 237.752C251.2 241.85 248.701 245.307 249.713 247.861C249.713 247.861 254.286 240.254 258.013 240.163C261.739 240.072 259.29 235.516 255.192 230.943Z" fill="#F71011"/>
<path opacity="0.1" d="M255.191 230.943C255.372 231.205 255.514 231.491 255.615 231.793C259.25 236.062 261.185 240.048 257.693 240.146C254.439 240.24 250.534 246.059 249.6 247.525C249.629 247.644 249.666 247.761 249.712 247.875C249.712 247.875 254.285 240.268 258.011 240.177C261.738 240.086 259.289 235.516 255.191 230.943Z" fill="#FF0000"/>
<path d="M259.044 234.4C259.044 235.355 258.939 236.128 258.806 236.128C258.673 236.128 258.568 235.355 258.568 234.4C258.568 233.445 258.701 233.896 258.834 233.896C258.967 233.896 259.044 233.445 259.044 234.4Z" fill="#FFD037"/>
<path d="M260.373 235.541C259.533 235.996 258.802 236.272 258.739 236.157C258.676 236.041 259.306 235.576 260.138 235.107C260.971 234.638 260.646 234.981 260.709 235.107C260.772 235.233 261.209 235.082 260.373 235.541Z" fill="#FFD037"/>
<path d="M244.235 230.943C244.235 230.943 242.16 233.655 245.19 237.752C248.22 241.85 250.725 245.307 249.714 247.861C249.714 247.861 245.137 240.254 241.414 240.163C237.691 240.072 240.137 235.516 244.235 230.943Z" fill="#F71011"/>
<path opacity="0.1" d="M244.235 230.943C244.052 231.204 243.908 231.491 243.808 231.793C240.176 236.062 238.241 240.048 241.733 240.146C244.987 240.24 248.888 246.059 249.823 247.525C249.795 247.644 249.758 247.761 249.714 247.875C249.714 247.875 245.137 240.268 241.414 240.177C237.691 240.086 240.137 235.516 244.235 230.943Z" fill="black"/>
<path d="M240.375 234.4C240.375 235.355 240.483 236.128 240.616 236.128C240.749 236.128 240.854 235.355 240.854 234.4C240.854 233.445 240.721 233.903 240.592 233.903C240.462 233.903 240.375 233.445 240.375 234.4Z" fill="#FFD037"/>
<path d="M239.053 235.541C239.892 235.996 240.624 236.272 240.687 236.157C240.75 236.041 240.12 235.576 239.287 235.107C238.454 234.638 238.78 234.981 238.717 235.107C238.654 235.233 238.213 235.082 239.053 235.541Z" fill="#FFD037"/>
<path opacity="0.1" d="M249.71 268.615C261.692 268.615 271.405 267.125 271.405 265.287C271.405 263.449 261.692 261.959 249.71 261.959C237.729 261.959 228.016 263.449 228.016 265.287C228.016 267.125 237.729 268.615 249.71 268.615Z" fill="#6C63FF"/>
<path d="M260.887 244.205L260.782 245.051L260.639 246.248L260.576 246.748L260.432 247.945L260.369 248.446L260.222 249.639L258.564 263.25C258.413 264.465 256.429 265.413 254.015 265.413H245.4C243.003 265.413 241.023 264.465 240.876 263.25L239.21 249.649L239.067 248.456L239.004 247.956L238.857 246.759L238.797 246.259L238.65 245.062L238.545 244.215C238.465 243.515 239.539 242.948 240.893 242.948H258.536C259.89 242.938 260.964 243.515 260.887 244.205Z" fill="#F3D55A"/>
<path d="M260.775 245.051L260.632 246.248H238.797L238.65 245.051H260.775Z" fill="#FF0000"/>
<path d="M260.568 246.745L260.424 247.942H239.002L238.855 246.745H260.568Z" fill="#FF0000"/>
<path d="M260.358 248.442L260.211 249.639H239.206L239.062 248.442H260.358Z" fill="#FF0000"/>
<path opacity="0.2" d="M167.1 114.149H67.3747C65.732 114.149 64.4004 115.48 64.4004 117.123V188.694C64.4004 190.337 65.732 191.669 67.3747 191.669H167.1C168.743 191.669 170.074 190.337 170.074 188.694V117.123C170.074 115.48 168.743 114.149 167.1 114.149Z" fill="#FF0000"/>
<path d="M393.667 200.364C393.8 200.014 392.813 198.013 392.813 197.915C392.813 197.817 391.795 196.707 391.795 196.088C391.795 195.469 390.448 194.128 390.448 194.128C390.448 194.128 388.639 193.38 388.443 191.746C388.247 190.111 386.277 190.083 386.273 190.083C386.273 190.083 386.273 189.937 386.273 189.709C386.313 189.064 386.231 188.417 386.032 187.802C385.8 187.351 385.398 187.01 384.916 186.854C384.916 186.854 384.716 185.58 384.324 185.188C384.106 184.959 383.949 184.679 383.868 184.373C383.787 184.067 383.785 183.746 383.862 183.439C384.062 182.823 383.6 181.255 382.648 181.024C381.696 180.793 380.608 180.436 380.608 180.436L380.346 180.482L380.216 180.436C379.985 180.481 379.751 180.51 379.516 180.524C379.316 180.53 379.119 180.465 378.96 180.342C378.631 179.992 375.968 179.292 375.461 179.292C374.954 179.292 373.554 178.638 373.554 178.638C373.554 178.638 372.567 177.889 372.154 177.56C371.741 177.231 371.024 176.038 370.916 175.856V175.832C370.795 175.554 370.696 175.267 370.618 174.974C371.099 174.471 371.51 173.905 371.839 173.291C371.874 173.228 371.906 173.165 371.937 173.099C372.01 173.099 372.082 173.088 372.151 173.067L372.238 173.032C372.404 172.946 372.551 172.828 372.671 172.685C372.791 172.543 372.882 172.377 372.938 172.199C372.963 172.128 372.984 172.056 373.001 171.982C373.001 171.958 373.001 171.933 373.001 171.909L373.033 171.762C373.031 171.734 373.031 171.706 373.033 171.678L373.054 171.531V171.447C373.054 171.384 373.054 171.325 373.078 171.262C373.099 171.027 373.133 170.793 373.18 170.562C373.375 169.677 373.911 168.928 374.285 168.112C374.338 167.997 374.39 167.878 374.436 167.763C374.481 167.647 374.527 167.5 374.565 167.367L374.597 167.245C374.621 167.147 374.642 167.049 374.663 166.951C374.684 166.853 374.663 166.863 374.688 166.818C374.709 166.685 374.726 166.548 374.74 166.408C374.802 165.628 374.683 164.843 374.39 164.116C374.145 163.504 373.778 162.951 373.529 162.339C373.152 161.412 373.05 160.358 372.592 159.473C372.218 158.755 371.601 158.193 370.851 157.888C370.101 157.583 369.267 157.554 368.498 157.807C367.798 158.073 367.161 158.588 366.437 158.819C365.464 159.13 364.428 158.896 363.42 158.759C362.413 158.623 361.321 158.605 360.495 159.263C359.564 160.019 359.312 161.44 358.438 162.269C358.088 162.619 357.615 162.839 357.227 163.161C356.954 163.38 356.744 163.667 356.618 163.994L356.597 164.06C356.588 164.089 356.581 164.118 356.576 164.148C356.568 164.18 356.562 164.213 356.559 164.246C356.557 164.268 356.557 164.29 356.559 164.312C356.552 164.37 356.552 164.429 356.559 164.487C356.563 164.543 356.572 164.598 356.583 164.652V164.697C356.583 164.743 356.608 164.788 356.625 164.834C356.643 164.879 356.625 164.851 356.625 164.858C356.625 164.865 356.664 164.96 356.685 165.009L356.716 165.082C356.716 165.103 356.716 165.124 356.744 165.142C356.869 165.385 356.971 165.639 357.048 165.901C357.089 166.067 357.078 166.242 357.017 166.401C356.934 166.583 356.815 166.746 356.667 166.881C356.012 167.561 355.507 168.37 355.183 169.257C355.144 169.359 355.109 169.461 355.078 169.561H355.124C355.218 169.588 355.314 169.608 355.411 169.621C355.466 169.624 355.521 169.624 355.575 169.621C355.8 169.634 356.026 169.617 356.247 169.572L356.415 169.53C356.644 169.47 356.866 169.389 357.08 169.288C357.08 169.355 357.08 169.421 357.08 169.488C357.08 169.554 357.08 169.561 357.08 169.6C357.082 171.044 357.487 172.458 358.249 173.685C359.011 174.911 360.101 175.901 361.394 176.542C361.394 176.612 361.412 176.682 361.422 176.752L361.443 176.93L361.356 176.846C361.356 176.846 360.765 176.552 360.205 177.399C359.794 177.955 359.237 178.385 358.595 178.641C358.595 178.641 352.612 179.586 352.381 180.37L349.581 180.534C349.581 180.534 348.595 180.664 348.497 182.721C348.399 184.779 347.874 184.971 347.874 184.971C347.874 184.971 346.723 186.997 346.824 188.04C346.836 188.358 346.76 188.673 346.603 188.95C346.446 189.227 346.215 189.455 345.935 189.608L345.806 191.469C345.806 191.469 344.721 191.305 344.406 192.578C344.281 193.253 344.001 193.889 343.587 194.436C343.587 194.436 341.778 195.941 341.68 197.211L340.561 197.911C340.561 197.911 337.964 197.323 337.373 196.28C337.373 196.28 337.303 196.21 337.191 196.109V196.084C336.802 195.735 335.98 194.951 336.106 195.129C336.183 195.293 336.202 195.478 336.159 195.654L335.966 195.441L335.448 194.867C335.448 194.867 331.249 190.934 328.8 190.622C328.768 190.559 328.607 189.923 328.188 190.325C327.84 190.644 327.562 191.032 327.371 191.464C327.18 191.895 327.08 192.362 327.078 192.834C327.076 193.306 327.171 193.773 327.358 194.207C327.544 194.64 327.819 195.031 328.163 195.353L332.096 199.024L332.198 199.097L333.041 200.182C332.897 200.532 332.778 200.854 332.691 201.155V201.186L332.628 201.375C332.621 201.396 332.615 201.417 332.61 201.438C332.59 201.501 332.572 201.561 332.555 201.62L332.523 201.725C332.523 201.746 332.523 201.767 332.523 201.788C332.429 202.117 332.369 202.369 332.341 202.509L332.121 202.439L332.334 202.533V202.565C332.334 202.61 332.334 202.635 332.334 202.635L332.537 202.722C333.688 203.223 339.434 205.746 339.728 206.127C340.022 206.508 342.226 207.793 344.2 206.746C346.173 205.7 346.597 204.105 346.597 204.105C346.597 204.105 348.504 201.459 348.57 201.067C348.637 200.675 350.113 200.22 350.113 200.22C350.113 200.22 350.246 204.591 349.49 206.193C348.735 207.796 347.321 214.875 347.321 214.875C347.414 214.862 347.508 214.862 347.601 214.875L347.517 215.284C347.632 215.263 347.751 215.263 347.867 215.284C347.762 216.089 347.167 219.833 347.167 219.833C347.167 219.833 346.971 221.53 346.642 222.118C346.313 222.706 346.292 225.775 346.292 225.775L345.764 227.993C345.764 227.993 345.834 228.147 345.963 228.374C346.317 229.13 346.833 229.797 347.475 230.33C347.433 230.679 347.343 231.021 347.209 231.345C347.005 231.841 346.915 232.377 346.946 232.913C346.946 232.913 346.39 235.425 346.453 236.143C346.516 236.86 346.103 238.623 346.103 238.623L345.512 244.302C345.512 244.302 345.12 249.229 345.316 250.569C345.41 251.62 345.365 252.679 345.183 253.719C345.183 253.719 345.578 257.603 345.48 258.026C345.382 258.449 344.889 260.28 345.183 261.291C345.477 262.302 345.316 265.077 345.316 265.077C345.316 265.077 345.512 268.733 345.743 269.909C345.866 270.799 345.844 271.703 345.676 272.586C345.676 272.586 345.445 275.098 345.347 275.098C345.249 275.098 344.396 276.827 346.135 278.524C347.874 280.221 346.796 279.959 346.796 279.959C346.796 279.959 345.396 279.259 345.578 280.679C345.732 282.013 345.949 281.666 345.97 281.628L345.641 282.702L345.872 282.733L345.683 282.961C345.485 283.215 345.262 283.45 345.018 283.661C344.763 283.911 344.61 284.248 344.592 284.605C344.592 284.605 342.16 287.251 339.892 288.588C338.699 289.287 337.67 289.886 337.222 290.383C336.816 290.823 336.872 291.18 337.723 291.46C339.497 292.048 342.622 292.342 344.854 291.59C346.192 291.147 347.395 290.373 348.353 289.34C348.353 289.34 349.753 288.619 351.152 288.881C352.552 289.144 355.295 287.349 355.295 287.349L355.243 286.887L355.099 285.55C355.007 285.438 354.939 285.308 354.899 285.169C354.859 285.029 354.849 284.882 354.869 284.738C354.886 284.343 354.847 283.947 354.753 283.563C354.729 283.433 354.704 283.304 354.68 283.185L354.932 283.136C354.932 283.136 354.606 281.474 355.197 281.145C355.789 280.816 355.621 276.543 355.621 276.543C355.621 276.543 354.869 275.564 354.473 275.403C354.078 275.242 354.438 273.212 354.508 272.953C354.578 272.694 355.099 267.631 355.099 267.631C355.099 267.631 354.9 266.036 355.162 265.35C355.425 264.664 354.834 262.019 354.834 262.019C354.779 261.897 354.765 261.762 354.795 261.632C354.825 261.503 354.896 261.387 354.998 261.301C355.348 260.909 355.229 257.417 355.229 257.417C355.229 257.417 355.197 255.668 355.197 255.195C355.197 254.723 355.589 253.075 355.953 252.522C356.317 251.969 356.083 250.237 356.083 250.237L356.104 250.108C356.104 250.059 356.104 249.996 356.132 249.922L356.16 249.747C356.32 248.791 356.535 247.845 356.804 246.913C357.23 245.545 357.724 243.13 357.724 243.13L360.779 235.159L360.814 235.065C360.814 235.065 362.213 237.675 362.213 240.093C362.213 240.093 362.563 242.997 362.479 243.781C362.395 244.565 362.707 248.25 362.707 248.25C362.707 248.25 363.133 253.537 363.133 253.764C363.133 253.992 363.662 258.072 363.991 258.694C364.32 259.317 363.662 261.207 363.462 261.403C363.263 261.599 363.529 266.396 363.529 266.396C363.529 266.396 363.036 270.182 362.938 270.966C362.84 271.75 362.444 274.752 362.773 275.928C363.102 277.103 362.969 277.264 362.969 277.264C362.969 277.264 364.155 278.475 363.462 278.573C363.211 278.628 362.974 278.736 362.768 278.89C362.562 279.044 362.39 279.24 362.266 279.465C362.141 279.69 362.066 279.939 362.046 280.196C362.025 280.452 362.06 280.71 362.147 280.952C362.559 282.147 363.042 283.315 363.595 284.452L364.141 284.336V284.724L364.18 286.67C364.18 286.67 364.411 288.528 364.278 288.955C364.183 289.263 364.05 290.725 363.987 291.492C363.963 291.772 363.949 291.957 363.949 291.957C363.949 291.957 363.949 293.686 367.598 293.164C371.248 292.643 371.902 291.205 371.902 291.205L371.93 291.026C371.983 290.697 372.102 289.998 372.2 289.606C372.329 289.084 371.15 286.733 371.15 286.733C371.15 286.733 370.954 285.134 370.625 284.777C370.487 284.566 370.396 284.327 370.359 284.077C370.331 283.944 370.303 283.808 370.282 283.675C370.365 283.684 370.446 283.698 370.527 283.717C370.527 283.717 370.328 282.576 371.087 282.216C371.846 281.855 371.643 281.106 371.545 280.781C371.447 280.456 371.839 278.625 371.839 278.625C371.784 278.443 371.779 278.249 371.825 278.064C371.871 277.879 371.967 277.71 372.102 277.576C372.564 277.117 372.924 273.919 372.924 273.919L372.991 261.581C372.991 261.581 373.222 259.394 372.959 258.512C372.697 257.631 372.434 255.934 372.795 255.475C373.155 255.017 372.826 252.9 372.826 252.9C372.826 252.9 372.826 248.428 373.319 247.301C373.813 246.175 373.648 239.173 373.648 239.173L373.778 234.571C373.778 234.571 374.852 233.557 374.6 228.273C375.744 228.199 377.05 228.158 377.232 228.318C377.581 228.612 379.926 230.114 381.308 229.165C381.879 228.773 382.427 228.349 382.949 227.895L382.368 218.098C382.718 218.643 382.949 219.004 382.949 219.004C382.949 217.636 386.83 213.195 386.83 213.195C386.83 213.195 390.444 208.527 391.232 207.975C392.019 207.422 393.565 204.475 393.565 204.475C393.794 203.916 394.058 203.371 394.356 202.845C394.72 202.288 393.538 200.721 393.667 200.364ZM385.189 203.79C384.202 203.888 382.13 206.141 382.099 206.631C382.027 206.954 381.877 207.254 381.661 207.506C381.661 207.31 381.63 207.11 381.612 206.907C381.382 204.021 381.13 200.507 381.263 200.168C381.458 199.58 381.392 196.935 381.392 196.935L381.43 196.882C382.092 198.933 384.149 201.347 384.149 201.347C384.149 201.347 384.499 202.397 384.94 202.421C385.381 202.446 385.189 203.79 385.189 203.79Z" fill="url(#paint1_linear)"/>
<path d="M332.494 203.044C332.494 203.044 333.694 196.746 337.547 196.746L340.367 202.544L338.488 203.839C338.488 203.839 334.405 203.95 332.494 203.044Z" fill="#65617D"/>
<path opacity="0.1" d="M340.367 202.526L338.488 203.821C338.488 203.821 335.615 203.912 333.561 203.408C333.195 203.327 332.837 203.21 332.494 203.058L332.515 202.957V202.936C332.691 202.146 332.934 201.374 333.243 200.626C333.362 200.343 333.495 200.053 333.642 199.762C334.205 198.677 334.999 197.61 336.091 197.085C336.491 196.883 336.928 196.764 337.375 196.735H337.547L337.61 196.865L338.562 198.824L340.367 202.526Z" fill="black"/>
<path d="M372.372 228.633C372.372 228.633 376.42 228.245 376.777 228.539C377.134 228.833 379.433 230.32 380.791 229.379C382.148 228.437 381.246 225.18 381.246 225.04C381.246 224.9 381.116 220.278 381.116 220.278L378.688 217.006L375.643 211.274L369.422 210.658L369.583 219.756L369.551 224.42L372.372 228.633Z" fill="#65617D"/>
<path opacity="0.1" d="M372.372 228.633C372.372 228.633 376.42 228.245 376.777 228.539C377.134 228.833 379.433 230.32 380.791 229.379C382.148 228.437 381.246 225.18 381.246 225.04C381.246 224.9 381.116 220.278 381.116 220.278L378.688 217.006L375.643 211.274L369.422 210.658L369.583 219.756L369.551 224.42L372.372 228.633Z" fill="black"/>
<path d="M336.741 196.567C336.741 196.567 336.415 200.518 333.941 200.584C333.941 200.584 333.242 200.165 332.304 199.461C330.141 197.841 326.705 194.73 327.657 191.837C329.018 187.69 335.625 195.336 335.625 195.336L336.135 195.906L336.741 196.567Z" fill="#FBBEBE"/>
<path opacity="0.1" d="M336.741 196.567C336.741 196.567 336.415 200.518 333.941 200.584C333.941 200.584 333.241 200.164 332.304 199.461L332.094 199.192C332.513 199.406 332.974 199.525 333.444 199.542C333.814 199.556 334.18 199.458 334.492 199.26C334.805 199.062 335.049 198.773 335.194 198.432C335.459 197.924 335.693 197.399 335.894 196.861C336.009 196.548 336.093 196.223 336.142 195.892L336.741 196.567Z" fill="black"/>
<path d="M335.669 203.727L335.116 203.027L333.251 200.626L332.303 199.398C332.721 199.612 333.181 199.732 333.65 199.748C334.02 199.764 334.386 199.666 334.699 199.468C335.011 199.27 335.256 198.98 335.399 198.639C335.659 198.131 335.887 197.607 336.082 197.071C336.39 196.196 336.383 195.749 336.274 195.595C336.166 195.441 336.974 196.182 337.345 196.546L337.523 196.714L337.59 196.847L338.566 198.737C338.568 198.764 338.568 198.791 338.566 198.817C338.636 199.412 338.951 203.188 335.669 203.727Z" fill="#E7EFFD"/>
<path d="M355.077 287.09C355.077 287.09 352.355 288.875 350.994 288.612C350.051 288.494 349.094 288.652 348.24 289.067C347.304 290.092 346.123 290.861 344.807 291.303C342.603 292.048 339.527 291.754 337.777 291.174C336.951 290.897 336.885 290.54 337.284 290.103C337.683 289.665 338.74 289.022 339.915 288.322C342.151 286.992 344.548 284.371 344.548 284.371C344.563 284.015 344.713 283.679 344.968 283.43C345.209 283.219 345.428 282.984 345.622 282.73C345.972 282.321 346.298 281.89 346.298 281.89L354.314 282.191C354.314 282.191 354.451 282.769 354.559 283.36C354.65 283.741 354.688 284.133 354.671 284.525C354.651 284.668 354.661 284.814 354.701 284.953C354.74 285.092 354.807 285.222 354.899 285.333L355.042 286.656L355.077 287.09Z" fill="#65617D"/>
<path d="M371.806 289.336C371.712 289.725 371.593 290.418 371.54 290.736C371.54 290.844 371.516 290.914 371.516 290.914C371.516 290.914 370.868 292.339 367.271 292.856C363.674 293.374 363.678 291.66 363.678 291.66L363.713 291.194C363.776 290.439 363.905 288.986 364 288.679C364.129 288.259 363.905 286.411 363.905 286.411L363.867 284.48L363.839 283.139L369.787 282.524C369.825 282.969 369.89 283.412 369.98 283.85C370.014 284.1 370.104 284.339 370.242 284.55C370.564 284.899 370.76 286.492 370.76 286.492C370.76 286.492 371.946 288.818 371.806 289.336Z" fill="#65617D"/>
<path opacity="0.1" d="M354.311 282.191C354.311 282.191 354.448 282.768 354.556 283.36C353.692 283.517 349.913 284.172 348.958 283.71C347.887 283.192 345.588 282.901 345.588 282.901L345.626 282.768C345.976 282.359 346.302 281.929 346.302 281.929L354.311 282.191Z" fill="black"/>
<path opacity="0.1" d="M370.001 283.86C368.493 283.605 365.179 284.21 363.878 284.49L363.85 283.15L369.798 282.534C369.84 282.98 369.908 283.423 370.001 283.86Z" fill="black"/>
<path d="M373.371 234.757L373.245 239.306C373.245 239.306 373.406 246.269 372.919 247.354C372.433 248.439 372.433 252.893 372.433 252.893C372.433 252.893 372.758 254.992 372.401 255.451C372.045 255.909 372.303 257.589 372.562 258.464C372.821 259.338 372.594 261.508 372.594 261.508L372.531 273.755C372.531 273.755 372.181 276.928 371.719 277.383C371.586 277.519 371.492 277.688 371.447 277.873C371.401 278.058 371.406 278.251 371.46 278.433C371.46 278.433 371.072 280.246 371.17 280.571C371.268 280.897 371.46 281.638 370.718 281.995C369.977 282.352 370.166 283.486 370.166 283.486C368.384 283.062 363.332 284.186 363.332 284.186C362.786 283.06 362.309 281.902 361.904 280.718C361.817 280.478 361.782 280.222 361.801 279.967C361.821 279.713 361.895 279.465 362.018 279.241C362.14 279.018 362.31 278.822 362.514 278.669C362.718 278.516 362.953 278.408 363.202 278.353C363.881 278.258 362.716 277.058 362.716 277.058C362.716 277.058 362.845 276.897 362.52 275.728C362.194 274.56 362.586 271.582 362.684 270.805C362.782 270.028 363.265 266.256 363.265 266.256C363.265 266.256 363.006 261.494 363.202 261.301C363.398 261.109 364.042 259.226 363.72 258.614C363.398 258.002 362.877 253.95 362.877 253.715C362.877 253.481 362.457 248.239 362.457 248.239C362.457 248.239 362.068 244.579 362.166 243.802C362.264 243.025 361.904 240.142 361.904 240.142C361.904 237.745 360.504 235.152 360.504 235.152L360.469 235.247L357.46 243.211C357.46 243.211 356.974 245.608 356.554 246.969C356.289 247.889 356.077 248.824 355.92 249.768L355.892 249.943L355.864 250.125L355.843 250.255C355.843 250.255 356.067 251.969 355.711 252.522C355.313 253.358 355.062 254.257 354.969 255.178C354.969 255.633 355 257.382 355 257.382C355 257.382 355.13 260.846 354.773 261.231C354.675 261.316 354.606 261.429 354.577 261.555C354.548 261.681 354.56 261.813 354.612 261.931C354.612 261.931 355.193 264.556 354.934 265.234C354.675 265.913 354.871 267.502 354.871 267.502C354.871 267.502 354.353 272.523 354.286 272.782C354.22 273.041 353.866 275.049 354.255 275.21C354.643 275.371 355.389 276.344 355.389 276.344C355.389 276.344 355.55 280.589 354.969 280.911C354.388 281.232 354.706 282.888 354.706 282.888C354.706 282.888 350.01 283.794 348.943 283.276C347.876 282.758 345.574 282.468 345.574 282.468L345.895 281.418C345.874 281.456 345.661 281.803 345.511 280.477C345.346 279.077 346.707 279.777 346.707 279.777C346.707 279.777 347.778 280.036 346.06 278.353C344.342 276.67 345.185 274.951 345.283 274.951C345.381 274.951 345.605 272.457 345.605 272.457C345.771 271.581 345.793 270.684 345.671 269.801C345.444 268.636 345.252 265.007 345.252 265.007C345.252 265.007 345.413 262.253 345.119 261.249C344.825 260.245 345.315 258.45 345.413 258.009C345.511 257.568 345.119 253.733 345.119 253.733C345.301 252.693 345.346 251.635 345.252 250.583C345.056 249.254 345.444 244.362 345.444 244.362L346.028 238.728C346.028 238.728 346.448 236.979 346.378 236.279C346.308 235.579 346.865 233.074 346.865 233.074C346.833 232.542 346.922 232.01 347.124 231.517C347.449 230.869 347.579 228.717 347.579 228.717L350.689 221.593L352.211 215.295L372.779 215.099C372.779 215.099 372.853 215.645 372.979 216.635C373.105 217.625 373.28 219.084 373.476 220.9C373.654 222.545 373.85 224.48 374.043 226.632C374.669 233.525 373.371 234.757 373.371 234.757Z" fill="#3F3D56"/>
<path d="M371.459 178.039L366.669 183.166C366.669 183.166 360.517 180.716 361.165 179.859C361.413 179.534 361.375 178.505 361.231 177.371C361.004 175.576 360.531 173.522 360.531 173.522C360.531 173.522 371.284 171.772 370.374 173.585C370.085 174.269 370.061 175.036 370.308 175.737C370.567 176.561 370.956 177.338 371.459 178.039Z" fill="#FBBEBE"/>
<path opacity="0.1" d="M370.36 173.568C370.031 174.232 369.874 174.295 370.08 175.009C368.681 176.517 366.886 178.158 364.66 178.158C363.47 178.16 362.296 177.884 361.231 177.354C361.004 175.559 360.531 173.505 360.531 173.505C360.531 173.505 371.27 171.755 370.36 173.568Z" fill="black"/>
<path d="M372.374 170.264C372.374 172.309 371.561 174.271 370.116 175.716C368.67 177.162 366.708 177.975 364.663 177.975C362.619 177.975 360.657 177.162 359.211 175.716C357.765 174.271 356.953 172.309 356.953 170.264C356.953 170.226 356.953 170.191 356.953 170.152C356.96 169.14 357.167 168.139 357.561 167.207C357.956 166.274 358.529 165.429 359.251 164.718C359.972 164.007 360.825 163.446 361.764 163.065C362.702 162.685 363.705 162.493 364.718 162.5C365.73 162.507 366.731 162.714 367.663 163.108C368.596 163.502 369.442 164.076 370.152 164.797C370.863 165.518 371.424 166.372 371.805 167.31C372.186 168.248 372.378 169.252 372.37 170.264H372.374Z" fill="#FBBEBE"/>
<path opacity="0.1" d="M373.487 221.124C372.465 221.124 369.064 221.159 365.264 221.222H365.219L363.963 221.243H363.924C359.417 221.313 354.977 220.435 353.192 220.599C349.403 220.949 354.554 217.1 354.554 217.1C357.378 217.784 360.282 218.077 363.186 217.972L364.278 217.916C367.721 217.72 371.181 217.398 372.99 216.866C373.116 217.86 373.291 219.315 373.487 221.124Z" fill="black"/>
<path d="M373.487 220.928C372.465 220.928 369.064 220.967 365.264 221.026H365.219L363.963 221.047H363.924C359.417 221.121 354.977 220.239 353.192 220.407C349.403 220.757 354.554 216.908 354.554 216.908C357.377 217.594 360.282 217.887 363.186 217.779L364.278 217.723C367.721 217.531 371.181 217.205 372.99 216.673C373.116 217.664 373.291 219.119 373.487 220.928Z" fill="#5F5D7E"/>
<path opacity="0.1" d="M362.587 180.177L356.639 182.977L352.037 218.542C352.037 218.542 354.759 217.31 356.313 218.087C357.867 218.864 362.661 218.154 362.661 218.154C362.661 218.154 366.16 217.958 366.678 218.35C367.195 218.741 373.287 216.729 373.287 216.729C373.287 216.729 374.39 214.28 373.546 213.878C372.703 213.475 373.805 209.679 373.805 209.679L373.287 184.023L372.238 180.72L369.438 179.033L366.59 181.301L365.229 181.497L362.587 180.177Z" fill="black"/>
<path d="M362.592 179.789L356.643 182.588L352.031 218.157C352.031 218.157 354.754 216.925 356.307 217.702C357.861 218.479 362.655 217.769 362.655 217.769C362.655 217.769 366.154 217.573 366.672 217.961C367.19 218.349 373.282 216.344 373.282 216.344C373.282 216.344 374.384 213.895 373.54 213.493C372.697 213.09 373.799 209.294 373.799 209.294L373.282 183.638L372.232 180.335L369.432 178.648L366.584 180.916L365.223 181.112L362.592 179.789Z" fill="white"/>
<path opacity="0.1" d="M362.491 181.441C362.491 181.441 364.209 183.481 364.177 183.89C364.146 184.299 364.079 185.318 364.079 185.318L362.785 187.939C362.785 187.939 362.085 191.21 362.085 191.893C362.085 192.575 360.951 198.467 360.951 198.467L359.562 207.548L357.844 219.445L359.593 222.457L361.668 220.708L364.422 199.524L365.003 195.346C365.003 195.346 365.619 187.83 365.619 187.053C365.553 186.109 365.436 185.168 365.269 184.236C365.269 184.236 365.692 182.291 367.442 181.84C369.191 181.388 367.309 181.742 367.309 181.742L366.308 180.933L365.433 181.283C365.433 181.283 363.008 180.534 362.491 181.441Z" fill="black"/>
<path d="M362.297 181.245C362.297 181.245 364.011 183.285 363.98 183.694C363.948 184.103 363.882 185.118 363.882 185.118L362.587 187.743C362.587 187.743 361.887 191.014 361.887 191.693C361.887 192.372 360.754 198.268 360.754 198.268L359.396 207.338L357.678 219.235L359.427 222.248L361.499 220.498L364.253 199.314L364.837 195.136C364.837 195.136 365.453 187.62 365.453 186.843C365.387 185.898 365.27 184.956 365.103 184.023C365.103 184.023 365.523 182.081 367.273 181.626C369.022 181.171 367.143 181.532 367.143 181.532L366.139 180.72L365.264 181.07C365.264 181.07 362.815 180.338 362.297 181.245Z" fill="#FF0000"/>
<path opacity="0.1" d="M361.163 177.844C361.163 177.844 360.904 178.04 360.838 179.334C360.772 180.629 359.865 183.533 359.865 183.533C359.865 183.533 363.235 181.203 364.918 181.462L361.163 177.844Z" fill="black"/>
<path d="M361.163 177.455C361.163 177.455 360.904 177.651 360.838 178.946C360.772 180.24 359.865 183.145 359.865 183.145C359.865 183.145 363.235 180.814 364.918 181.073L361.163 177.455Z" fill="white"/>
<path opacity="0.1" d="M370.363 176.808L365.051 181.472C365.051 181.472 369.519 184.128 370.104 184.775C370.688 185.423 371.269 178.428 371.269 178.428L370.363 176.808Z" fill="black"/>
<path d="M370.552 176.419L365.24 181.084C365.24 181.084 369.712 183.74 370.293 184.387C370.874 185.034 371.458 178.039 371.458 178.039L370.552 176.419Z" fill="white"/>
<path opacity="0.1" d="M361.355 177.843C361.355 177.843 360.775 177.553 360.222 178.396C359.818 178.945 359.269 179.371 358.637 179.625C358.637 179.625 352.741 180.566 352.513 181.343L349.759 181.504C349.759 181.504 348.787 181.633 348.71 183.677C348.633 185.72 348.094 185.909 348.094 185.909C348.094 185.909 346.96 187.917 347.044 188.953C347.056 189.268 346.981 189.581 346.827 189.856C346.672 190.13 346.445 190.357 346.169 190.51L350.218 201.036C350.218 201.036 350.347 205.378 349.602 206.963C348.857 208.548 347.464 215.582 347.464 215.582C347.464 215.582 348.048 215.452 348.013 215.841C347.978 216.229 347.313 220.473 347.313 220.473C347.313 220.473 347.117 222.157 346.796 222.741C346.474 223.325 346.446 226.366 346.446 226.366L345.928 228.57C345.928 228.57 347.156 231.324 349.035 230.936C350.914 230.547 354.312 223.192 354.312 223.192L356.481 215.256L358.168 207.418L358.654 202.106L359.431 190.346L360.565 182.574C360.565 182.574 361.81 178.396 361.355 177.843Z" fill="black"/>
<path d="M361.16 177.455C361.16 177.455 360.576 177.165 360.026 178.008C359.621 178.557 359.071 178.982 358.438 179.236C358.438 179.236 352.542 180.177 352.314 180.954L349.564 181.115C349.564 181.115 348.591 181.245 348.493 183.285C348.395 185.325 347.877 185.521 347.877 185.521C347.877 185.521 346.743 187.529 346.827 188.565C346.841 188.88 346.766 189.193 346.611 189.468C346.457 189.743 346.229 189.969 345.952 190.122L350.015 200.661C350.015 200.661 350.145 205.004 349.399 206.589C348.654 208.174 347.261 215.207 347.261 215.207C347.261 215.207 347.846 215.078 347.814 215.466C347.783 215.855 347.114 220.095 347.114 220.095C347.114 220.095 346.922 221.782 346.596 222.363C346.271 222.944 346.246 225.992 346.246 225.992L345.729 228.196C345.729 228.196 346.96 230.95 348.839 230.558C350.718 230.166 354.12 222.818 354.12 222.818L356.289 214.882L357.972 207.044L358.438 201.711L359.214 189.95L360.348 182.179C360.348 182.179 361.611 178.008 361.16 177.455Z" fill="#65617D"/>
<path opacity="0.1" d="M340.368 202.526L338.489 203.821C338.489 203.821 335.616 203.912 333.562 203.408L332.513 202.943L332.303 202.852L332.52 202.922C333.354 203.219 334.26 203.251 335.112 203.013C337.772 202.117 337.478 197.729 337.373 196.735C337.373 196.634 337.355 196.571 337.352 196.546V196.571C337.389 196.63 337.43 196.688 337.474 196.742L337.593 196.868L338.566 198.737C338.568 198.764 338.568 198.791 338.566 198.817L340.368 202.526Z" fill="black"/>
<path d="M346.879 189.863L345.972 190.122L345.843 191.966C345.843 191.966 344.793 191.805 344.482 193.068C344.357 193.738 344.081 194.37 343.673 194.916C343.673 194.916 341.892 196.406 341.794 197.67L340.692 198.348C340.692 198.348 338.134 197.764 337.543 196.728C337.543 196.728 338.712 205.084 332.49 203.027C332.49 203.027 339.454 206.071 339.779 206.494C340.104 206.918 342.228 208.146 344.184 207.11C346.14 206.075 346.55 204.486 346.55 204.486C346.55 204.486 348.429 201.862 348.492 201.473C348.555 201.085 350.014 200.63 350.014 200.63L352.813 193.894L346.879 189.863Z" fill="#65617D"/>
<path opacity="0.1" d="M369.615 180.695L370.553 176.419C370.553 176.419 370.976 177.819 371.396 178.137L372.796 179.187C372.796 179.187 374.195 179.835 374.675 179.835C375.154 179.835 377.785 180.534 378.107 180.884C378.429 181.234 379.727 180.982 379.727 180.982C379.727 180.982 380.795 181.332 381.736 181.567C382.677 181.801 383.136 183.348 382.933 183.964C382.855 184.27 382.855 184.591 382.935 184.897C383.014 185.203 383.17 185.484 383.387 185.713C383.776 186.101 383.972 187.365 383.972 187.365C384.447 187.52 384.842 187.857 385.071 188.302C385.396 189.002 385.298 190.57 385.298 190.57L380.473 197.372C380.473 197.372 380.536 199.997 380.343 200.581C380.151 201.165 381.022 211.078 381.022 211.078L382.026 228.116C381.511 228.568 380.97 228.99 380.406 229.379C380.116 229.508 379.825 223.353 379.825 223.129C379.825 222.905 372.341 211.932 372.341 211.932C372.341 211.932 371.337 210.312 371.337 209.955C371.337 209.598 370.399 206.326 370.399 206.326L368.975 200.028L369.615 180.695Z" fill="black"/>
<path d="M385.693 190.202C385.693 190.426 385.693 190.573 385.693 190.573L380.872 197.369C380.872 197.369 380.938 199.993 380.742 200.577C380.63 200.927 380.875 204.402 381.092 207.264C381.256 209.329 381.407 211.071 381.407 211.071L381.834 218.297L382.411 228.095C381.896 228.547 381.355 228.968 380.791 229.358C380.501 229.487 380.21 223.332 380.21 223.105C380.21 222.877 372.726 211.908 372.726 211.908C372.726 211.908 371.721 210.287 371.721 209.931C371.721 209.574 370.784 206.302 370.784 206.302L369.359 200.004L370.007 180.699L370.556 176.423C370.556 176.423 371.368 177.823 371.788 178.137L373.187 179.208C373.187 179.208 374.587 179.856 375.066 179.856C375.546 179.856 378.177 180.555 378.499 180.905C378.821 181.255 380.119 181.003 380.119 181.003C380.119 181.003 381.19 181.353 382.128 181.588C383.066 181.822 383.527 183.369 383.324 183.985C383.247 184.291 383.248 184.612 383.327 184.918C383.407 185.224 383.562 185.504 383.779 185.734C384.168 186.123 384.364 187.386 384.364 187.386C384.839 187.541 385.234 187.878 385.462 188.323C385.653 188.931 385.731 189.567 385.693 190.202Z" fill="#65617D"/>
<path opacity="0.1" d="M346.1 276.509C346.261 276.509 353.063 276.767 352.934 277.87C352.804 278.972 346.1 276.509 346.1 276.509Z" fill="black"/>
<path opacity="0.1" d="M347.625 278.342C347.625 278.342 352.192 279.087 350.995 279.766C349.798 280.445 347.625 278.342 347.625 278.342Z" fill="black"/>
<path opacity="0.1" d="M364.594 275.798C364.594 275.798 372.173 276.446 371.039 277.285C369.906 278.125 367.218 278.258 367.089 278.29C366.959 278.321 364.594 275.798 364.594 275.798Z" fill="black"/>
<path opacity="0.1" d="M363.691 279.133C363.691 279.133 367.89 279.833 368.03 280.655C368.17 281.477 363.691 279.133 363.691 279.133Z" fill="black"/>
<path opacity="0.1" d="M366.021 259.632C366.021 259.632 369.871 260.539 370.105 261.154L366.021 259.632Z" fill="black"/>
<path opacity="0.1" d="M351.162 262.418C351.162 262.418 349.153 263.002 351.099 264.167C353.044 265.332 351.162 262.418 351.162 262.418Z" fill="black"/>
<path opacity="0.1" d="M360.062 231.289C360.29 231.289 363.821 230.124 365.052 230.642C365.933 230.971 366.863 231.146 367.803 231.16L360.062 231.289Z" fill="black"/>
<path opacity="0.1" d="M360.516 234.981L360.481 235.303L357.462 243.211C357.462 243.211 356.975 245.608 356.555 246.969C356.29 247.889 356.079 248.824 355.922 249.768L358.595 233.193L360.516 234.981Z" fill="black"/>
<path d="M365.22 221.026L363.964 221.047H363.926L363.188 217.783L364.279 217.723L365.22 221.026Z" fill="#3F3D56"/>
<path d="M380.499 217.072L379.694 217.737L377 219.952C377 219.952 369.714 223.84 367.706 220.148C365.935 216.894 374.197 214.57 376.188 214.063L376.611 213.962L380.499 217.072Z" fill="#FBBEBE"/>
<path opacity="0.1" d="M349.375 185.23C349.375 185.23 350.799 185.878 351.124 186.784C351.45 187.69 349.375 185.23 349.375 185.23Z" fill="black"/>
<path opacity="0.1" d="M344.963 194.947C344.963 194.947 342.892 197.474 343.732 198.446C344.571 199.419 344.963 194.947 344.963 194.947Z" fill="black"/>
<path opacity="0.1" d="M382.024 186.665C382.024 186.665 380.082 186.861 380.016 188.544L382.024 186.665Z" fill="black"/>
<path opacity="0.1" d="M364.016 213.216C364.212 213.02 368.68 206.414 369.719 206.998L364.016 213.216Z" fill="black"/>
<path opacity="0.1" d="M372.372 170.264C372.372 171.534 372.059 172.784 371.459 173.903H371.403C370.913 173.798 370.657 173.232 370.287 172.875C370.057 172.656 369.765 172.515 369.451 172.471C369.137 172.427 368.818 172.482 368.537 172.63C368.253 172.799 368.022 173.045 367.87 173.338C367.718 173.632 367.651 173.962 367.676 174.292C367.431 173.242 367.508 172.15 367.267 171.111C367.025 170.072 366.301 169.012 365.307 169.012C364.88 169.012 364.38 169.169 364.072 168.847C363.887 168.655 363.848 168.35 363.722 168.116C363.022 166.965 360.853 167.546 359.971 168.137C359.089 168.728 358.064 169.666 356.969 170.17C356.984 168.125 357.81 166.171 359.266 164.736C360.722 163.3 362.689 162.502 364.733 162.517C366.778 162.532 368.733 163.359 370.168 164.815C371.603 166.271 372.401 168.237 372.386 170.282L372.372 170.264Z" fill="black"/>
<path d="M363.708 167.902C363.848 168.137 363.886 168.441 364.058 168.637C364.365 168.956 364.866 168.791 365.293 168.798C366.287 168.816 367.014 169.869 367.252 170.898C367.49 171.926 367.417 173.039 367.665 174.075C367.637 173.746 367.702 173.415 367.854 173.122C368.006 172.828 368.238 172.584 368.522 172.416C368.803 172.27 369.122 172.214 369.436 172.257C369.749 172.301 370.042 172.441 370.272 172.658C370.643 173.008 370.898 173.585 371.388 173.687C371.878 173.788 372.347 173.319 372.522 172.805C372.648 172.273 372.741 171.735 372.802 171.192C373.022 170.184 373.684 169.355 374.048 168.392C374.482 167.223 374.471 165.935 374.016 164.774C373.771 164.165 373.411 163.619 373.166 163.025C372.791 162.104 372.693 161.062 372.238 160.183C371.873 159.472 371.267 158.914 370.527 158.61C369.788 158.306 368.964 158.276 368.204 158.525C367.504 158.791 366.888 159.301 366.175 159.532C365.216 159.84 364.194 159.609 363.204 159.469C362.214 159.329 361.104 159.319 360.321 159.97C359.404 160.722 359.152 162.132 358.291 162.955C357.941 163.305 357.479 163.521 357.098 163.84C356.892 163.992 356.724 164.19 356.608 164.419C356.492 164.647 356.431 164.899 356.43 165.156C356.489 165.827 357.129 166.436 356.902 167.059C356.818 167.238 356.699 167.399 356.552 167.532C355.831 168.289 355.294 169.202 354.984 170.201C356.734 170.74 358.595 168.83 359.95 167.927C360.838 167.336 362.997 166.755 363.708 167.902Z" fill="#7C5C5C"/>
<path opacity="0.1" d="M380.499 217.072L379.695 217.737C378.995 216.551 376.062 214.185 376.062 214.185L376.188 214.063L376.612 213.962L380.499 217.072Z" fill="black"/>
<path d="M381.278 215.872C381.278 215.872 380.991 216.593 380.69 217.216C380.389 217.839 380.063 218.405 380.049 217.947C380.014 217.037 376.26 213.993 376.26 213.993L376.767 213.496L377.358 212.922L381.278 215.872Z" fill="#FF0000"/>
<path opacity="0.1" d="M381.403 211.078L381.83 218.304C380.822 216.74 378.061 212.73 376.287 212.859L380.595 207.905C380.774 207.705 380.938 207.494 381.088 207.271C381.252 209.336 381.403 211.078 381.403 211.078Z" fill="black"/>
<path opacity="0.1" d="M381.276 215.872C381.276 215.872 380.989 216.593 380.688 217.216C379.558 215.669 378.008 213.839 376.766 213.496L377.357 212.922L381.276 215.872Z" fill="black"/>
<path d="M384.518 189.667L385.684 190.573C385.684 190.573 387.629 190.608 387.821 192.225C388.014 193.842 389.798 194.59 389.798 194.59C389.798 194.59 391.125 195.92 391.125 196.536C391.125 197.152 392.129 198.25 392.129 198.348C392.129 198.446 393.102 200.42 392.972 200.777C392.843 201.134 394.022 202.687 393.651 203.272C393.36 203.796 393.1 204.337 392.874 204.892C392.874 204.892 391.352 207.807 390.575 208.356C389.798 208.905 386.236 213.542 386.236 213.542C386.236 213.542 382.412 217.944 382.412 219.305C382.412 219.305 378.689 213.087 376.484 213.248L380.792 208.293C380.792 208.293 381.537 207.481 381.572 206.998C381.607 206.515 383.644 204.276 384.616 204.178C384.616 204.178 384.777 202.852 384.357 202.817C383.937 202.782 383.581 201.767 383.581 201.767C383.581 201.767 380.729 198.397 380.697 196.259C380.666 194.121 384.518 189.667 384.518 189.667Z" fill="#65617D"/>
<path opacity="0.1" d="M386.236 192.743C386.236 192.743 383.514 194.751 384.098 195.402C384.682 196.053 386.236 192.743 386.236 192.743Z" fill="black"/>
<path opacity="0.1" d="M386.365 201.036C386.365 201.036 391.418 199.416 391.936 201.036H386.365Z" fill="black"/>
<path opacity="0.1" d="M355.077 287.09C355.077 287.09 352.355 288.874 350.994 288.612C350.051 288.493 349.094 288.651 348.24 289.067C347.304 290.092 346.123 290.861 344.807 291.303C342.603 292.048 339.527 291.754 337.777 291.173C336.951 290.897 336.885 290.54 337.284 290.103C339.184 290.481 343.435 291.233 344.58 290.687C345.841 290.018 347.054 289.26 348.208 288.42C348.208 288.42 351.008 288.031 351.382 288.031C351.658 288.031 353.81 287.142 355.025 286.632L355.077 287.09Z" fill="black"/>
<path opacity="0.1" d="M371.554 290.747C371.554 290.855 371.529 290.925 371.529 290.925C371.529 290.925 370.882 292.349 367.285 292.867C363.688 293.385 363.691 291.67 363.691 291.67L363.726 291.205C364.864 291.639 367.348 292.118 371.554 290.747Z" fill="black"/>
<path opacity="0.1" d="M350.713 192.354C350.713 192.354 350.713 199.741 350.083 200.469C349.453 201.197 350.713 192.354 350.713 192.354Z" fill="black"/>
<path opacity="0.1" d="M379.916 194.737L380.857 197.376C380.857 197.376 381.228 194.786 379.916 194.737Z" fill="black"/>
<g opacity="0.1">
<path opacity="0.1" d="M357.015 166.422C357.253 165.817 356.63 165.219 356.55 164.568C356.466 164.751 356.43 164.952 356.445 165.152C356.487 165.645 356.851 166.104 356.945 166.552C356.972 166.511 356.996 166.468 357.015 166.422Z" fill="black"/>
<path opacity="0.1" d="M367.765 173.4C367.534 172.378 367.604 171.3 367.366 170.275C367.128 169.25 366.401 168.175 365.407 168.175C364.98 168.175 364.48 168.329 364.172 168.011C363.983 167.818 363.948 167.514 363.822 167.276C363.122 166.128 360.952 166.713 360.067 167.301C358.744 168.179 356.918 170.023 355.224 169.603C355.144 169.799 355.067 169.998 355.004 170.205C356.753 170.744 358.615 168.833 359.969 167.93C360.854 167.343 363.013 166.762 363.724 167.909C363.864 168.144 363.902 168.448 364.074 168.644C364.382 168.963 364.882 168.798 365.309 168.805C366.303 168.823 367.03 169.876 367.268 170.905C367.506 171.933 367.433 173.046 367.681 174.082C367.664 173.851 367.692 173.619 367.765 173.4Z" fill="black"/>
<path opacity="0.1" d="M372.636 172.185C372.461 172.7 371.999 173.172 371.499 173.067C370.999 172.962 370.757 172.395 370.386 172.038C370.156 171.821 369.864 171.681 369.551 171.637C369.237 171.593 368.918 171.648 368.637 171.793C368.367 171.955 368.144 172.186 367.993 172.462C367.842 172.738 367.767 173.05 367.776 173.365C367.906 172.969 368.178 172.635 368.539 172.427C368.819 172.28 369.139 172.225 369.452 172.268C369.766 172.311 370.058 172.451 370.288 172.668C370.659 173.018 370.915 173.596 371.405 173.697C371.894 173.799 372.363 173.33 372.538 172.815C372.633 172.513 372.693 172.201 372.717 171.884C372.697 171.986 372.67 172.087 372.636 172.185Z" fill="black"/>
<path opacity="0.1" d="M374.162 167.769C373.812 168.728 373.137 169.558 372.917 170.569C372.875 170.772 372.847 170.982 372.822 171.192C373.046 170.184 373.701 169.358 374.064 168.392C374.227 167.961 374.327 167.508 374.362 167.049C374.314 167.294 374.247 167.535 374.162 167.769Z" fill="black"/>
</g>
<path d="M327.35 191.224C327.394 191.224 327.43 191.188 327.43 191.144C327.43 191.099 327.394 191.063 327.35 191.063C327.306 191.063 327.27 191.099 327.27 191.144C327.27 191.188 327.306 191.224 327.35 191.224Z" fill="#E6E8EC"/>
<path d="M358.204 192.949H299.432C298.155 192.949 297.119 193.985 297.119 195.262V263.495C297.119 264.773 298.155 265.808 299.432 265.808H358.204C359.481 265.808 360.516 264.773 360.516 263.495V195.262C360.516 193.985 359.481 192.949 358.204 192.949Z" fill="white"/>
<path opacity="0.1" d="M358.204 192.949H299.432C298.155 192.949 297.119 193.985 297.119 195.262V263.495C297.119 264.773 298.155 265.808 299.432 265.808H358.204C359.481 265.808 360.516 264.773 360.516 263.495V195.262C360.516 193.985 359.481 192.949 358.204 192.949Z" fill="#5A5773"/>
<path d="M354.971 196.665H302.666C301.389 196.665 300.354 197.701 300.354 198.978V259.779C300.354 261.057 301.389 262.092 302.666 262.092H354.971C356.249 262.092 357.284 261.057 357.284 259.779V198.978C357.284 197.701 356.249 196.665 354.971 196.665Z" fill="white"/>
<path d="M345.582 209.787H310.745C309.579 209.787 308.635 210.732 308.635 211.897V221.156C308.635 222.321 309.579 223.266 310.745 223.266H345.582C346.747 223.266 347.692 222.321 347.692 221.156V211.897C347.692 210.732 346.747 209.787 345.582 209.787Z" fill="#DBA834"/>
<path d="M346.258 228.196H310.066V230.946H346.258V228.196Z" fill="#DBA834"/>
<path d="M353.716 234.001H303.916V236.751H353.716V234.001Z" fill="#DBA834"/>
<path d="M353.716 240.111H303.916V242.861H353.716V240.111Z" fill="#DBA834"/>
<path d="M353.716 246.22H303.916V248.97H353.716V246.22Z" fill="#DBA834"/>
<path d="M146.964 168.865H2.31293C1.03553 168.865 0 169.9 0 171.178V239.411C0 240.688 1.03553 241.724 2.31293 241.724H146.964C148.241 241.724 149.277 240.688 149.277 239.411V171.178C149.277 169.9 148.241 168.865 146.964 168.865Z" fill="white"/>
<path opacity="0.1" d="M146.964 168.865H2.31293C1.03553 168.865 0 169.9 0 171.178V239.411C0 240.688 1.03553 241.724 2.31293 241.724H146.964C148.241 241.724 149.277 240.688 149.277 239.411V171.178C149.277 169.9 148.241 168.865 146.964 168.865Z" fill="#5A5773"/>
<path d="M139.347 172.581H9.92816C8.65077 172.581 7.61523 173.616 7.61523 174.894V235.695C7.61523 236.972 8.65077 238.008 9.92816 238.008H139.347C140.625 238.008 141.66 236.972 141.66 235.695V174.894C141.66 173.616 140.625 172.581 139.347 172.581Z" fill="white"/>
<path d="M116.972 185.706H29.2311C28.0658 185.706 27.1211 186.651 27.1211 187.816V197.075C27.1211 198.24 28.0658 199.185 29.2311 199.185H116.972C118.137 199.185 119.082 198.24 119.082 197.075V187.816C119.082 186.651 118.137 185.706 116.972 185.706Z" fill="#DBA834"/>
<path d="M115.709 204.111H30.4941V206.862H115.709V204.111Z" fill="#DBA834"/>
<path d="M133.266 209.917H16.0098V212.667H133.266V209.917Z" fill="#DBA834"/>
<path d="M133.266 216.026H16.0098V218.776H133.266V216.026Z" fill="#DBA834"/>
<path d="M133.266 222.135H16.0098V224.886H133.266V222.135Z" fill="#DBA834"/>
<path d="M36.4836 294.151C36.9 292.633 37.1834 291.296 37.1834 291.296C37.1912 290.281 37.4586 289.285 37.9602 288.402V287.982L38.0792 284.9C37.8942 284.332 37.66 283.782 37.3794 283.255C36.8615 282.265 37.5543 278.734 37.5543 278.734C37.5543 278.734 39.8043 273.811 39.4264 270.616C39.0484 267.421 44.1922 256.679 44.1922 256.679C44.2059 255.62 44.0979 254.564 43.8703 253.53C43.8289 253.314 43.8171 253.094 43.8353 252.875C43.8335 252.849 43.8335 252.822 43.8353 252.795V252.819C43.9857 250.72 45.7913 246.871 45.7913 246.871L45.8578 239.383C45.8578 239.383 44.969 234.932 46.9075 229.078C47.5898 227.034 48.0377 225.397 48.3316 224.13C48.3666 223.987 48.3981 223.85 48.4261 223.717C44.899 223.038 42.2047 222.485 42.2047 222.485C42.2047 222.485 44.5946 213.955 46.0537 212.502C47.5129 211.05 48.7935 206.354 48.7935 206.354C48.7935 206.354 49.7523 200.301 48.6536 198.481C47.5548 196.662 47.5058 193.583 47.5058 193.583C47.5058 193.583 44.9095 191.543 44.6086 190.671C44.3076 189.8 43.8283 187.837 43.8668 186.822C43.9052 185.808 44.2762 184.898 44.1852 184.355C44.0942 183.813 45.0635 181.805 44.6541 180.818C44.5522 180.515 44.5048 180.196 44.5141 179.876C44.5141 179.876 44.5141 179.877 44.5141 179.849C44.5432 179.001 44.6545 178.159 44.8465 177.333C45.642 176.711 46.5603 176.265 47.5408 176.024L47.6073 175.793L47.7823 175.195C47.8683 175.141 47.9571 175.092 48.0482 175.048L48.0657 174.827L48.1217 173.956L47.7858 171.968C47.086 168.518 51.6768 168.186 51.6768 168.186C51.9723 167.672 52.4471 167.286 53.01 167.101C53.9408 166.814 52.968 172.248 52.5236 172.581C52.1737 172.829 51.124 174.505 50.6166 175.328L50.5326 175.464C50.6063 175.534 50.6741 175.61 50.7355 175.692L50.5151 176.871L50.4801 177.049C50.769 177.437 50.9989 177.865 51.1624 178.319C51.1624 178.319 50.2912 179.201 50.4206 180.23C50.4584 181.03 50.3395 181.83 50.0707 182.585C50.1197 182.532 50.7321 181.92 51.3129 182.095C51.8938 182.27 53.5104 182.826 53.5104 182.826C53.5104 182.826 54.7246 183.089 54.6021 183.355C54.4796 183.621 55.3824 184.838 55.3824 184.838L58.7871 181.854C58.8256 181.759 58.8605 181.668 58.8955 181.574C59.0524 181.134 59.1695 180.68 59.2454 180.219C58.8865 180.121 58.5356 179.996 58.1957 179.845C57.8544 179.714 57.5496 179.503 57.3069 179.229C56.992 178.823 56.957 178.284 56.8345 177.791C56.6106 176.825 56.0857 175.95 55.7183 175.023C55.102 173.467 54.9394 171.769 55.2494 170.124C55.3242 169.621 55.5159 169.141 55.8093 168.725C56.3762 168.007 57.3594 167.745 58.0907 167.185C58.8221 166.625 59.3119 165.74 60.1517 165.331C60.9145 164.96 61.8208 165.044 62.6571 165.212C64.2811 165.543 65.8295 166.173 67.2235 167.07C67.6924 167.374 68.2067 167.724 68.7631 167.644C69.2248 167.521 69.6316 167.246 69.9178 166.863C69.9163 166.847 69.9163 166.831 69.9178 166.814L69.9563 166.776C70.2742 167.561 70.4151 168.407 70.3692 169.253C70.3692 169.383 70.3692 169.516 70.3412 169.645C70.3412 169.691 70.3412 169.736 70.3412 169.781C70.3377 169.82 70.3377 169.859 70.3412 169.897C70.3396 169.955 70.3466 170.013 70.3622 170.068C70.4236 170.241 70.5229 170.398 70.6526 170.527C70.7477 170.644 70.832 170.769 70.9046 170.901C70.9046 170.856 70.8801 170.81 70.8661 170.765C71.0642 171.079 71.1686 171.443 71.167 171.814C71.1751 172.085 71.0757 172.348 70.8906 172.546C70.7214 172.703 70.5361 172.841 70.3377 172.959C70.5149 174.229 70.2987 175.524 69.7182 176.668C69.1376 177.812 68.2206 178.751 67.0905 179.359C67.0485 179.45 67.0065 179.544 66.968 179.639C66.4472 180.751 66.1955 181.97 66.2332 183.197C66.2332 183.285 66.2332 183.372 66.2612 183.46C66.2892 183.547 66.3417 183.554 66.3767 183.603C66.3767 183.603 71.8003 183.866 73.123 182.756C74.4457 181.647 76.2372 185.706 76.2372 185.706C76.2372 185.706 78.1688 186.157 78.5712 185.797C78.9736 185.437 81.2445 185.846 81.2445 185.846C82.2069 185.052 83.4358 184.656 84.6807 184.737C85.463 184.189 86.3196 183.755 87.2245 183.449L87.2875 183.428C87.6834 183.299 88.1034 183.262 88.5157 183.32C88.5157 183.32 91.2695 181.22 92.0918 180.062C92.9141 178.904 96.7737 174.659 96.7737 174.638L96.7982 174.428L96.8646 173.792C96.973 173.814 97.083 173.828 97.1936 173.833L97.2775 173.613C97.5141 172.998 97.8008 172.403 98.1348 171.835C98.1348 171.835 98.1663 171.027 97.9389 170.817C97.7114 170.607 98.1593 167.668 98.1593 167.668C98.1593 167.668 100.78 162.139 102.771 166.419C102.771 166.419 106.739 169.292 103.198 172.322C103.198 172.322 101.798 172.931 101.599 173.445C101.459 173.795 100.959 174.712 100.623 175.331L100.472 175.608L100.511 175.643L100.441 176.167L100.413 176.374C101.039 176.762 101.463 177.14 101.347 177.424C101.139 177.882 100.989 178.365 100.903 178.862C100.903 178.862 95.9549 184.565 95.248 187.081C95.248 187.081 82.2802 194.128 78.1023 194.506L78.6796 198.299C78.7481 199.323 78.7645 200.35 78.7286 201.375C78.6411 202.18 79.0575 205.858 79.0575 205.858C79.0575 205.858 79.5719 211.267 80.1563 212.044C80.7406 212.821 80.5062 216.047 80.5062 216.047C80.5939 217.598 80.814 219.139 81.164 220.652C81.6959 222.72 81.164 225.232 81.164 225.232C81.164 225.232 83.092 230.156 78.1583 226.677C78.1583 226.677 75.6809 226.429 72.8256 226.223C72.8256 226.314 72.8256 226.411 72.8256 226.506C72.8256 226.877 72.8081 227.276 72.7976 227.696C72.7276 230.471 72.5981 234.292 72.3602 237.178C71.9403 242.284 69.9948 252.34 69.9948 252.34L69.7988 257.421C69.882 257.902 69.9125 258.392 69.8898 258.88C69.8568 260.673 69.3143 262.419 68.3257 263.915L67.8043 267.292C67.8043 267.292 66.8071 269.489 66.7371 270.823C66.7352 270.932 66.7446 271.041 66.7651 271.148C66.7907 271.32 66.7989 271.495 66.7896 271.669C66.7896 273.209 65.7118 276.855 65.7118 276.855C65.7118 276.855 65.5124 280.568 64.949 280.76C64.4662 280.928 65.5019 282.926 65.8098 283.5C65.8213 283.466 65.8295 283.431 65.8343 283.395L65.9008 283.507C66.0038 283.812 66.05 284.133 66.0373 284.455C66.0581 284.71 66.0064 284.965 65.8881 285.192C65.7699 285.419 65.5899 285.607 65.3689 285.736C64.2877 286.341 63.6998 286.856 64.5886 287.108C64.9168 287.171 65.2414 287.252 65.5614 287.349L65.6139 287.226C65.7394 287.281 65.8425 287.376 65.9062 287.497C65.9698 287.618 65.9902 287.757 65.9638 287.891C65.9395 288.331 65.8086 288.759 65.5824 289.137C65.1514 290.092 64.6113 290.994 63.9728 291.824L63.5459 291.761C63.6036 291.925 63.6812 292.082 63.7768 292.227C63.9299 292.468 64.1388 292.668 64.3857 292.811C64.6126 292.958 64.8677 293.055 65.1345 293.098C65.436 293.12 65.7294 293.206 65.9959 293.348C66.2623 293.491 66.4957 293.689 66.6811 293.927C67.206 294.666 67.5174 295.656 66.3872 296.471L62.3597 297.689C62.3597 297.689 55.4874 298.315 55.9073 296.797C56.3272 295.278 56.6071 293.941 56.6071 293.941C56.6145 293.002 56.8396 292.077 57.2649 291.24C57.3427 291.104 57.4291 290.973 57.5239 290.848L57.2824 290.813C57.2824 290.813 56.8835 287.401 56.2257 286.74C56.0787 286.583 56.0472 286.467 56.0857 286.39C56.0262 286.205 56.2012 286.103 56.4356 286.04C56.4356 286.082 56.4671 286.128 56.4811 286.173C56.7007 286.136 56.9234 286.121 57.146 286.128C57.146 286.128 57.4364 284.361 56.7401 283.678C56.6838 283.603 56.6441 283.517 56.6236 283.425C56.6031 283.333 56.6022 283.239 56.6211 283.146C56.6225 282.903 56.6567 282.66 56.7226 282.426C56.7294 282.44 56.7376 282.454 56.7471 282.468C57.174 280.872 58.4966 278.36 58.4966 278.36C58.4966 278.36 58.6121 276.747 58.1922 276.082C57.7723 275.417 58.5876 267.313 58.5876 267.313C58.5876 267.313 58.5701 263.38 59.1405 261.571C59.7108 259.762 58.6821 257.564 58.6821 257.564C58.6821 257.564 58.6821 257.522 58.6996 257.449C58.7007 257.438 58.7007 257.428 58.6996 257.417C58.6996 257.417 58.7346 257.176 58.7906 256.801V256.84C58.9445 255.79 59.228 253.932 59.4169 253.064C59.6863 251.836 59.6373 245.905 59.6373 245.905L58.7311 243.351L56.7821 247.641L54.6826 253.379C54.6826 253.379 53.6993 254.569 53.6328 255.829C53.6328 255.892 53.6328 255.951 53.6328 256.014C53.6415 256.144 53.6415 256.273 53.6328 256.403C53.6357 257.137 53.4054 257.854 52.975 258.45C52.975 258.45 52.3696 261.175 51.5753 261.844C50.781 262.512 50.7181 263.859 50.7181 263.859C50.7181 263.859 49.6193 267.806 49.1469 268.489C48.7515 269.062 48.6676 270.683 48.6536 271.179C48.6536 271.27 48.6536 271.323 48.6536 271.323C48.6536 271.323 48.4681 272.744 48.4261 273.94C48.4261 274.087 48.4261 274.231 48.4261 274.364C48.4244 274.354 48.4244 274.345 48.4261 274.336C48.4128 274.661 48.4387 274.986 48.5031 275.305C48.5031 275.305 48.5031 275.343 48.5031 275.364V275.161C48.6693 275.981 48.734 276.818 48.6956 277.653C48.6641 279.084 48.3806 280.771 47.4744 281.733C45.9067 283.398 44.9725 283.132 44.9725 283.132C44.9725 283.132 45.6128 285.312 46.4841 285.778C46.5177 285.796 46.5493 285.817 46.5786 285.841C46.5786 285.799 46.5786 285.757 46.6031 285.718C46.6956 285.83 46.764 285.96 46.8037 286.1C46.8435 286.24 46.8538 286.386 46.834 286.53C46.862 287.478 46.2042 288.98 45.6093 289.679C45.3927 289.879 45.1292 290.021 44.843 290.092C44.8866 290.125 44.9321 290.156 44.9795 290.183C45.0765 290.241 45.177 290.292 45.2804 290.337C45.4216 290.406 45.5727 290.452 45.7283 290.474C46.0302 290.494 46.3244 290.578 46.5911 290.721C46.8578 290.864 47.0909 291.063 47.2749 291.303C47.7998 292.038 48.1112 293.028 46.981 293.843L42.9535 295.061C42.9535 295.061 36.0602 295.67 36.4836 294.151Z" fill="url(#paint2_linear)"/>
<path d="M62.5036 297.696L66.4051 296.475C67.5004 295.656 67.1994 294.666 66.6921 293.927C66.5169 293.691 66.2928 293.495 66.0349 293.353C65.777 293.211 65.4915 293.126 65.1979 293.105C64.9372 293.062 64.6889 292.963 64.4701 292.814C64.2319 292.67 64.0315 292.471 63.8858 292.234C63.6228 291.777 63.4908 291.256 63.5044 290.729C63.5044 290.729 59.3264 289.329 58.1227 290.523C57.9099 290.739 57.7296 290.986 57.5873 291.254C57.1744 292.095 56.9545 293.018 56.9435 293.955C56.9435 293.955 56.6776 295.288 56.2682 296.81C55.8588 298.333 62.5036 297.696 62.5036 297.696Z" fill="#2D293D"/>
<path d="M43.7447 295.075L47.6462 293.854C48.7414 293.035 48.4405 292.045 47.9331 291.31C47.758 291.072 47.5334 290.875 47.2749 290.733C47.0163 290.59 46.73 290.505 46.4355 290.484C46.2845 290.464 46.1379 290.419 46.0016 290.351C45.9017 290.304 45.8048 290.252 45.7112 290.194C44.6614 289.56 44.7419 288.094 44.7419 288.094C44.7419 288.094 40.564 286.695 39.3603 287.888C39.1988 288.049 39.0556 288.227 38.9334 288.42C38.4443 289.309 38.1846 290.306 38.1776 291.32C38.1776 291.32 37.9081 292.657 37.5022 294.176C37.0963 295.694 43.7447 295.075 43.7447 295.075Z" fill="#2D293D"/>
<path opacity="0.1" d="M58.1159 290.523C57.9043 290.74 57.7252 290.986 57.584 291.254L63.8824 292.23C63.6195 291.773 63.4875 291.253 63.501 290.726C63.501 290.726 59.3336 289.329 58.1159 290.523Z" fill="black"/>
<path opacity="0.1" d="M38.9303 288.434L38.8848 289.62C39.8085 291.282 44.5848 291.11 45.9985 290.351C45.8986 290.304 45.8016 290.252 45.7081 290.194C44.6583 289.56 44.7388 288.094 44.7388 288.094C44.7388 288.094 40.5608 286.695 39.3571 287.888C39.1949 288.053 39.0517 288.236 38.9303 288.434Z" fill="black"/>
<path d="M38.3721 283.297C38.6501 283.825 38.8842 284.375 39.0719 284.941L38.9005 289.189C39.9082 291.009 45.5278 290.631 46.3186 289.693C47.1094 288.756 48.0122 286.254 47.1689 285.792C46.3256 285.33 45.7063 283.146 45.7063 283.146C45.7063 283.146 46.6126 283.398 48.1347 281.747C49.6568 280.095 49.3699 276.243 49.1319 275.319C48.894 274.395 49.2894 271.337 49.2894 271.337C49.2894 271.337 49.3174 269.181 49.7758 268.499C50.2342 267.817 51.3014 263.87 51.3014 263.87C51.3014 263.87 51.3504 262.523 52.1307 261.854C52.911 261.186 53.5024 258.457 53.5024 258.457C53.9704 257.788 54.1919 256.978 54.1287 256.165C54.0202 254.814 55.1504 253.4 55.1504 253.4L57.2044 247.662L59.094 243.368L59.9653 245.933C59.9653 245.933 60.0072 251.864 59.7448 253.092C59.4824 254.321 59.045 257.592 59.045 257.592C59.045 257.592 60.0387 259.786 59.4859 261.599C58.933 263.411 58.94 267.341 58.94 267.341C58.94 267.341 58.1422 275.448 58.5481 276.11C58.954 276.771 58.8385 278.384 58.8385 278.384C58.8385 278.384 56.4521 283.034 57.124 283.71C57.7958 284.385 57.5159 286.159 57.5159 286.159C57.5159 286.159 56.0112 286.1 56.6306 286.772C57.2499 287.443 57.5823 290.827 57.5823 290.827L64.0592 291.831C64.6799 290.996 65.2034 290.094 65.6199 289.14C66.5576 287.184 65.5289 287.359 64.6716 287.111C63.8143 286.862 64.3812 286.345 65.4274 285.739C66.4736 285.134 65.9383 283.657 65.9383 283.657C65.9383 283.657 64.4791 280.959 65.0285 280.767C65.5779 280.575 65.7703 276.862 65.7703 276.862C65.7703 276.862 67.016 272.488 66.7921 271.295C66.5681 270.102 67.8103 267.292 67.8103 267.292L68.3142 263.919C69.5409 262.041 70.0491 259.783 69.7453 257.561L69.9483 252.34C69.9483 252.34 71.8518 242.301 72.2787 237.178C72.5446 233.91 72.6776 229.442 72.7371 226.653C72.7721 225.085 72.7861 224.05 72.7861 224.05L49.6323 220.732C49.5518 221.892 49.3656 223.042 49.076 224.169C48.7925 225.439 48.3551 227.076 47.6763 229.12C45.7798 234.974 46.6266 239.425 46.6266 239.425L46.5531 246.913C46.5531 246.913 44.3136 251.84 44.681 253.579C44.9005 254.614 45.0038 255.67 44.989 256.728C44.989 256.728 40.0062 267.463 40.3701 270.644C40.734 273.825 38.5471 278.765 38.5471 278.765C38.5471 278.765 37.8717 282.307 38.3721 283.297Z" fill="#575988"/>
<path opacity="0.05" d="M52.7492 255.773L45.709 254.548C45.709 254.548 49.5615 258.803 52.7492 255.773Z" fill="black"/>
<path opacity="0.1" d="M46.9935 247.686C46.9935 247.686 46.6436 250.178 48.1517 251.185C48.1377 251.178 45.4259 250.643 46.9935 247.686Z" fill="black"/>
<path opacity="0.1" d="M47.7344 239.736C47.7344 239.736 53.4624 244.834 55.6284 244.516C57.7943 244.197 47.7344 239.736 47.7344 239.736Z" fill="black"/>
<path opacity="0.1" d="M61.4336 258.397C61.4336 258.397 65.888 259.594 65.9544 261.399C66.0209 263.205 61.4336 258.397 61.4336 258.397Z" fill="black"/>
<path opacity="0.05" d="M59.5753 280.792C59.5753 280.792 65.8737 282.219 64.0472 282.957C62.2206 283.696 59.2289 284.228 59.2289 284.228C59.2289 284.228 57.1784 284.263 59.5753 280.792Z" fill="black"/>
<g opacity="0.05">
<path opacity="0.05" d="M65.28 284.291C65.4431 284.197 65.583 284.068 65.6896 283.913C65.7961 283.758 65.8666 283.581 65.8959 283.395L65.9554 283.51C65.9554 283.51 66.4942 284.984 65.4445 285.61C65.3255 285.676 65.2136 285.746 65.0946 285.813C64.9091 285.771 64.7062 285.736 64.5137 285.68C63.6599 285.417 64.2303 284.9 65.28 284.291Z" fill="black"/>
<path opacity="0.05" d="M57.1131 283.549C56.9451 283.381 56.9696 282.968 57.1131 282.44C57.3541 282.928 57.4581 283.472 57.414 284.014C57.3506 283.838 57.2476 283.679 57.1131 283.549Z" fill="black"/>
<path opacity="0.05" d="M59.1222 256.815C59.331 257.462 59.4488 258.134 59.4721 258.813C59.3692 258.341 59.2216 257.879 59.0312 257.435C59.0312 257.435 59.0697 257.193 59.1222 256.815Z" fill="black"/>
<path opacity="0.05" d="M44.698 253.432C44.6624 253.237 44.6495 253.038 44.6595 252.84C44.726 253.246 44.768 253.621 44.7925 253.95C44.7645 253.782 44.733 253.61 44.698 253.432Z" fill="black"/>
<path opacity="0.05" d="M58.5385 275.952C58.4333 275.561 58.3955 275.155 58.4265 274.752C58.6069 275.237 58.6924 275.753 58.6785 276.271C58.6445 276.159 58.5975 276.052 58.5385 275.952Z" fill="black"/>
<path opacity="0.05" d="M56.8183 286.04C57.1114 287.134 57.3161 288.249 57.4306 289.375L63.9075 290.379C64.5304 289.545 65.0552 288.642 65.4716 287.688C65.5556 287.517 65.6186 287.363 65.6746 287.223C66.056 287.415 66.1959 287.828 65.6361 288.99C65.2193 289.942 64.6957 290.843 64.0755 291.677L57.5846 290.68C57.5846 290.68 57.2347 287.272 56.6083 286.604C56.3179 286.271 56.5349 286.121 56.8183 286.04Z" fill="black"/>
<path opacity="0.05" d="M65.7877 276.715C65.7877 276.715 65.5918 280.428 65.0459 280.62C64.7975 279.994 64.6365 279.406 64.8814 279.318C65.4273 279.122 65.6267 275.413 65.6267 275.413C65.6267 275.413 66.8724 271.043 66.6485 269.846C66.4245 268.65 67.6632 265.847 67.6632 265.847L68.1706 262.47C69.3974 260.592 69.9055 258.335 69.6018 256.112L69.8012 250.891C69.8012 250.891 71.6977 240.835 72.1106 235.73C72.3731 232.461 72.506 227.993 72.569 225.204C72.569 224.7 72.59 224.253 72.597 223.875L72.7825 223.903C72.7825 223.903 72.7825 224.952 72.7335 226.502C72.674 229.302 72.541 233.763 72.2751 237.031C71.8622 242.133 69.9692 252.193 69.9692 252.193L69.7662 257.41C70.0701 259.632 69.5632 261.889 68.3386 263.768L67.8277 267.145C67.8277 267.145 66.5855 269.944 66.8095 271.148C67.0334 272.352 65.7877 276.715 65.7877 276.715Z" fill="black"/>
<path opacity="0.05" d="M46.1619 288.248C46.7187 287.503 47.1035 286.644 47.2886 285.732C47.929 286.355 47.0787 288.654 46.3264 289.546C45.5741 290.439 39.916 290.862 38.9082 289.046L38.9467 288.021C40.3463 289.518 45.4131 289.137 46.1619 288.248Z" fill="black"/>
<path opacity="0.05" d="M38.213 281.841C38.491 282.369 38.7251 282.919 38.9128 283.486L38.8813 284.238C38.7346 283.864 38.5688 283.497 38.3845 283.139C38.2303 282.71 38.1683 282.254 38.2025 281.799L38.213 281.841Z" fill="black"/>
<path opacity="0.05" d="M46.0395 283.003C45.8502 282.581 45.6889 282.148 45.5566 281.705C45.5566 281.705 46.4629 281.953 47.9815 280.288C49.0873 279.073 49.2377 276.712 49.1467 275.158C49.3847 276.085 49.6681 279.92 48.1495 281.586C47.1487 282.678 46.4174 282.947 46.0395 283.003Z" fill="black"/>
<path opacity="0.05" d="M49.2936 271.176C49.1577 272.233 49.0805 273.298 49.0627 274.364C49.0418 274.194 49.0115 274.026 48.9717 273.86C48.7373 272.932 49.1257 269.878 49.1257 269.878C49.1257 269.878 49.1572 267.722 49.6121 267.04C50.0669 266.358 51.1377 262.411 51.1377 262.411C51.1377 262.411 51.1902 261.067 51.9705 260.395C52.7508 259.723 53.3421 256.997 53.3421 256.997C53.8086 256.328 54.0299 255.519 53.9685 254.706C53.86 253.355 54.9902 251.941 54.9902 251.941L57.0442 246.203L58.9338 241.909L59.805 244.478C59.805 244.478 59.805 244.792 59.805 245.296L59.1052 243.197L57.2157 247.487L55.1617 253.229C55.1617 253.229 54.0315 254.629 54.1399 255.993C54.2031 256.807 53.9817 257.617 53.5136 258.285C53.5136 258.285 52.9222 261.011 52.1419 261.679C51.3616 262.348 51.3126 263.695 51.3126 263.695C51.3126 263.695 50.2419 267.642 49.787 268.328C49.3321 269.013 49.2936 271.176 49.2936 271.176Z" fill="black"/>
</g>
<path d="M48.5829 172.003L48.9119 173.984L48.8559 174.859L48.8139 175.503L51.0498 175.821L51.3193 175.366C51.8161 174.544 52.8449 172.868 53.1703 172.616C53.5972 172.283 54.5489 166.849 53.6462 167.136C53.0957 167.326 52.6346 167.712 52.3515 168.221C52.3515 168.221 47.9216 168.557 48.5829 172.003Z" fill="#FFCDD3"/>
<path opacity="0.1" d="M48.8184 175.503L51.0543 175.821L51.3237 175.366C51.0353 175.014 50.6344 174.771 50.1884 174.68C49.7424 174.588 49.2784 174.652 48.8743 174.862L48.8184 175.503Z" fill="black"/>
<path d="M48.209 176.545L51.1448 177.347L51.2217 176.906L51.4352 175.727C51.2814 175.506 51.0855 175.317 50.8586 175.173C50.6318 175.028 50.3785 174.929 50.1134 174.883C49.8484 174.836 49.5767 174.843 49.3141 174.902C49.0515 174.96 48.8032 175.071 48.5834 175.226L48.4154 175.825L48.209 176.545Z" fill="#DCE6F2"/>
<path d="M96.334 174.068L99.4272 175.887C99.4272 175.887 99.5567 175.639 99.7386 175.3C100.064 174.68 100.547 173.75 100.683 173.414C100.89 172.899 102.234 172.287 102.234 172.287C105.666 169.253 101.828 166.387 101.828 166.387C99.9031 162.108 97.3627 167.64 97.3627 167.64C97.3627 167.64 96.9253 170.59 97.1458 170.789C97.3662 170.989 97.3347 171.807 97.3347 171.807C97.0087 172.376 96.7301 172.971 96.5019 173.585C96.3935 173.875 96.334 174.068 96.334 174.068Z" fill="#FFCDD3"/>
<path opacity="0.1" d="M96.334 174.068L99.4272 175.887C99.4272 175.887 99.5567 175.639 99.7386 175.3C99.3048 174.911 97.7721 173.55 97.2508 173.606C97.0018 173.631 96.7509 173.631 96.5019 173.606C96.3935 173.875 96.334 174.068 96.334 174.068Z" fill="black"/>
<path d="M95.9746 175.002L99.4737 176.888L99.5717 176.125L99.6417 175.601C99.6417 175.601 97.6542 173.76 97.0453 173.802C96.7348 173.833 96.4215 173.82 96.1146 173.764L96.0516 174.4L95.9746 175.002Z" fill="#DCE6F2"/>
<path d="M56.6934 185.384C56.6934 185.384 72.114 187.729 69.2552 186.679C67.2642 185.944 66.5119 184.632 66.3999 183.204C66.3616 181.979 66.6008 180.761 67.0998 179.642C67.5048 178.68 68.0054 177.761 68.5939 176.899C68.5939 176.899 57.0048 169.932 59.1462 175.943C59.4772 176.853 59.6671 177.807 59.7096 178.774C59.7432 179.734 59.6034 180.692 59.2967 181.602C58.7939 183.078 57.893 184.387 56.6934 185.384Z" fill="#FFCDD3"/>
<path opacity="0.1" d="M59.1609 175.943C59.4918 176.853 59.6818 177.807 59.7242 178.774C60.802 179.751 62.0267 179.737 63.5978 179.796C64.805 179.845 66.1276 180.188 67.0969 179.642C67.502 178.68 68.0025 177.761 68.591 176.899C68.591 176.899 57.0194 169.932 59.1609 175.943Z" fill="black"/>
<path d="M64.0378 180.219C67.5762 180.219 70.4447 177.351 70.4447 173.813C70.4447 170.274 67.5762 167.406 64.0378 167.406C60.4993 167.406 57.6309 170.274 57.6309 173.813C57.6309 177.351 60.4993 180.219 64.0378 180.219Z" fill="#FFCDD3"/>
<path opacity="0.1" d="M56.6934 185.384C56.6934 185.384 72.114 187.728 69.2552 186.679C67.2642 185.944 66.5119 184.632 66.3999 183.204C65.6616 182.34 64.136 181.679 63.1527 181.318C62.2575 180.981 61.2803 180.927 60.3534 181.164C59.9838 181.257 59.63 181.405 59.3037 181.602C58.7989 183.079 57.8955 184.388 56.6934 185.384Z" fill="black"/>
<path opacity="0.1" d="M48.209 176.545L51.1448 177.347L51.2217 176.906C50.9227 176.46 50.4936 176.117 49.9927 175.923C49.4919 175.73 48.9436 175.695 48.4224 175.824L48.209 176.545Z" fill="black"/>
<path opacity="0.1" d="M95.9746 175.002L99.4737 176.888L99.5717 176.125C98.4375 175.47 97.2562 174.899 96.0376 174.418L95.9746 175.002Z" fill="black"/>
<path opacity="0.1" d="M49.0625 224.169C55.011 225.348 63.5139 226.908 64.8821 226.548C66.0193 226.251 69.6059 226.425 72.7236 226.653C72.7586 225.085 72.7726 224.05 72.7726 224.05L49.6189 220.732C49.5383 221.892 49.3521 223.042 49.0625 224.169Z" fill="black"/>
<path d="M43.1406 222.531C43.1406 222.531 62.7567 226.681 64.9017 226.117C67.0467 225.554 77.901 226.67 77.901 226.67C82.6703 230.141 80.8122 225.222 80.8122 225.222C80.8122 225.222 81.3406 222.709 80.8122 220.641C80.4738 219.127 80.262 217.586 80.1789 216.036C80.1789 216.036 80.4133 212.81 79.85 212.037C79.2866 211.264 78.8002 205.85 78.8002 205.85C78.8002 205.85 78.4048 202.173 78.4888 201.368C78.5728 200.563 78.4468 198.292 78.4468 198.292L77.8905 194.499C81.946 194.118 94.5043 187.057 94.5043 187.057C95.2042 184.551 99.9945 178.806 99.9945 178.806C100.08 178.31 100.226 177.828 100.428 177.368C100.778 176.521 96.009 174.614 96.009 174.614C96.009 174.614 92.2264 178.886 91.4426 180.041C90.6588 181.196 87.975 183.302 87.975 183.302C87.5753 183.246 87.1682 183.284 86.7853 183.411H86.7223C85.8478 183.72 85.0228 184.155 84.2729 184.702C83.0607 184.626 81.8665 185.024 80.9417 185.811C80.9417 185.811 78.7478 185.405 78.3594 185.765C77.971 186.126 76.0989 185.678 76.0989 185.678C76.0989 185.678 74.3494 181.626 73.0862 182.735C71.823 183.844 66.5533 183.589 66.5533 183.589C65.892 182.63 64.2124 181.899 63.1626 181.514C62.2678 181.175 61.29 181.121 60.3633 181.36C59.9613 181.459 59.579 181.626 59.2331 181.853L55.9299 184.849C55.9299 184.849 55.0587 183.631 55.1776 183.365C55.2966 183.099 54.1279 182.84 54.1279 182.84C54.1279 182.84 52.5848 182.294 52.0004 182.112C51.4161 181.93 50.8457 182.546 50.7967 182.602C51.0639 181.847 51.1827 181.047 51.1466 180.247C51.0242 179.219 51.864 178.333 51.864 178.333C50.1599 173.634 45.7615 177.347 45.7615 177.347C45.7615 177.347 45.1771 179.855 45.5725 180.846C45.9679 181.836 45.0267 183.841 45.1106 184.383C45.1946 184.926 44.8412 185.828 44.8027 186.85C44.7642 187.872 45.2261 189.831 45.5025 190.699C45.779 191.567 48.3018 193.61 48.3018 193.61C48.3018 193.61 48.3473 196.683 49.4076 198.509C50.4678 200.336 49.537 206.382 49.537 206.382C49.537 206.382 48.2773 211.075 46.8742 212.53C45.471 213.986 43.1406 222.531 43.1406 222.531Z" fill="#656691"/>
<path opacity="0.1" d="M73.291 188.232C73.291 188.232 73.9523 186.483 74.4947 186.339C75.0384 186.163 75.5692 185.949 76.0833 185.699L75.7614 185.024C75.7614 185.024 73.7179 185.503 73.375 186.073C73.0321 186.644 73.291 188.232 73.291 188.232Z" fill="black"/>
<path opacity="0.1" d="M84.2598 184.723C84.3472 185.265 89.1166 185.933 89.1166 185.933L86.7896 183.411H86.7301C85.8471 183.725 85.0148 184.167 84.2598 184.723Z" fill="black"/>
<path d="M98.3933 178.298C98.631 178.298 98.8237 178.106 98.8237 177.868C98.8237 177.63 98.631 177.438 98.3933 177.438C98.1556 177.438 97.9629 177.63 97.9629 177.868C97.9629 178.106 98.1556 178.298 98.3933 178.298Z" fill="#575988"/>
<path d="M97.8093 179.138C98.047 179.138 98.2397 178.945 98.2397 178.708C98.2397 178.47 98.047 178.277 97.8093 178.277C97.5716 178.277 97.3789 178.47 97.3789 178.708C97.3789 178.945 97.5716 179.138 97.8093 179.138Z" fill="#575988"/>
<path d="M97.2429 179.911C97.4806 179.911 97.6733 179.719 97.6733 179.481C97.6733 179.243 97.4806 179.051 97.2429 179.051C97.0052 179.051 96.8125 179.243 96.8125 179.481C96.8125 179.719 97.0052 179.911 97.2429 179.911Z" fill="#575988"/>
<path d="M96.6433 180.751C96.881 180.751 97.0737 180.559 97.0737 180.321C97.0737 180.083 96.881 179.89 96.6433 179.89C96.4056 179.89 96.2129 180.083 96.2129 180.321C96.2129 180.559 96.4056 180.751 96.6433 180.751Z" fill="#575988"/>
<path d="M45.928 178.673C46.1213 178.673 46.278 178.516 46.278 178.323C46.278 178.13 46.1213 177.973 45.928 177.973C45.7348 177.973 45.5781 178.13 45.5781 178.323C45.5781 178.516 45.7348 178.673 45.928 178.673Z" fill="#575988"/>
<path d="M45.8441 179.464C46.0373 179.464 46.194 179.307 46.194 179.114C46.194 178.92 46.0373 178.764 45.8441 178.764C45.6508 178.764 45.4941 178.92 45.4941 179.114C45.4941 179.307 45.6508 179.464 45.8441 179.464Z" fill="#575988"/>
<path d="M45.762 180.254C45.9553 180.254 46.1119 180.098 46.1119 179.904C46.1119 179.711 45.9553 179.555 45.762 179.555C45.5688 179.555 45.4121 179.711 45.4121 179.904C45.4121 180.098 45.5688 180.254 45.762 180.254Z" fill="#575988"/>
<path opacity="0.1" d="M72.7007 202.813C72.7532 202.754 60.0338 217.604 50.957 208.391C50.957 208.391 65.7584 210.98 72.7007 202.813Z" fill="black"/>
<path opacity="0.1" d="M79.3634 211.047C79.3634 211.047 72.0957 210.966 71.2559 213.024L71.1719 215.197C71.3743 215.319 71.6043 215.388 71.8405 215.397C72.0766 215.406 72.3113 215.355 72.5225 215.249C73.2714 214.882 77.7433 212.821 79.2514 213.955L79.3634 211.047Z" fill="black"/>
<path d="M79.2315 211.04C79.2315 211.04 72.2857 210.963 71.4809 212.926L71.4004 214.997C71.5937 215.115 71.8137 215.181 72.0396 215.189C72.2656 215.198 72.4899 215.149 72.6916 215.046C73.3914 214.696 77.6848 212.733 79.1265 213.811L79.2315 211.04Z" fill="#656691"/>
<path opacity="0.1" d="M76.0073 195.133C75.1984 196.82 74.1918 198.404 73.0085 199.853C71.7154 201.455 70.1695 202.836 68.4316 203.94C68.4316 203.94 75.8463 196.112 76.0073 195.133Z" fill="black"/>
<path opacity="0.1" d="M78.7068 186.791C78.7068 186.791 77.3072 191.973 74.1055 193.628L78.7068 186.791Z" fill="black"/>
<path opacity="0.1" d="M80.542 187.389C80.577 187.295 81.4587 191.567 76.2695 193.712C76.2695 193.712 78.4635 193.058 80.542 187.389Z" fill="black"/>
<path opacity="0.1" d="M48.9855 182.665C49.066 182.665 46.4067 184.222 45.6719 184.961C45.6894 184.961 47.4564 182.497 48.9855 182.665Z" fill="black"/>
<path d="M65.5416 179.684C65.476 180.024 65.2848 180.326 65.0062 180.531C64.8147 180.615 64.6061 180.652 64.3974 180.639C62.4414 180.688 60.4049 180.695 58.6308 179.873C58.2988 179.741 58.0044 179.53 57.7735 179.257C57.4656 178.851 57.4236 178.316 57.3151 177.819C57.0982 176.853 56.5908 175.982 56.2374 175.055C55.6423 173.494 55.4885 171.799 55.793 170.156C55.8631 169.654 56.0488 169.175 56.3354 168.756C56.8812 168.039 57.8365 167.776 58.5433 167.213C59.2501 166.65 59.726 165.768 60.5448 165.355C61.2796 164.984 62.1579 165.065 62.9662 165.236C64.5529 165.569 66.0613 166.202 67.4101 167.101C67.8615 167.406 68.3584 167.752 68.8973 167.672C69.3592 167.543 69.7623 167.259 70.038 166.867C70.3845 167.757 70.5117 168.717 70.4089 169.666C70.3844 169.805 70.3844 169.947 70.4089 170.086C70.4687 170.257 70.5641 170.413 70.6888 170.544C71.1472 171.122 71.4167 172.017 70.9198 172.563C70.7028 172.801 70.3774 172.913 70.1675 173.169C69.7896 173.603 69.884 174.253 69.87 174.831C69.8827 175.031 69.8259 175.23 69.7091 175.394C69.6005 175.486 69.4702 175.549 69.3306 175.576C69.191 175.604 69.0467 175.595 68.9113 175.552C68.6414 175.46 68.356 175.422 68.0715 175.44C67.7679 175.527 67.5027 175.714 67.3192 175.971C66.3709 177.07 65.979 178.319 65.5416 179.684Z" fill="#2D293D"/>
<g opacity="0.1">
<path opacity="0.1" d="M57.5849 178.753C57.8146 179.028 58.1093 179.241 58.4422 179.373C60.2162 180.195 62.2527 180.184 64.2087 180.139C64.4178 180.152 64.6269 180.114 64.8176 180.027C65.0967 179.824 65.2881 179.522 65.353 179.184C65.7833 177.815 66.1822 176.57 67.1305 175.457C67.3135 175.199 67.5787 175.01 67.8828 174.922C68.1673 174.905 68.4523 174.943 68.7226 175.034C68.8579 175.078 69.0024 175.088 69.1422 175.06C69.282 175.032 69.4123 174.969 69.5204 174.876C69.6375 174.714 69.6944 174.516 69.6814 174.316C69.6814 173.739 69.6009 173.088 69.9788 172.651C70.1888 172.409 70.5142 172.301 70.7311 172.049C70.872 171.871 70.9623 171.657 70.9924 171.432C71.0226 171.207 70.9916 170.978 70.9026 170.768C71.2245 171.325 71.347 172.028 70.9271 172.486C70.7101 172.724 70.3882 172.836 70.1748 173.092C69.7969 173.526 69.8948 174.176 69.8808 174.754C69.894 174.955 69.8358 175.155 69.7164 175.317C69.6079 175.409 69.4777 175.472 69.338 175.5C69.1983 175.527 69.0539 175.519 68.9186 175.475C68.6499 175.383 68.3657 175.345 68.0823 175.363C67.7769 175.45 67.5103 175.639 67.3265 175.898C66.3817 177.007 65.9828 178.256 65.5489 179.621C65.5428 179.761 65.5077 179.898 65.4458 180.024C65.3839 180.149 65.2965 180.261 65.1893 180.351C65.082 180.441 64.9572 180.508 64.8227 180.547C64.6883 180.587 64.5471 180.598 64.4082 180.58C62.4522 180.625 60.4157 180.632 58.6381 179.81C58.3064 179.678 58.0121 179.466 57.7808 179.194C57.6653 179.034 57.5789 178.855 57.5254 178.666C57.5428 178.696 57.5627 178.726 57.5849 178.753Z" fill="black"/>
<path opacity="0.1" d="M70.3978 169.904C70.311 169.803 70.2487 169.683 70.2158 169.554C70.1913 169.415 70.1913 169.273 70.2158 169.134C70.3004 168.351 70.229 167.559 70.0059 166.804L70.0409 166.765C70.3903 167.654 70.5188 168.615 70.4153 169.565C70.3993 169.677 70.3935 169.791 70.3978 169.904Z" fill="black"/>
</g>
<path opacity="0.1" d="M66.5351 183.61C66.5351 183.61 58.4871 184.362 57.8223 183.131L66.5351 183.61Z" fill="black"/>
<path opacity="0.1" d="M51.1155 179.701C51.1155 179.701 46.6681 179.537 45.6289 181.164L51.1155 179.701Z" fill="black"/>
</g>
<defs>
<linearGradient id="paint0_linear" x1="192.966" y1="240.894" x2="192.966" y2="52.5255" gradientUnits="userSpaceOnUse">
<stop stop-color="#808080" stop-opacity="0.25"/>
<stop offset="0.54" stop-color="#808080" stop-opacity="0.12"/>
<stop offset="1" stop-color="#808080" stop-opacity="0.1"/>
</linearGradient>
<linearGradient id="paint1_linear" x1="71679.6" y1="116338" x2="71679.6" y2="63758.2" gradientUnits="userSpaceOnUse">
<stop stop-color="#808080" stop-opacity="0.25"/>
<stop offset="0.54" stop-color="#808080" stop-opacity="0.12"/>
<stop offset="1" stop-color="#808080" stop-opacity="0.1"/>
</linearGradient>
<linearGradient id="paint2_linear" x1="-59946.2" y1="115186" x2="-57900.1" y2="64033.3" gradientUnits="userSpaceOnUse">
<stop stop-color="#808080" stop-opacity="0.25"/>
<stop offset="0.54" stop-color="#808080" stop-opacity="0.12"/>
<stop offset="1" stop-color="#808080" stop-opacity="0.1"/>
</linearGradient>
<clipPath id="clip0">
<rect width="400" height="301.944" fill="white"/>
</clipPath>
</defs>
</svg>
