<svg width="24" height="24" viewBox="0 0 24 24" fill="none" xmlns="http://www.w3.org/2000/svg">
<g clip-path="url(#clip0)">
<path d="M23.925 10.6178C23.874 10.4958 23.801 10.3848 23.708 10.2918L20.709 7.29274C20.318 6.90274 19.686 6.90274 19.295 7.29274C18.904 7.68373 18.904 8.31673 19.295 8.70673L20.588 9.99973H15.0019C14.449 9.99973 14.002 10.4477 14.002 10.9997C14.002 11.5517 14.449 11.9997 15.0019 11.9997H20.5879L19.2949 13.2927C18.9039 13.6837 18.9039 14.3167 19.2949 14.7067C19.4899 14.9027 19.7459 14.9997 20.0019 14.9997C20.258 14.9997 20.514 14.9027 20.709 14.7067L23.708 11.7077C23.801 11.6157 23.874 11.5047 23.925 11.3817C24.0259 11.1378 24.0259 10.8618 23.925 10.6178Z" fill="#DBA834"/>
<path d="M17.0019 14C16.4489 14 16.0019 14.448 16.0019 15V20H12.002V3.99998C12.002 3.55898 11.7119 3.16898 11.2889 3.042L7.81592 2.00002H16.0019V7.00003C16.0019 7.55203 16.4489 8.00002 17.0019 8.00002C17.5549 8.00002 18.0019 7.55203 18.0019 7.00003V1.00003C18.0019 0.447984 17.5549 0 17.0019 0H1.00194C0.965937 0 0.933922 0.015 0.898953 0.0189844C0.851937 0.024 0.808953 0.0319688 0.763953 0.0429844C0.658953 0.0699844 0.563937 0.111 0.474969 0.166969C0.452984 0.180984 0.425984 0.181969 0.404984 0.197953C0.396922 0.204 0.393922 0.215016 0.385906 0.221016C0.276922 0.306984 0.185937 0.411984 0.119937 0.537C0.105922 0.564 0.102922 0.593016 0.0919531 0.621C0.0599375 0.696984 0.0249688 0.771 0.0129687 0.855C0.00795313 0.885 0.0169531 0.912984 0.0159687 0.942C0.0149844 0.962016 0.00195312 0.980016 0.00195312 0.999984V21C0.00195312 21.477 0.338938 21.887 0.805953 21.98L10.8059 23.98C10.871 23.994 10.937 24 11.0019 24C11.2309 24 11.4559 23.9211 11.6359 23.773C11.8669 23.583 12.0019 23.3 12.0019 23V22H17.0019C17.5549 22 18.0019 21.552 18.0019 21V15C18.0019 14.448 17.5549 14 17.0019 14Z" fill="#DBA834"/>
</g>
<defs>
<clipPath id="clip0">
<rect width="24" height="24" fill="white"/>
</clipPath>
</defs>
</svg>
