<svg width="332" height="282" viewBox="0 0 332 282" fill="none" xmlns="http://www.w3.org/2000/svg">
<g clip-path="url(#clip0)">
<path d="M281.709 278.799H233.721V104.968H323.33L281.709 278.799Z" fill="url(#paint0_linear)"/>
<path d="M279.32 278.799H232.283V104.968H320.113L279.32 278.799Z" fill="#F5F5F5"/>
<path d="M192.502 -0.0153906L-0.00195312 47.9608L20.6898 113.934L213.194 65.9576L192.502 -0.0153906Z" fill="url(#paint1_linear)"/>
<path d="M191.578 1.24198L2.29102 48.4164L22.3198 112.276L211.607 65.1012L191.578 1.24198Z" fill="#F4F4F4"/>
<path d="M108.397 46.1197L60.7734 57.9884L61.7893 61.2275L109.412 49.3588L108.397 46.1197Z" fill="#F5F5F5"/>
<path d="M112.459 59.0695L64.8359 70.9382L65.8518 74.1773L113.475 62.3086L112.459 59.0695Z" fill="white"/>
<path d="M139.333 45.389L62.8027 64.4619L63.8186 67.701L140.349 48.628L139.333 45.389Z" fill="white"/>
<path d="M45.3011 78.7192C49.9828 77.5524 52.717 73.2234 51.4081 69.0501C50.0992 64.8767 45.2428 62.4394 40.561 63.6062C35.8793 64.773 33.1451 69.102 34.454 73.2754C35.7629 77.4487 40.6193 79.886 45.3011 78.7192Z" fill="white"/>
<path d="M245.15 14.7002L56.9414 77.1603L84.122 142.241L272.33 79.7805L245.15 14.7002Z" fill="url(#paint2_linear)"/>
<path d="M243.736 17.1199L59.541 78.248L85.4941 140.389L269.689 79.2612L243.736 17.1199Z" fill="#F7F7F7"/>
<path d="M165.057 68.0433L118.715 83.4226L120.031 86.5745L166.373 71.1952L165.057 68.0433Z" fill="#F5F5F5"/>
<path d="M170.322 80.6451L123.98 96.0244L125.297 99.1763L171.639 83.797L170.322 80.6451Z" fill="white"/>
<path d="M196.832 65.047L122.135 89.8395L123.455 93.001L198.152 68.2085L196.832 65.047Z" fill="white"/>
<path d="M105.243 105.238C109.798 103.726 112.117 99.2086 110.421 95.1475C108.725 91.0864 103.656 89.0199 99.1006 90.5318C94.5448 92.0438 92.2265 96.5616 93.9226 100.623C95.6187 104.684 100.687 106.75 105.243 105.238Z" fill="white"/>
<path d="M134.785 58.8886L121.043 127.656L318.257 158.971L331.999 90.2032L134.785 58.8886Z" fill="url(#paint3_linear)"/>
<path d="M329.228 91.2432L135.729 60.5184L122.684 125.799L316.184 156.524L329.228 91.2432Z" fill="#FAFAFA"/>
<path d="M183.757 91.7644L183.096 95.0756L231.779 102.806L232.44 99.4945L183.757 91.7644Z" fill="#F5F5F5"/>
<path d="M181.115 105.008L180.453 108.319L229.136 116.049L229.798 112.738L181.115 105.008Z" fill="white"/>
<path d="M182.431 98.3861L181.77 101.697L260.003 114.12L260.665 110.808L182.431 98.3861Z" fill="white"/>
<path d="M169.932 98.1061C170.784 93.8399 167.595 89.7654 162.81 89.0054C158.024 88.2455 153.453 91.0879 152.6 95.3542C151.748 99.6204 154.936 103.695 159.722 104.455C164.508 105.215 169.079 102.372 169.932 98.1061Z" fill="white"/>
<path d="M78.1807 102.923L45.7894 82.7065H0.941406V102.923V112.826V282H281.235V102.923H78.1807Z" fill="url(#paint4_linear)"/>
<path d="M79.3912 104.967L47.4961 85.3436H3.33984V104.967V114.583V278.799H279.319V104.967H79.3912Z" fill="white"/>
<path d="M216.768 237.774C216.771 238.554 216.428 239.303 215.813 239.856C215.197 240.41 214.361 240.724 213.486 240.728H69.1799C68.3056 240.724 67.4689 240.41 66.8536 239.856C66.2384 239.303 65.8948 238.554 65.8985 237.774V149.899C65.8948 149.12 66.2384 148.371 66.8536 147.817C67.4689 147.263 68.3056 146.95 69.1799 146.946H213.486C214.361 146.95 215.197 147.263 215.813 147.817C216.428 148.371 216.771 149.12 216.768 149.899" fill="url(#paint5_linear)"/>
<path d="M215.07 236.342C215.07 237.095 214.734 237.818 214.137 238.35C213.539 238.883 212.729 239.182 211.884 239.182H70.9046C70.0597 239.182 69.2493 238.883 68.6519 238.35C68.0544 237.818 67.7188 237.095 67.7188 236.342V151.396C67.7188 150.643 68.0544 149.921 68.6519 149.388C69.2493 148.855 70.0597 148.556 70.9046 148.556H211.866C212.711 148.556 213.521 148.855 214.119 149.388C214.716 149.921 215.052 150.643 215.052 151.396" fill="white"/>
<path d="M205.553 152.483H77.3579C75.1334 152.483 73.3301 154.091 73.3301 156.074V231.965C73.3301 233.948 75.1334 235.555 77.3579 235.555H205.553C207.777 235.555 209.581 233.948 209.581 231.965V156.074C209.581 154.091 207.777 152.483 205.553 152.483Z" fill="url(#paint6_linear)"/>
<path d="M203.731 154.508H79.0318C76.8072 154.508 75.0039 156.115 75.0039 158.098V229.628C75.0039 231.611 76.8072 233.218 79.0318 233.218H203.731C205.956 233.218 207.759 231.611 207.759 229.628V158.098C207.759 156.115 205.956 154.508 203.731 154.508Z" fill="white"/>
<path d="M67.6234 232.5L104.689 194.644C105.328 193.991 106.106 193.457 106.977 193.072C107.849 192.688 108.797 192.461 109.767 192.405C110.737 192.348 111.711 192.463 112.631 192.743C113.551 193.023 114.4 193.462 115.129 194.036L125.497 202.198C126.822 203.241 128.524 203.824 130.291 203.843C132.059 203.862 133.775 203.314 135.128 202.3L166.85 178.534C168.309 177.437 170.189 176.888 172.093 177C173.997 177.113 175.779 177.879 177.063 179.138L215.99 217.331C217.073 218.394 217.736 219.743 217.878 221.173L219.38 236.237C219.471 237.146 219.349 238.062 219.021 238.927C218.693 239.792 218.166 240.587 217.475 241.26C216.783 241.934 215.942 242.472 215.005 242.84C214.067 243.208 213.054 243.398 212.03 243.397H73.185C71.2672 243.397 69.4248 242.731 68.0485 241.541C66.6721 240.35 65.87 238.729 65.812 237.02C65.7556 235.364 66.4025 233.75 67.6234 232.5Z" fill="#DBA834"/>
<path d="M90.993 174.456C95.5325 174.456 99.2126 171.176 99.2126 167.129C99.2126 163.083 95.5325 159.802 90.993 159.802C86.4535 159.802 82.7734 163.083 82.7734 167.129C82.7734 171.176 86.4535 174.456 90.993 174.456Z" fill="#FF5252"/>
</g>
<defs>
<linearGradient id="paint0_linear" x1="278.528" y1="278.799" x2="278.528" y2="104.968" gradientUnits="userSpaceOnUse">
<stop stop-color="#808080" stop-opacity="0.25"/>
<stop offset="0.54" stop-color="#808080" stop-opacity="0.12"/>
<stop offset="1" stop-color="#808080" stop-opacity="0.1"/>
</linearGradient>
<linearGradient id="paint1_linear" x1="86904.5" y1="14284.7" x2="85413.7" y2="-5279.67" gradientUnits="userSpaceOnUse">
<stop stop-color="#808080" stop-opacity="0.25"/>
<stop offset="0.54" stop-color="#808080" stop-opacity="0.12"/>
<stop offset="1" stop-color="#808080" stop-opacity="0.1"/>
</linearGradient>
<linearGradient id="paint2_linear" x1="119961" y1="31504" x2="119961" y2="9671.48" gradientUnits="userSpaceOnUse">
<stop stop-color="#808080" stop-opacity="0.25"/>
<stop offset="0.54" stop-color="#808080" stop-opacity="0.12"/>
<stop offset="1" stop-color="#808080" stop-opacity="0.1"/>
</linearGradient>
<linearGradient id="paint3_linear" x1="67232.8" y1="87049.8" x2="70789.9" y2="42621.2" gradientUnits="userSpaceOnUse">
<stop stop-color="#808080" stop-opacity="0.25"/>
<stop offset="0.54" stop-color="#808080" stop-opacity="0.12"/>
<stop offset="1" stop-color="#808080" stop-opacity="0.1"/>
</linearGradient>
<linearGradient id="paint4_linear" x1="86891.9" y1="138610" x2="86891.9" y2="40710.7" gradientUnits="userSpaceOnUse">
<stop stop-color="#808080" stop-opacity="0.25"/>
<stop offset="0.54" stop-color="#808080" stop-opacity="0.12"/>
<stop offset="1" stop-color="#808080" stop-opacity="0.1"/>
</linearGradient>
<linearGradient id="paint5_linear" x1="141.331" y1="240.728" x2="141.331" y2="146.941" gradientUnits="userSpaceOnUse">
<stop stop-color="#B3B3B3" stop-opacity="0.25"/>
<stop offset="0.54" stop-color="#B3B3B3" stop-opacity="0.1"/>
<stop offset="1" stop-color="#B3B3B3" stop-opacity="0.05"/>
</linearGradient>
<linearGradient id="paint6_linear" x1="42420.1" y1="48385.6" x2="42420.1" y2="31375" gradientUnits="userSpaceOnUse">
<stop stop-color="#B3B3B3" stop-opacity="0.25"/>
<stop offset="0.54" stop-color="#B3B3B3" stop-opacity="0.1"/>
<stop offset="1" stop-color="#B3B3B3" stop-opacity="0.05"/>
</linearGradient>
<clipPath id="clip0">
<rect width="332" height="282" fill="white"/>
</clipPath>
</defs>
</svg>
