<svg width="400" height="202" viewBox="0 0 400 202" fill="none" xmlns="http://www.w3.org/2000/svg">
<g clip-path="url(#clip0)">
<path d="M378.062 65.9218C390.178 65.9218 400 56.1194 400 44.0275C400 31.9356 390.178 22.1332 378.062 22.1332C365.945 22.1332 356.123 31.9356 356.123 44.0275C356.123 56.1194 365.945 65.9218 378.062 65.9218Z" fill="#FF6584"/>
<path d="M294.498 187.752V148.037" stroke="#3F3D56" stroke-width="2" stroke-miterlimit="10"/>
<path d="M294.497 153.653C297.605 153.653 300.125 151.139 300.125 148.037C300.125 144.935 297.605 142.42 294.497 142.42C291.389 142.42 288.869 144.935 288.869 148.037C288.869 151.139 291.389 153.653 294.497 153.653Z" fill="#3F3D56"/>
<path d="M294.498 172.514C294.498 172.514 293.694 155.258 277.213 157.264L294.498 172.514Z" fill="#3F3D56"/>
<path d="M373.773 188.031V55.5586" stroke="#3F3D56" stroke-width="2" stroke-miterlimit="10"/>
<path d="M373.772 61.1123C376.88 61.1123 379.4 58.5978 379.4 55.496C379.4 52.3942 376.88 49.8796 373.772 49.8796C370.664 49.8796 368.145 52.3942 368.145 55.496C368.145 58.5978 370.664 61.1123 373.772 61.1123Z" fill="#3F3D56"/>
<path d="M356.487 156.957C359.595 156.957 362.115 154.442 362.115 151.34C362.115 148.238 359.595 145.724 356.487 145.724C353.379 145.724 350.859 148.238 350.859 151.34C350.859 154.442 353.379 156.957 356.487 156.957Z" fill="#3F3D56"/>
<path d="M373.773 84.1843C373.773 84.1843 372.969 66.9279 356.488 68.9337L373.773 84.1843Z" fill="#3F3D56"/>
<path d="M373.773 133.105C373.773 133.105 372.969 115.848 356.488 117.854L373.773 133.105Z" fill="#3F3D56"/>
<path d="M373.773 186.487C373.773 186.487 377.391 152.945 356.488 151.34" stroke="#3F3D56" stroke-width="2" stroke-miterlimit="10"/>
<path d="M391.059 156.957C394.167 156.957 396.687 154.442 396.687 151.34C396.687 148.238 394.167 145.724 391.059 145.724C387.951 145.724 385.432 148.238 385.432 151.34C385.432 154.442 387.951 156.957 391.059 156.957Z" fill="#3F3D56"/>
<path d="M373.774 186.487C373.774 186.487 370.157 152.945 391.06 151.34" stroke="#3F3D56" stroke-width="2" stroke-miterlimit="10"/>
<path d="M391.403 104.273C394.511 104.273 397.031 101.759 397.031 98.657C397.031 95.5552 394.511 93.0406 391.403 93.0406C388.295 93.0406 385.775 95.5552 385.775 98.657C385.775 101.759 388.295 104.273 391.403 104.273Z" fill="#3F3D56"/>
<path d="M374.118 132.015C374.118 132.015 370.5 100.262 391.403 98.657" stroke="#3F3D56" stroke-width="2" stroke-miterlimit="10"/>
<path d="M336.488 187.844V106.982" stroke="#3F3D56" stroke-width="2" stroke-miterlimit="10"/>
<path d="M336.489 112.598C339.597 112.598 342.117 110.084 342.117 106.982C342.117 103.88 339.597 101.365 336.489 101.365C333.381 101.365 330.861 103.88 330.861 106.982C330.861 110.084 333.381 112.598 336.489 112.598Z" fill="#3F3D56"/>
<path d="M336.488 129.855C336.488 129.855 335.684 112.598 319.203 114.604L336.488 129.855Z" fill="#3F3D56"/>
<path d="M336.488 186.3C336.488 186.3 340.106 153.116 319.203 151.511" stroke="#3F3D56" stroke-width="2" stroke-miterlimit="10"/>
<path d="M319.204 157.128C322.312 157.128 324.832 154.613 324.832 151.511C324.832 148.41 322.312 145.895 319.204 145.895C316.096 145.895 313.576 148.41 313.576 151.511C313.576 154.613 316.096 157.128 319.204 157.128Z" fill="#3F3D56"/>
<path d="M274.404 187.766H390.577" stroke="#3F3D56" stroke-width="2" stroke-miterlimit="10"/>
<path d="M231.019 0.357788H70.5547V187.545H231.019V0.357788Z" stroke="#3F3D56" stroke-width="2" stroke-miterlimit="10"/>
<path d="M70.5547 16.5197H231.019" stroke="#3F3D56" stroke-width="2" stroke-miterlimit="10"/>
<path d="M223.704 11.3058C225.249 11.3058 226.501 10.0564 226.501 8.51513C226.501 6.9739 225.249 5.72449 223.704 5.72449C222.16 5.72449 220.908 6.9739 220.908 8.51513C220.908 10.0564 222.16 11.3058 223.704 11.3058Z" fill="white" stroke="black" stroke-miterlimit="10"/>
<path d="M222.445 7.25928L224.962 9.77086" stroke="black" stroke-miterlimit="10"/>
<path d="M224.962 7.25928L222.445 9.77086" stroke="black" stroke-miterlimit="10"/>
<path d="M223.704 11.3058C225.249 11.3058 226.501 10.0564 226.501 8.51513C226.501 6.9739 225.249 5.72449 223.704 5.72449C222.16 5.72449 220.908 6.9739 220.908 8.51513C220.908 10.0564 222.16 11.3058 223.704 11.3058Z" stroke="#3F3D56" stroke-width="2" stroke-miterlimit="10"/>
<path d="M222.445 7.25928L224.962 9.77086" stroke="#3F3D56" stroke-width="2" stroke-miterlimit="10"/>
<path d="M224.962 7.25928L222.445 9.77086" stroke="#3F3D56" stroke-width="2" stroke-miterlimit="10"/>
<path d="M107.12 6.79773H82.168V10.2324H107.12V6.79773Z" fill="#3F3D56"/>
<path d="M150.571 6.79773H125.619V10.2324H150.571V6.79773Z" fill="#3F3D56"/>
<path d="M194.02 6.79773H169.068V10.2324H194.02V6.79773Z" fill="#3F3D56"/>
<path d="M194.021 41.5735H107.121V51.8774H194.021V41.5735Z" fill="#3F3D56"/>
<path d="M221.123 80.6425H80.0176V152.77H221.123V80.6425Z" fill="#FF0000"/>
<path d="M144.547 179.817C145.735 179.817 146.699 178.856 146.699 177.671C146.699 176.485 145.735 175.524 144.547 175.524C143.36 175.524 142.396 176.485 142.396 177.671C142.396 178.856 143.36 179.817 144.547 179.817Z" fill="#3F3D56"/>
<path d="M150.571 179.817C151.759 179.817 152.722 178.856 152.722 177.671C152.722 176.485 151.759 175.524 150.571 175.524C149.383 175.524 148.42 176.485 148.42 177.671C148.42 178.856 149.383 179.817 150.571 179.817Z" fill="#3F3D56"/>
<path d="M156.592 179.817C157.78 179.817 158.743 178.856 158.743 177.671C158.743 176.485 157.78 175.524 156.592 175.524C155.404 175.524 154.441 176.485 154.441 177.671C154.441 178.856 155.404 179.817 156.592 179.817Z" fill="#3F3D56"/>
<path d="M352.541 56.0664H214.447V74.5276H352.541V56.0664Z" fill="#F2F2F2"/>
<path d="M348.893 52.7361H210.799V71.1972H348.893V52.7361Z" stroke="#3F3D56" stroke-width="2" stroke-miterlimit="10"/>
<path d="M248.871 60.2493H223.92V63.6839H248.871V60.2493Z" fill="#3F3D56"/>
<path d="M292.321 60.2493H267.369V63.6839H292.321V60.2493Z" fill="#3F3D56"/>
<path d="M335.772 60.2493H310.82V63.6839H335.772V60.2493Z" fill="#3F3D56"/>
<path d="M74.4409 64.7987H48.9414V92.3971H74.4409V64.7987Z" fill="#F2F2F2"/>
<path d="M77.5893 62.7996H52.0898V90.398H77.5893V62.7996Z" stroke="#3F3D56" stroke-width="2" stroke-miterlimit="10"/>
<path d="M59.991 78.5701C60.9828 78.5701 61.7868 77.7677 61.7868 76.778C61.7868 75.7882 60.9828 74.9858 59.991 74.9858C58.9993 74.9858 58.1953 75.7882 58.1953 76.778C58.1953 77.7677 58.9993 78.5701 59.991 78.5701Z" fill="#FF0000"/>
<path d="M65.0184 78.5701C66.0102 78.5701 66.8141 77.7677 66.8141 76.778C66.8141 75.7882 66.0102 74.9858 65.0184 74.9858C64.0266 74.9858 63.2227 75.7882 63.2227 76.778C63.2227 77.7677 64.0266 78.5701 65.0184 78.5701Z" fill="#FF0000"/>
<path d="M70.0457 78.5701C71.0375 78.5701 71.8415 77.7677 71.8415 76.778C71.8415 75.7882 71.0375 74.9858 70.0457 74.9858C69.054 74.9858 68.25 75.7882 68.25 76.778C68.25 77.7677 69.054 78.5701 70.0457 78.5701Z" fill="#F71011"/>
<path d="M21.6556 192.262C21.6556 192.262 34.7542 199.396 34.2196 201.615C33.9296 202.818 26.887 201.02 20.2611 198.728C14.6735 196.794 23.3615 197.65 22.6661 196.517C21.1462 194.04 21.6556 192.262 21.6556 192.262Z" fill="#2F2E41"/>
<path d="M53.1416 190.176C53.1416 190.176 67.5482 194.056 67.5482 196.338C67.5482 198.62 42.8511 196.338 40.793 194.284C38.7349 192.23 53.1416 190.176 53.1416 190.176Z" fill="#2F2E41"/>
<path d="M28.4453 89.7615L34.6196 100.031C34.6196 100.031 44.9101 126.732 46.9682 143.164C49.0263 159.595 61.3748 188.35 57.2586 192.458C53.1424 196.566 32.5615 196.794 32.5615 192.458V108.247L28.4453 89.7615Z" fill="#2F2E41"/>
<path opacity="0.1" d="M28.4453 89.7615L34.6196 100.031C34.6196 100.031 44.9101 126.732 46.9682 143.164C49.0263 159.595 61.3748 188.35 57.2586 192.458C53.1424 196.566 32.5615 196.794 32.5615 192.458V108.247L28.4453 89.7615Z" fill="black"/>
<path d="M11.9805 81.5459V89.7616C11.9805 91.8156 24.329 91.8156 24.329 91.8156V83.5998L11.9805 81.5459Z" fill="#A0616A"/>
<path d="M18.1554 85.6537L12.0955 87.5935C12.0955 87.5935 5.80686 99.5747 7.86495 105.965C9.92305 112.355 16.0973 147.272 16.0973 147.272V169.865C16.0973 169.865 3.74877 190.404 9.92304 194.512C16.0973 198.62 28.4459 202.956 30.504 200.674C32.5621 198.392 34.6202 112.355 34.6202 112.355V100.031L32.5621 83.5997L18.1554 85.6537Z" fill="#2F2E41"/>
<path d="M28.8547 41.6171C35.5118 41.6171 40.9085 36.2313 40.9085 29.5876C40.9085 22.9439 35.5118 17.5581 28.8547 17.5581C22.1975 17.5581 16.8008 22.9439 16.8008 29.5876C16.8008 36.2313 22.1975 41.6171 28.8547 41.6171Z" fill="#2F2E41"/>
<path d="M15.7961 25.7783C22.4532 25.7783 27.8499 20.3925 27.8499 13.7487C27.8499 7.10503 22.4532 1.71924 15.7961 1.71924C9.13889 1.71924 3.74219 7.10503 3.74219 13.7487C3.74219 20.3925 9.13889 25.7783 15.7961 25.7783Z" fill="#2F2E41"/>
<path d="M5.39856 23.71C6.9587 24.8354 8.76621 25.5714 10.6699 25.8567C12.5735 26.142 14.5179 25.9681 16.3404 25.3497C18.1629 24.7312 19.8105 23.6862 21.1454 22.302C22.4802 20.9178 23.4635 19.2347 24.0129 17.3935C23.805 19.0435 23.2566 20.6326 22.4023 22.0604C21.5479 23.4882 20.4063 24.7237 19.0493 25.6889C17.6924 26.6542 16.1497 27.3282 14.5185 27.6684C12.8874 28.0085 11.2033 28.0076 9.57263 27.6654C7.94192 27.3233 6.39999 26.6475 5.0442 25.6806C3.68841 24.7138 2.5482 23.4769 1.69557 22.0481C0.842941 20.6193 0.296402 19.0296 0.0904613 17.3794C-0.115479 15.7291 0.0236525 14.0542 0.499072 12.4603C0.229056 14.6017 0.541463 16.7761 1.40352 18.7555C2.26558 20.7348 3.64551 22.4462 5.39856 23.71Z" fill="#2F2E41"/>
<path d="M33.0733 34.3994C37.4005 34.3994 40.9083 31.6616 40.9083 28.2844C40.9083 24.9072 37.4005 22.1694 33.0733 22.1694C28.7461 22.1694 25.2383 24.9072 25.2383 28.2844C25.2383 31.6616 28.7461 34.3994 33.0733 34.3994Z" fill="#2F2E41"/>
<path d="M30.6175 42.2928C36.2376 42.2928 40.7937 37.746 40.7937 32.1372C40.7937 26.5285 36.2376 21.9817 30.6175 21.9817C24.9974 21.9817 20.4414 26.5285 20.4414 32.1372C20.4414 37.746 24.9974 42.2928 30.6175 42.2928Z" fill="#A0616A"/>
<path d="M24.3298 38.4132C24.3298 38.4132 26.3879 42.5211 22.2717 44.575C18.1555 46.6289 30.5041 54.8447 30.5041 54.8447L34.6202 40.4671L24.3298 38.4132Z" fill="#A0616A"/>
<path d="M26.3861 46.629C26.3861 46.629 22.2699 40.4672 20.2118 44.575C18.1537 48.6829 7.86328 61.0065 7.86328 73.3301C7.86328 85.6537 7.86328 85.6537 9.92137 85.6537C11.9795 85.6537 18.1537 83.5998 20.2118 85.6537C22.2699 87.7076 30.5023 85.6537 30.5023 85.6537L32.5604 67.1683C32.5604 67.1683 34.6185 56.8986 32.5604 54.8447C30.5023 52.7908 26.3861 46.629 26.3861 46.629Z" fill="#DBA834"/>
<path d="M16.0957 54.8447C16.0957 54.8447 9.92141 85.6537 16.0957 87.7076C22.27 89.7615 40.7928 97.749 40.7928 95.6951C40.7928 93.6412 42.8509 91.5872 42.8509 91.5872C42.8509 91.5872 44.909 93.6412 44.909 91.5872V87.7076L24.3281 79.4919V58.9525C24.3281 58.9525 28.4443 48.6829 24.3281 48.6829C20.2119 48.6829 16.0957 54.8447 16.0957 54.8447Z" fill="#DBA834"/>
<path d="M42.8516 87.7076C42.8516 87.7076 57.0295 87.7076 57.2582 91.8155C57.4869 95.9234 42.8516 91.5873 42.8516 91.5873V87.7076Z" fill="#A0616A"/>
<path d="M30.9058 30.3025C35.7844 28.7687 39.0472 25.3327 38.1934 22.6278C37.3396 19.923 32.6925 18.9736 27.8139 20.5073C22.9354 22.0411 19.6726 25.4771 20.5264 28.182C21.3802 30.8868 26.0272 31.8362 30.9058 30.3025Z" fill="#2F2E41"/>
</g>
<defs>
<clipPath id="clip0">
<rect width="400" height="202" fill="white"/>
</clipPath>
</defs>
</svg>
