<svg width="303" height="248" viewBox="0 0 303 248" fill="none" xmlns="http://www.w3.org/2000/svg">
<g clip-path="url(#clip0)">
<g opacity="0.5">
<path opacity="0.5" d="M185.366 0.00336418L25.7207 61.5569L126.338 248.005L285.983 186.451L185.366 0.00336418Z" fill="url(#paint0_linear)"/>
</g>
<path d="M184.075 2.16019L28.4922 62.1476L126.886 244.475L282.469 184.488L184.075 2.16019Z" fill="white"/>
<path d="M142.481 12.3784L65.2988 42.1373L73.827 57.9404L151.01 28.1815L142.481 12.3784Z" fill="url(#paint1_linear)"/>
<path d="M95.5519 11.8131C89.5947 14.1109 87.02 20.1535 89.8035 25.3105C92.587 30.4675 99.6741 32.7856 105.631 30.4878C111.589 28.19 114.163 22.1474 111.38 16.9904C108.596 11.8334 101.509 9.51534 95.5519 11.8131ZM103.498 26.5376C102.245 27.0516 100.839 27.2382 99.459 27.0734C98.0795 26.9087 96.7893 26.4002 95.7533 25.6127C94.7173 24.8253 93.9824 23.7948 93.6426 22.6527C93.3028 21.5106 93.3734 20.3088 93.8454 19.2008C94.3174 18.0928 95.1695 17.1288 96.2927 16.432C97.4159 15.7352 98.7593 15.3372 100.151 15.2888C101.543 15.2405 102.921 15.5439 104.108 16.1604C105.295 16.7768 106.238 17.6784 106.816 18.7499C107.203 19.4456 107.425 20.1989 107.468 20.9669C107.511 21.7349 107.374 22.5026 107.066 23.226C106.758 23.9494 106.284 24.6145 105.672 25.1832C105.06 25.7519 104.321 26.2131 103.498 26.5404V26.5376Z" fill="url(#paint2_linear)"/>
<path d="M141.672 12.7036L66.1152 41.8356L74.2683 56.9435L149.825 27.8116L141.672 12.7036Z" fill="#FF0000"/>
<path d="M95.9221 12.5018C93.8327 13.3071 92.0728 14.618 90.8649 16.2688C89.657 17.9195 89.0554 19.836 89.1361 21.7757C89.2168 23.7155 89.9762 25.5915 91.3183 27.1664C92.6604 28.7414 94.525 29.9445 96.6761 30.6237C98.8272 31.303 101.168 31.4277 103.403 30.9823C105.638 30.5368 107.667 29.5411 109.232 28.1211C110.798 26.7011 111.83 24.9206 112.198 23.0048C112.567 21.0889 112.255 19.1238 111.301 17.3579C110.024 14.9902 107.686 13.1486 104.801 12.2379C101.917 11.3272 98.7234 11.4222 95.9221 12.5018ZM103.519 26.5809C102.314 27.0453 100.973 27.1972 99.6662 27.0175C98.359 26.8378 97.1442 26.3345 96.1754 25.5712C95.2066 24.808 94.5273 23.8191 94.2233 22.7295C93.9194 21.6399 94.0044 20.4987 94.4678 19.45C94.9311 18.4013 95.7519 17.4922 96.8264 16.8378C97.9009 16.1834 99.1808 15.8129 100.504 15.7733C101.828 15.7337 103.136 16.0267 104.262 16.6152C105.389 17.2038 106.284 18.0614 106.834 19.0798C107.57 20.4456 107.635 22.0029 107.013 23.409C106.392 24.8151 105.135 25.9551 103.519 26.578V26.5809Z" fill="#FF0000"/>
<path d="M85.0517 76.0143L51.7402 88.858L66.9352 117.015L100.247 104.171L85.0517 76.0143Z" fill="url(#paint3_linear)"/>
<path d="M115.276 131.769L81.9648 144.613L97.1598 172.769L130.471 159.926L115.276 131.769Z" fill="url(#paint4_linear)"/>
<path d="M84.3861 77.5146L53.5137 89.418L67.5961 115.513L98.4685 103.61L84.3861 77.5146Z" fill="#69F0AE"/>
<path d="M114.22 132.795L83.3477 144.698L97.43 170.793L128.302 158.89L114.22 132.795Z" fill="#FF0000"/>
<path d="M151.362 61.4239L109.045 77.7397L110.392 80.2358L152.709 63.9199L151.362 61.4239Z" fill="#E0E0E0"/>
<path d="M180.94 54.5433L111.068 81.4834L112.415 83.9794L182.287 57.0394L180.94 54.5433Z" fill="#E0E0E0"/>
<path d="M178.034 60.1842L113.084 85.2267L114.431 87.7227L179.381 62.6802L178.034 60.1842Z" fill="#E0E0E0"/>
<path d="M181.196 116.706L138.879 133.022L140.226 135.518L182.543 119.203L181.196 116.706Z" fill="#E0E0E0"/>
<path d="M210.772 109.823L140.9 136.763L142.247 139.259L212.119 112.319L210.772 109.823Z" fill="#E0E0E0"/>
<path d="M207.87 115.467L142.92 140.509L144.267 143.005L209.217 117.963L207.87 115.467Z" fill="#E0E0E0"/>
<path d="M68.1453 97.6592L76.0952 99.8413L78.7109 86.9082L82.5798 87.8024L78.2282 103.791L66.2383 99.3493L68.1453 97.6592Z" fill="url(#paint5_linear)"/>
<path d="M69.1586 97.4885L76.0711 99.3841L78.3444 88.1382L81.7065 88.9167L77.9233 102.819L67.498 98.9587L69.1586 97.4885Z" fill="white"/>
<path d="M99.1781 153.113L106.091 155.009L108.364 143.763L111.726 144.541L107.943 158.444L97.5176 154.583L99.1781 153.113Z" fill="white"/>
<path d="M231.891 154.418L133.178 192.478L148.187 220.29L246.9 182.23L231.891 154.418Z" fill="#E0E0E0"/>
<path d="M217.582 176.583C213.788 175.669 209.906 175.842 208.697 179.509C208.29 180.745 208.242 182.663 206.674 183.3C204.366 184.238 201.583 182.362 199.58 181.598C195.848 180.174 192.017 181.144 189.856 184.136C188.761 185.653 188.292 187.398 187.919 189.125C187.758 189.875 187.737 190.801 187.364 191.507C186.648 192.859 184.409 192.737 182.941 192.685C182.619 192.685 182.29 192.653 181.961 192.624C183.123 191.272 183.702 189.625 183.605 187.956C183.509 185.216 181.403 182.218 177.723 182.553C174.426 182.843 172.104 185.534 172.474 188.257C172.789 190.572 174.573 192.367 176.86 193.466C175.737 193.886 174.539 194.213 173.477 194.647C172.982 194.85 172.5 195.077 172.036 195.327C168.828 194.019 164.613 193.773 161.727 195.107C160.33 195.753 161.35 197.671 162.754 197.02C164.952 196.004 167.376 196.259 169.674 196.904L169.865 196.962C169.638 197.208 169.438 197.471 169.266 197.747C167.969 199.876 169.266 203.245 172.423 203.477C176.874 203.798 177.083 198.826 174.665 196.847C174.563 196.763 174.46 196.682 174.35 196.603C175.35 196.195 176.432 195.889 177.387 195.544C178.219 195.246 179.011 194.874 179.75 194.433L179.921 194.471C183.321 195.122 188.627 195.324 189.85 191.843C190.897 188.822 190.997 182.406 196.646 182.999C198.95 183.239 200.84 184.735 203.031 185.277C204.993 185.771 207.263 185.792 208.872 184.57C210.2 183.563 210.498 182.076 210.906 180.687C211.114 179.969 211.32 179.112 212.011 178.6C213.261 177.677 215.326 178.221 216.719 178.557C218.243 178.921 219.126 176.953 217.582 176.583ZM173.416 201.063C172.666 201.691 171.872 201.193 171.471 200.536C170.985 199.738 171.194 198.95 171.813 198.247C171.915 198.132 172.023 198.022 172.139 197.917C173.621 198.728 174.833 199.888 173.429 201.063H173.416ZM176.045 185.436C177.586 184.226 179.732 184.492 180.65 186.153C181.568 187.814 181.164 190.159 179.876 191.623C179.706 191.815 179.517 191.995 179.311 192.161C178.414 191.908 177.585 191.507 176.87 190.983C175.049 189.594 174.018 187.027 176.059 185.427L176.045 185.436Z" fill="#FF0000"/>
<path d="M238.114 64.1618L210.477 73.269C205.28 72.942 194.345 71.7497 183.491 67.4233C171.409 62.6077 157.567 62.6193 145.83 67.6635C118.783 68.2104 103.896 65.2817 95.9534 62.5093L98.0488 58.8745L70.0358 49.6428L0 23.1111V131.854L24.5105 141.086L37.6576 114.427L66.5299 125.713L72.0729 113.808L91.0301 125.699L92.3209 126.616L90.5439 128.176C88.9147 129.63 88.0067 131.557 88.0067 133.56C88.0067 135.563 88.9147 137.49 90.5439 138.944C91.3324 139.649 92.2825 140.21 93.3362 140.593C94.3899 140.977 95.5252 141.175 96.6724 141.175C97.8197 141.175 98.9549 140.977 100.009 140.593C101.062 140.21 102.012 139.649 102.801 138.944L101.829 139.813C100.199 141.267 99.2914 143.194 99.2914 145.197C99.2914 147.2 100.199 149.127 101.829 150.581C102.617 151.285 103.567 151.847 104.621 152.23C105.675 152.614 106.81 152.811 107.957 152.811C109.104 152.811 110.24 152.614 111.293 152.23C112.347 151.847 113.297 151.285 114.086 150.581L119.7 145.647L115.845 149.033C114.216 150.487 113.308 152.414 113.308 154.417C113.308 156.42 114.216 158.347 115.845 159.801C116.634 160.506 117.584 161.067 118.638 161.45C119.691 161.834 120.827 162.031 121.974 162.031C123.121 162.031 124.256 161.834 125.31 161.45C126.364 161.067 127.314 160.506 128.102 159.801L133.645 154.931L131.314 156.979C130.175 157.995 129.54 159.342 129.54 160.742C129.54 162.141 130.175 163.488 131.314 164.504C131.864 164.996 132.528 165.387 133.264 165.655C134 165.923 134.792 166.061 135.593 166.061C136.394 166.061 137.187 165.923 137.923 165.655C138.659 165.387 139.322 164.996 139.873 164.504L143.571 161.257C149.922 165.178 155.061 168.04 157.577 168.781C168.064 171.854 168.064 165.699 168.064 165.699C182.07 171.851 189.075 159.546 189.075 159.546C206.584 165.699 206.584 150.315 206.584 150.315C210.96 152.879 214.117 151.704 216.321 149.447C219.324 146.385 219.69 142.064 217.629 138.597L234.365 125.525L241.602 138.033L270.475 126.746L283.622 151.383L302.983 144.075V36.4696L238.114 64.1618Z" fill="url(#paint6_linear)"/>
<path d="M233.464 121.106L202.986 144.003L179.283 106.793L233.464 95.3441V121.106Z" fill="#BE7C5E"/>
<path d="M87.8535 60.9958C87.8535 60.9958 97.6351 72.4443 155.578 69.5822L189.442 112.517L212.135 134.097C215.699 137.489 215.901 142.631 212.402 146.069C210.276 148.156 207.218 149.253 202.987 146.865C202.987 146.865 202.987 161.176 186.056 155.451C186.056 155.451 179.284 166.9 165.74 161.176C165.74 161.176 165.74 166.9 155.582 164.038C145.423 161.176 91.2396 123.968 91.2396 123.968L67.5371 109.658L87.8535 60.9958Z" fill="#FDA57D"/>
<path d="M209.758 75.3093C209.758 75.3093 195.125 75.3093 180.657 69.7558C167.499 64.7117 152.178 65.3541 140.037 71.9755C130.143 77.3727 121.57 86.3092 121.731 101.068C121.731 101.068 134.898 112.517 148.819 89.6199H158.977C158.977 89.6199 168.759 118.244 196.228 115.376C223.696 112.508 230.092 109.652 230.092 109.652L209.758 75.3093Z" fill="#BE7C5E"/>
<path d="M120.857 131.827L119.758 130.898C116.788 128.388 111.974 128.388 109.004 130.898L101.133 137.551C98.1639 140.061 98.1639 144.13 101.133 146.64L102.233 147.57C105.202 150.08 110.017 150.08 112.986 147.57L120.857 140.917C123.826 138.407 123.826 134.337 120.857 131.827Z" fill="#BE7C5E"/>
<path d="M109.943 121.014L108.844 120.085C105.874 117.575 101.059 117.575 98.0899 120.085L90.2194 126.738C87.2498 129.248 87.2498 133.318 90.2194 135.828L91.3185 136.757C94.2881 139.267 99.1028 139.267 102.072 136.757L109.943 130.104C112.912 127.594 112.912 123.524 109.943 121.014Z" fill="#BE7C5E"/>
<path d="M136.093 138.98L134.994 138.051C132.025 135.541 127.21 135.541 124.24 138.051L114.678 146.134C111.708 148.644 111.708 152.714 114.678 155.224L115.777 156.153C118.746 158.663 123.561 158.663 126.531 156.153L136.093 148.07C139.063 145.56 139.063 141.49 136.093 138.98Z" fill="#BE7C5E"/>
<path d="M144.112 148.939L143.345 148.29C141.271 146.538 137.909 146.538 135.835 148.29L129.8 153.392C127.726 155.145 127.726 157.987 129.8 159.74L130.567 160.388C132.641 162.141 136.003 162.141 138.077 160.388L144.112 155.287C146.186 153.534 146.186 150.692 144.112 148.939Z" fill="#BE7C5E"/>
<path d="M267.326 126.83L236.851 138.279L206.373 75.3093L233.465 66.7229L267.326 126.83Z" fill="white"/>
<path d="M37.0625 112.52L67.5371 123.968L98.0152 60.9987L70.9232 52.4094L37.0625 112.52Z" fill="white"/>
<path d="M3.19727 26.6504L70.922 52.4094L26.9032 138.279L3.19727 129.692V26.6504Z" fill="#333333"/>
<path d="M301.188 40.9609L233.463 66.7229L277.485 152.589L301.188 144.003V40.9609Z" fill="#DBA834"/>
</g>
<defs>
<linearGradient id="paint0_linear" x1="206.162" y1="217.228" x2="130.556" y2="21.1361" gradientUnits="userSpaceOnUse">
<stop stop-color="#808080" stop-opacity="0.25"/>
<stop offset="0.54" stop-color="#808080" stop-opacity="0.12"/>
<stop offset="1" stop-color="#808080" stop-opacity="0.1"/>
</linearGradient>
<linearGradient id="paint1_linear" x1="48702.7" y1="-15792.6" x2="48318.1" y2="-16790.2" gradientUnits="userSpaceOnUse">
<stop stop-color="#808080" stop-opacity="0.25"/>
<stop offset="0.54" stop-color="#808080" stop-opacity="0.12"/>
<stop offset="1" stop-color="#808080" stop-opacity="0.1"/>
</linearGradient>
<linearGradient id="paint2_linear" x1="14392.6" y1="-3137.63" x2="13857.4" y2="-4525.76" gradientUnits="userSpaceOnUse">
<stop stop-color="#808080" stop-opacity="0.25"/>
<stop offset="0.54" stop-color="#808080" stop-opacity="0.12"/>
<stop offset="1" stop-color="#808080" stop-opacity="0.1"/>
</linearGradient>
<linearGradient id="paint3_linear" x1="19726.4" y1="3748.51" x2="18505.5" y2="581.967" gradientUnits="userSpaceOnUse">
<stop stop-color="#808080" stop-opacity="0.25"/>
<stop offset="0.54" stop-color="#808080" stop-opacity="0.12"/>
<stop offset="1" stop-color="#808080" stop-opacity="0.1"/>
</linearGradient>
<linearGradient id="paint4_linear" x1="23013.4" y1="9751.02" x2="21792.4" y2="6584.18" gradientUnits="userSpaceOnUse">
<stop stop-color="#808080" stop-opacity="0.25"/>
<stop offset="0.54" stop-color="#808080" stop-opacity="0.12"/>
<stop offset="1" stop-color="#808080" stop-opacity="0.1"/>
</linearGradient>
<linearGradient id="paint5_linear" x1="9053.64" y1="2246.81" x2="8726.68" y2="1398.83" gradientUnits="userSpaceOnUse">
<stop stop-color="#808080" stop-opacity="0.25"/>
<stop offset="0.54" stop-color="#808080" stop-opacity="0.12"/>
<stop offset="1" stop-color="#808080" stop-opacity="0.1"/>
</linearGradient>
<linearGradient id="paint6_linear" x1="181675" y1="88981.2" x2="181675" y2="14790.4" gradientUnits="userSpaceOnUse">
<stop stop-color="#808080" stop-opacity="0.25"/>
<stop offset="0.54" stop-color="#808080" stop-opacity="0.12"/>
<stop offset="1" stop-color="#808080" stop-opacity="0.1"/>
</linearGradient>
<clipPath id="clip0">
<rect width="303" height="248" fill="white"/>
</clipPath>
</defs>
</svg>
