<svg width="372" height="309" viewBox="0 0 372 309" fill="none" xmlns="http://www.w3.org/2000/svg">
<g clip-path="url(#clip0)">
<path opacity="0.1" d="M347.437 170.467C333.148 193.582 335.826 225.071 342.101 249.899C344.201 258.213 346.62 266.988 344.825 276.292C342.629 287.668 334.624 296.602 326.522 301.717C311.752 311.021 294.886 310.763 282.605 301.036C272 292.634 265.015 277.979 254.186 270.028C236.08 256.718 211.217 264.785 189.628 277.224C174.361 286.004 157.557 297.176 143.446 290.85C133.519 286.408 127.328 273.876 124.438 260.239C123.044 253.655 122.2 246.463 119.003 241.447C117.1 238.465 114.484 236.47 111.772 234.833C87.0205 219.909 53.5318 232.386 29.6626 215.486C13.5404 204.075 4.37567 180.507 1.36312 155.304C-1.64943 130.102 0.827639 103.136 3.92879 76.5852C6.1362 57.7086 9.12178 37.5145 19.0301 22.1628C29.5124 5.9251 46.0351 -1.33661 60.3968 0.204333C74.7584 1.74528 87.2285 10.8446 97.9766 21.9663C111.41 35.8657 123.525 53.6174 140.911 58.1015C152.753 61.1565 165.686 57.62 178.279 55.6206C199.305 52.2768 220.039 53.236 240.626 54.4919C260.335 55.6938 280.163 57.1885 298.527 64.1228C311.521 69.0346 321.495 79.2587 333.622 85.9079C341.527 90.2418 350.445 90.7927 357.811 96.5713C366.883 103.69 374.734 116.831 371.102 133.442C367.638 149.245 355.018 158.201 347.437 170.467Z" fill="#6C63FF"/>
<path d="M255.986 118.221C255.986 118.221 294.895 85.6188 303.548 69.1808C312.2 52.7427 323.214 38.5776 323.214 38.5776" stroke="#535461" stroke-width="2" stroke-miterlimit="10"/>
<path d="M318.098 75.3253L301.268 71.5307C301.268 71.5307 305.239 89.2824 318.098 75.3253Z" fill="#6C63FF"/>
<path d="M292.379 57.2038L302.064 71.708C302.064 71.708 283.13 73.0755 292.379 57.2038Z" fill="#DBA834"/>
<path d="M324.72 61.6918L309.338 58.9951C309.338 58.9951 319 73.6919 324.72 61.6918Z" fill="#6C63FF"/>
<path d="M301.955 48.7286L309.533 58.6523C309.533 58.6523 296.119 59.9235 301.955 48.7286Z" fill="#DBA834"/>
<path d="M317.293 46.7523C317.293 46.7523 330.391 47.3764 331.932 48.6284C333.473 49.8804 329.979 57.2192 324.998 56.0211C320.017 54.823 317.293 46.7523 317.293 46.7523Z" fill="#DBA834"/>
<path d="M312.058 35.045C312.058 35.045 317.409 44.7953 317.209 46.6522C317.008 48.509 309.053 50.5931 307.447 43.5703C305.84 36.5474 312.058 35.045 312.058 35.045Z" fill="#DBA834"/>
<path d="M328.697 42.4918C329.303 40.5737 328.239 38.5277 326.321 37.9219C324.403 37.3162 322.357 38.3801 321.751 40.2983C321.145 42.2164 322.209 44.2624 324.127 44.8681C326.046 45.4739 328.092 44.4099 328.697 42.4918Z" fill="#DBA834"/>
<path d="M322.996 38.7436C323.602 36.8255 322.538 34.7795 320.62 34.1737C318.702 33.568 316.656 34.6319 316.05 36.5501C315.444 38.4682 316.508 40.5142 318.426 41.12C320.344 41.7257 322.39 40.6618 322.996 38.7436Z" fill="#DBA834"/>
<path d="M134.625 246.024C134.625 246.024 140.87 227.448 101.283 205.054C101.283 205.054 61.0873 193.331 65.1978 153.074C65.1978 153.074 18.8615 187.021 50.216 230.264C81.5704 273.506 108.633 264.068 108.633 264.068L134.625 246.024Z" fill="#DBA834"/>
<path d="M122.554 254.414C122.554 254.414 103.239 233.538 84.7242 225.467C81.0257 223.803 77.6273 221.539 74.6657 218.768C62.862 207.982 57.7153 191.705 60.7587 176.007L65.2081 153.074" stroke="#535461" stroke-width="2" stroke-miterlimit="10"/>
<path d="M294.197 12.7899H74.377V268.021H294.197V12.7899Z" fill="url(#paint0_linear)"/>
<path d="M291.64 15.76H76.9395V265.043H291.64V15.76Z" fill="#F7F7FD"/>
<path d="M144.182 43.8592H89.9062V48.1816H144.182V43.8592Z" fill="#E2E2EC"/>
<path d="M182.606 54.4262H89.9062V58.7486H182.606V54.4262Z" fill="#E2E2EC"/>
<path d="M281.358 39.7294H242.838V72.9676H281.358V39.7294Z" fill="white"/>
<path d="M281.153 39.9221V72.7751H243.014V39.9221H281.153ZM281.538 39.5369H242.629V73.1603H281.538V39.5369Z" fill="#E2E2EC"/>
<path d="M242.453 39.7294H203.934V72.9676H242.453V39.7294Z" fill="white"/>
<path d="M242.244 39.9221V72.7751H204.106V39.9221H242.244ZM242.63 39.5369H203.721V73.1603H242.63V39.5369Z" fill="#E2E2EC"/>
<path d="M281.358 73.3529H242.838V106.591H281.358V73.3529Z" fill="white"/>
<path d="M281.153 73.5455V106.398H243.014V73.5455H281.153ZM281.538 73.1603H242.629V106.784H281.538V73.1603Z" fill="#E2E2EC"/>
<path d="M242.453 73.3529H203.934V106.591H242.453V73.3529Z" fill="white"/>
<path d="M242.244 73.5455V106.398H204.106V73.5455H242.244ZM242.63 73.1603H203.721V106.784H242.63V73.1603Z" fill="#E2E2EC"/>
<path d="M203.547 73.3529H165.027V106.591H203.547V73.3529Z" fill="white"/>
<path d="M203.356 73.5455V106.398H165.217V73.5455H203.356ZM203.741 73.1603H164.832V106.784H203.741V73.1603Z" fill="#E2E2EC"/>
<path d="M164.643 73.3529H126.123V106.591H164.643V73.3529Z" fill="white"/>
<path d="M164.449 73.5455V106.398H126.311V73.5455H164.449ZM164.835 73.1603H125.926V106.784H164.835V73.1603Z" fill="#E2E2EC"/>
<path d="M125.737 73.3529H87.2168V106.591H125.737V73.3529Z" fill="white"/>
<path d="M125.545 73.5455V106.398H87.4067V73.5455H125.545ZM125.93 73.1603H87.0215V106.784H125.93V73.1603Z" fill="#E2E2EC"/>
<path d="M281.358 106.973H242.838V140.211H281.358V106.973Z" fill="white"/>
<path d="M281.153 107.169V140.022H243.014V107.169H281.153ZM281.538 106.784H242.629V140.407H281.538V106.784Z" fill="#E2E2EC"/>
<path d="M242.453 106.973H203.934V140.211H242.453V106.973Z" fill="white"/>
<path d="M242.244 107.169V140.022H204.106V107.169H242.244ZM242.63 106.784H203.721V140.407H242.63V106.784Z" fill="#E2E2EC"/>
<path d="M203.547 106.973H165.027V140.211H203.547V106.973Z" fill="white"/>
<path d="M203.356 107.169V140.022H165.217V107.169H203.356ZM203.741 106.784H164.832V140.407H203.741V106.784Z" fill="#E2E2EC"/>
<path d="M164.643 106.973H126.123V140.211H164.643V106.973Z" fill="white"/>
<path d="M164.449 107.169V140.022H126.311V107.169H164.449ZM164.835 106.784H125.926V140.407H164.835V106.784Z" fill="#E2E2EC"/>
<path d="M125.737 106.973H87.2168V140.211H125.737V106.973Z" fill="white"/>
<path d="M125.545 107.169V140.022H87.4067V107.169H125.545ZM125.93 106.784H87.0215V140.407H125.93V106.784Z" fill="#E2E2EC"/>
<path d="M281.358 140.596H242.838V173.834H281.358V140.596Z" fill="white"/>
<path d="M281.153 140.789V173.642H243.014V140.789H281.153ZM281.538 140.403H242.629V174.027H281.538V140.403Z" fill="#E2E2EC"/>
<path d="M242.453 140.596H203.934V173.834H242.453V140.596Z" fill="white"/>
<path d="M242.244 140.789V173.642H204.106V140.789H242.244ZM242.63 140.403H203.721V174.027H242.63V140.403Z" fill="#E2E2EC"/>
<path d="M203.547 140.596H165.027V173.834H203.547V140.596Z" fill="white"/>
<path d="M203.356 140.789V173.642H165.217V140.789H203.356ZM203.741 140.403H164.832V174.027H203.741V140.403Z" fill="#E2E2EC"/>
<path d="M164.643 140.596H126.123V173.834H164.643V140.596Z" fill="white"/>
<path d="M164.449 140.789V173.642H126.311V140.789H164.449ZM164.835 140.403H125.926V174.027H164.835V140.403Z" fill="#E2E2EC"/>
<path d="M125.737 140.596H87.2168V173.834H125.737V140.596Z" fill="white"/>
<path d="M125.545 140.789V173.642H87.4067V140.789H125.545ZM125.93 140.403H87.0215V174.027H125.93V140.403Z" fill="#E2E2EC"/>
<path d="M281.358 174.216H242.838V207.454H281.358V174.216Z" fill="white"/>
<path d="M281.153 174.412V207.261H243.014V174.412H281.153ZM281.538 174.027H242.629V207.646H281.538V174.027Z" fill="#E2E2EC"/>
<path d="M242.453 174.216H203.934V207.454H242.453V174.216Z" fill="white"/>
<path d="M242.244 174.412V207.261H204.106V174.412H242.244ZM242.63 174.027H203.721V207.646H242.63V174.027Z" fill="#E2E2EC"/>
<path d="M203.547 174.216H165.027V207.454H203.547V174.216Z" fill="white"/>
<path d="M203.356 174.412V207.261H165.217V174.412H203.356ZM203.741 174.027H164.832V207.646H203.741V174.027Z" fill="#E2E2EC"/>
<path d="M164.643 174.216H126.123V207.454H164.643V174.216Z" fill="white"/>
<path d="M164.449 174.412V207.261H126.311V174.412H164.449ZM164.835 174.027H125.926V207.646H164.835V174.027Z" fill="#E2E2EC"/>
<path d="M125.737 174.216H87.2168V207.454H125.737V174.216Z" fill="white"/>
<path d="M125.545 174.412V207.261H87.4067V174.412H125.545ZM125.93 174.027H87.0215V207.646H125.93V174.027Z" fill="#E2E2EC"/>
<path d="M281.358 207.839H242.838V241.077H281.358V207.839Z" fill="white"/>
<path d="M281.153 208.032V240.885H243.014V208.032H281.153ZM281.538 207.646H242.629V241.27H281.538V207.646Z" fill="#E2E2EC"/>
<path d="M242.453 207.839H203.934V241.077H242.453V207.839Z" fill="white"/>
<path d="M242.244 208.032V240.885H204.106V208.032H242.244ZM242.63 207.646H203.721V241.27H242.63V207.646Z" fill="#E2E2EC"/>
<path d="M203.547 207.839H165.027V241.077H203.547V207.839Z" fill="white"/>
<path d="M203.356 208.032V240.885H165.217V208.032H203.356ZM203.741 207.646H164.832V241.27H203.741V207.646Z" fill="#E2E2EC"/>
<path d="M164.643 207.839H126.123V241.077H164.643V207.839Z" fill="white"/>
<path d="M164.449 208.032V240.885H126.311V208.032H164.449ZM164.835 207.646H125.926V241.27H164.835V207.646Z" fill="#E2E2EC"/>
<path d="M125.737 207.839H87.2168V241.077H125.737V207.839Z" fill="white"/>
<path d="M125.545 208.032V240.885H87.4067V208.032H125.545ZM125.93 207.646H87.0215V241.27H125.93V207.646Z" fill="#E2E2EC"/>
<path d="M168.125 271.549C169.227 270.713 170.263 269.727 170.583 268.525C170.747 267.889 170.66 267.214 170.34 266.641C170.02 266.067 169.492 265.638 168.865 265.443C167.289 264.95 165.606 265.829 164.327 266.742C163.048 267.655 161.588 268.668 159.916 268.479C161.645 267.227 162.47 265.197 161.992 263.352C161.91 262.954 161.709 262.591 161.414 262.311C160.54 261.541 158.953 261.876 157.905 262.477C154.572 264.403 153.644 268.082 153.625 271.407C153.29 270.209 153.571 268.961 153.563 267.728C153.555 266.495 153.143 265.135 151.872 264.473C151.058 264.12 150.177 263.95 149.291 263.976C147.792 263.929 146.124 264.053 145.103 264.946C143.832 266.056 144.163 267.92 145.269 269.142C146.375 270.363 148.058 271.129 149.603 271.973C150.782 272.616 151.976 273.368 152.685 274.385C152.778 274.519 152.855 274.664 152.916 274.816H162.304C164.372 273.972 166.327 272.875 168.125 271.549Z" fill="#DBA834"/>
<path d="M92.2994 80.6031C93.5121 80.6031 94.4952 79.6199 94.4952 78.4072C94.4952 77.1945 93.5121 76.2114 92.2994 76.2114C91.0866 76.2114 90.1035 77.1945 90.1035 78.4072C90.1035 79.6199 91.0866 80.6031 92.2994 80.6031Z" fill="#FC6681"/>
<path d="M97.7837 80.6031C98.9965 80.6031 99.9796 79.6199 99.9796 78.4072C99.9796 77.1945 98.9965 76.2114 97.7837 76.2114C96.571 76.2114 95.5879 77.1945 95.5879 78.4072C95.5879 79.6199 96.571 80.6031 97.7837 80.6031Z" fill="#DBA834"/>
<path d="M169.838 113.156C171.051 113.156 172.034 112.172 172.034 110.96C172.034 109.747 171.051 108.764 169.838 108.764C168.626 108.764 167.643 109.747 167.643 110.96C167.643 112.172 168.626 113.156 169.838 113.156Z" fill="#FF0000"/>
<path d="M175.329 113.156C176.541 113.156 177.524 112.172 177.524 110.96C177.524 109.747 176.541 108.764 175.329 108.764C174.116 108.764 173.133 109.747 173.133 110.96C173.133 112.172 174.116 113.156 175.329 113.156Z" fill="#FF0000"/>
<path d="M287.249 176.065C288.461 176.065 289.444 175.082 289.444 173.869C289.444 172.656 288.461 171.673 287.249 171.673C286.036 171.673 285.053 172.656 285.053 173.869C285.053 175.082 286.036 176.065 287.249 176.065Z" fill="#DBA834"/>
<path d="M288.346 173.507C289.559 173.507 290.542 172.524 290.542 171.311C290.542 170.098 289.559 169.115 288.346 169.115C287.134 169.115 286.15 170.098 286.15 171.311C286.15 172.524 287.134 173.507 288.346 173.507Z" fill="#DBA834"/>
<path d="M289.444 171.311C290.657 171.311 291.64 170.328 291.64 169.115C291.64 167.902 290.657 166.919 289.444 166.919C288.231 166.919 287.248 167.902 287.248 169.115C287.248 170.328 288.231 171.311 289.444 171.311Z" fill="#DBA834"/>
<path d="M248.477 80.6031C249.69 80.6031 250.673 79.6199 250.673 78.4072C250.673 77.1945 249.69 76.2114 248.477 76.2114C247.264 76.2114 246.281 77.1945 246.281 78.4072C246.281 79.6199 247.264 80.6031 248.477 80.6031Z" fill="#FF0000"/>
<path d="M253.963 80.6031C255.176 80.6031 256.159 79.6199 256.159 78.4072C256.159 77.1945 255.176 76.2114 253.963 76.2114C252.751 76.2114 251.768 77.1945 251.768 78.4072C251.768 79.6199 252.751 80.6031 253.963 80.6031Z" fill="#FF0000"/>
<path d="M259.454 80.6031C260.666 80.6031 261.65 79.6199 261.65 78.4072C261.65 77.1945 260.666 76.2114 259.454 76.2114C258.241 76.2114 257.258 77.1945 257.258 78.4072C257.258 79.6199 258.241 80.6031 259.454 80.6031Z" fill="#FF0000"/>
<path d="M264.94 80.6031C266.153 80.6031 267.136 79.6199 267.136 78.4072C267.136 77.1945 266.153 76.2114 264.94 76.2114C263.727 76.2114 262.744 77.1945 262.744 78.4072C262.744 79.6199 263.727 80.6031 264.94 80.6031Z" fill="#FF0000"/>
<path d="M248.477 148.632C249.69 148.632 250.673 147.649 250.673 146.436C250.673 145.223 249.69 144.24 248.477 144.24C247.264 144.24 246.281 145.223 246.281 146.436C246.281 147.649 247.264 148.632 248.477 148.632Z" fill="#DBA834"/>
<path d="M253.963 148.632C255.176 148.632 256.159 147.649 256.159 146.436C256.159 145.223 255.176 144.24 253.963 144.24C252.751 144.24 251.768 145.223 251.768 146.436C251.768 147.649 252.751 148.632 253.963 148.632Z" fill="#DBA834"/>
<path d="M259.454 148.632C260.666 148.632 261.65 147.649 261.65 146.436C261.65 145.223 260.666 144.24 259.454 144.24C258.241 144.24 257.258 145.223 257.258 146.436C257.258 147.649 258.241 148.632 259.454 148.632Z" fill="#DBA834"/>
<path d="M264.94 148.632C266.153 148.632 267.136 147.649 267.136 146.436C267.136 145.223 266.153 144.24 264.94 144.24C263.727 144.24 262.744 145.223 262.744 146.436C262.744 147.649 263.727 148.632 264.94 148.632Z" fill="#DBA834"/>
<path d="M131.069 113.156C132.282 113.156 133.265 112.172 133.265 110.96C133.265 109.747 132.282 108.764 131.069 108.764C129.856 108.764 128.873 109.747 128.873 110.96C128.873 112.172 129.856 113.156 131.069 113.156Z" fill="#DBA834"/>
<path d="M92.2994 146.44C93.5121 146.44 94.4952 145.457 94.4952 144.244C94.4952 143.031 93.5121 142.048 92.2994 142.048C91.0866 142.048 90.1035 143.031 90.1035 144.244C90.1035 145.457 91.0866 146.44 92.2994 146.44Z" fill="#DBA834"/>
<path d="M285.352 179.378C287.759 180.799 291.515 181.724 296.273 178.669L296.227 185.434C296.566 190.056 302.302 206.972 302.302 206.972L306.347 220.879C309.245 230.704 310.742 240.889 310.793 251.132C310.793 254.526 311.108 258.024 312.083 260.655C314.237 266.476 311.236 273.976 309.933 276.769C307.742 277.51 305.513 278.137 303.257 278.649C303.054 278.696 302.855 278.756 302.66 278.83L302.633 278.792C302.633 278.792 296.562 281.2 293.865 280.868C291.854 280.622 290.595 283.13 292.17 284.975C290.683 285.36 289.158 285.634 288.129 285.507C285.432 285.175 284.08 289.813 289.142 291.139C294.204 292.464 322.885 291.139 322.885 291.139C323.692 290.735 324.342 290.075 324.732 289.262C325.123 288.449 325.232 287.529 325.042 286.647C327.246 286.562 328.621 286.497 328.621 286.497C328.621 286.497 333.683 284.185 328.621 277.879L328.352 278.083L327.269 274.897V270.594C327.269 270.594 333.679 239.775 331.657 236.131C329.634 232.486 328.621 213.93 328.621 213.93L329.307 193.716C331.137 189.941 332.073 184.024 332.547 179.397C333.235 177.19 333.67 174.911 333.841 172.605C333.922 171.519 333.988 170.379 334.03 169.196C334.047 166.602 333.622 164.024 332.774 161.572C334.7 158.798 337.832 154.511 340.417 151.976C344.466 148 343.453 143.358 343.453 143.358L341.766 132.09L337.717 112.87C338.225 107.539 337.112 104.468 335.883 102.735C336.176 101.013 336.449 99.2909 336.653 97.5612C337.551 90.0392 337.151 82.4191 335.471 75.0325C334.885 72.4553 334.088 69.8126 332.281 67.8594C330.235 65.6482 326.915 64.2998 326.152 61.4029C325.963 60.6825 325.955 59.9158 325.682 59.2224C324.942 57.3271 322.6 56.6375 320.551 56.3909C316.899 55.9479 311.617 55.6205 308.107 57.0458C305.657 58.0474 302.283 60.8057 300.942 63.7644C300.172 65.1242 299.813 66.5535 300.141 67.8979C300.27 68.3933 300.466 68.8689 300.722 69.3118C300.2 70.7288 299.934 72.2277 299.937 73.7381C299.949 76.3345 300.742 78.8671 302.214 81.0061C303.686 83.1451 305.768 84.7913 308.188 85.7305C308.269 85.9848 308.342 86.2352 308.404 86.4818C308.557 87.0753 308.668 87.6791 308.735 88.2885C308.67 89.4442 308.597 90.6346 308.543 91.8096C308.504 91.9714 308.463 92.1306 308.42 92.2873C305.518 93.5721 302.688 95.015 299.944 96.6096C301.971 99.5914 299.605 112.185 299.605 112.185C294.543 115.166 289.481 122.79 294.882 130.742C300.283 138.693 297.244 147.307 297.244 147.307L296.4 160.262V160.285L296.231 162.878H296.296L296.231 163.86L296.377 163.887V164.943C294.008 165.814 290.545 167.57 288.48 170.818C287.503 172.415 286.315 173.873 284.947 175.152C284.633 175.424 284.388 175.767 284.234 176.152C284.079 176.538 284.019 176.955 284.059 177.369C284.098 177.783 284.236 178.181 284.461 178.53C284.686 178.88 284.991 179.17 285.352 179.378ZM326.094 144.953C325.891 142.712 326.305 140.457 327.292 138.435C328.086 138.45 328.881 138.459 329.677 138.462C329.758 139.02 329.854 139.552 329.97 140.037C330.655 142.957 327.916 144.356 326.09 144.949L326.094 144.953Z" fill="url(#paint1_linear)"/>
<path d="M326.762 273.387L328.06 277.282L323.822 281.519L309.861 284.767L299.795 283.792L300.446 280.221C300.638 279.453 301.038 278.753 301.603 278.198C302.167 277.643 302.873 277.254 303.643 277.074C307.781 276.103 315.671 273.884 317.327 270.806L326.762 273.387Z" fill="#DB8B8B"/>
<path opacity="0.1" d="M326.762 273.387L328.06 277.282L323.822 281.519L309.861 284.767L299.795 283.792L300.446 280.221C300.638 279.453 301.038 278.753 301.603 278.198C302.167 277.643 302.873 277.254 303.643 277.074C307.781 276.103 315.671 273.884 317.327 270.806L326.762 273.387Z" fill="black"/>
<path d="M303.059 282.802L305.008 280.206L303.059 277.197C303.059 277.197 297.215 279.555 294.618 279.231C292.022 278.907 290.724 283.469 295.593 284.752C300.462 286.034 328.061 284.752 328.061 284.752C328.061 284.752 332.93 282.479 328.061 276.311L323.823 279.559C323.823 279.559 316.681 283.453 313.11 282.806L303.059 282.802Z" fill="#2E3037"/>
<path d="M294.289 288.315L304.355 289.29L318.316 286.042L322.554 281.804L322.211 280.772L321.726 279.323L321.24 277.914L311.825 275.317C311.344 276.102 310.684 276.762 309.899 277.243C306.84 279.335 301.347 280.845 298.122 281.6C297.992 281.632 297.863 281.672 297.737 281.72C297.054 281.949 296.44 282.347 295.951 282.876C295.462 283.405 295.115 284.049 294.94 284.748L294.289 288.315Z" fill="#DB8B8B"/>
<path opacity="0.1" d="M294.289 288.315L304.355 289.29L318.316 286.042L322.554 281.805L322.211 280.772L318.336 283.754C318.336 283.754 311.193 287.649 307.622 287.001H297.537L299.486 284.405L297.737 281.708C297.054 281.938 296.44 282.335 295.951 282.864C295.462 283.394 295.115 284.037 294.94 284.736L294.289 288.315Z" fill="black"/>
<path d="M297.537 287.348L299.487 284.751L297.537 281.743C297.537 281.743 291.693 284.1 289.097 283.777C286.5 283.453 285.202 288.015 290.072 289.297C294.941 290.58 322.539 289.297 322.539 289.297C322.539 289.297 327.409 287.024 322.539 280.857L318.302 284.104C318.302 284.104 311.159 287.999 307.588 287.352L297.537 287.348Z" fill="#2E3037"/>
<path d="M305.654 99.0328C305.654 99.0328 321.241 100.655 318.968 94.1634C318.333 92.3226 318.167 90.3521 318.487 88.4311C318.891 86.0493 319.833 83.7911 321.241 81.8281L306.629 84.101C307.504 85.5651 308.171 87.1445 308.609 88.7932C310.35 95.6774 305.654 99.0328 305.654 99.0328Z" fill="#DB8B8B"/>
<path d="M332.279 173.06C332.279 173.06 331.956 187.021 328.708 193.84L328.057 213.645C328.057 213.645 329.032 231.828 330.981 235.399C332.93 238.97 326.743 269.165 326.743 269.165V274.362C326.743 274.362 316.342 278.256 313.43 273.711L316.354 235.071L315.055 181.5L332.279 173.06Z" fill="#474463"/>
<path opacity="0.1" d="M332.279 173.06C332.279 173.06 331.956 187.021 328.708 193.84L328.057 213.645C328.057 213.645 329.032 231.828 330.981 235.399C332.93 238.97 326.743 269.165 326.743 269.165V274.362C326.743 274.362 316.342 278.256 313.43 273.711L316.354 235.071L315.055 181.5L332.279 173.06Z" fill="black"/>
<path d="M338.772 128.253L340.722 133.45L342.343 144.491C342.563 146.029 342.412 147.597 341.903 149.065C341.395 150.533 340.543 151.858 339.419 152.931C335.525 156.826 330.328 164.943 330.328 164.943L324.164 146.451C324.164 146.451 330.328 145.477 329.361 141.255C328.394 137.032 328.706 129.212 328.706 129.212L338.772 128.253Z" fill="#FF0000"/>
<path opacity="0.05" d="M338.772 128.253L340.722 133.45L342.343 144.491C342.563 146.029 342.412 147.597 341.903 149.065C341.395 150.533 340.543 151.858 339.419 152.931C335.525 156.826 330.328 164.943 330.328 164.943L324.164 146.451C324.164 146.451 330.328 145.477 329.361 141.255C328.394 137.032 328.706 129.212 328.706 129.212L338.772 128.253Z" fill="#FF0000"/>
<path opacity="0.1" d="M309.914 277.247C314.078 283.796 320.562 280.086 321.71 279.347L321.24 277.914L311.825 275.317C311.349 276.102 310.694 276.763 309.914 277.247Z" fill="black"/>
<path d="M296.891 185.723C297.214 190.268 302.735 206.826 302.735 206.826L306.629 220.452C309.42 230.086 310.861 240.061 310.909 250.092C310.909 253.416 311.214 256.845 312.154 259.422C314.75 266.564 309.557 276.307 309.557 276.307C314.103 284.424 321.885 278.904 321.885 278.904V273.711C321.885 273.711 328.049 245.461 326.431 239.945C324.813 234.428 324.158 219.489 324.158 219.489V192.522C329.359 187.339 332.522 180.459 333.068 173.137C333.145 172.074 333.207 170.956 333.249 169.797C333.511 162.477 328.503 153.883 326.546 150.824C326.076 150.084 325.776 149.668 325.776 149.668L297.106 161.04L297.041 161.067V162.177V164.631L296.891 185.723Z" fill="#474463"/>
<path opacity="0.1" d="M306.629 84.0972C307.504 85.5613 308.171 87.1406 308.609 88.7894C310.196 89.3915 311.888 89.6697 313.584 89.6076C315.281 89.5454 316.948 89.144 318.487 88.4272C318.891 86.0468 319.833 83.79 321.241 81.8281L306.629 84.0972Z" fill="black"/>
<path d="M313.124 88.9627C320.117 88.9627 325.786 83.2934 325.786 76.3C325.786 69.3066 320.117 63.6373 313.124 63.6373C306.13 63.6373 300.461 69.3066 300.461 76.3C300.461 83.2934 306.13 88.9627 313.124 88.9627Z" fill="#DB8B8B"/>
<path opacity="0.1" d="M296.891 164.619L297.029 164.646C310.644 167.447 327.737 153.255 327.737 153.255C327.279 152.483 326.883 151.675 326.554 150.839C326.084 150.1 325.783 149.684 325.783 149.684L297.114 161.056L297.041 162.192L296.891 164.619Z" fill="black"/>
<path d="M300.461 98.7053C300.461 98.7053 318.645 87.6645 324.489 92.2103L332.606 102.612C332.606 102.612 337.802 104.233 336.843 114.623L340.722 133.45L329.034 136.374C329.034 136.374 322.216 142.869 327.736 152.284C327.736 152.284 310.528 166.569 296.89 163.649L297.865 148.389C297.865 148.389 300.789 139.949 295.592 132.155C290.395 124.362 295.268 116.896 300.138 113.972C300.138 113.968 302.407 101.629 300.461 98.7053Z" fill="#FF0000"/>
<path d="M299.487 164.943C299.487 164.943 292.669 166.241 289.421 171.438C288.484 172.997 287.341 174.422 286.023 175.676C285.727 175.944 285.497 176.279 285.352 176.652C285.208 177.025 285.152 177.427 285.189 177.825C285.226 178.224 285.356 178.608 285.568 178.948C285.78 179.287 286.067 179.573 286.409 179.782C288.986 181.323 293.189 182.282 298.497 177.922C307.604 170.463 299.487 164.943 299.487 164.943Z" fill="#DB8B8B"/>
<path opacity="0.1" d="M309.553 104.877C309.553 104.877 316.048 104.226 317.67 121.111C319.292 137.996 321.907 141.89 321.907 141.89C321.907 141.89 323.529 150.658 319.635 155.851C315.74 161.044 308.27 172.085 308.27 172.085C308.27 172.085 300.153 174.358 298.531 166.241L308.597 147.411C308.597 147.411 310.219 140.916 306.325 136.37C302.43 131.824 299.487 101.629 309.553 104.877Z" fill="black"/>
<path d="M308.891 103.902C308.891 103.902 315.386 103.251 317.008 120.136C318.63 137.021 321.245 140.916 321.245 140.916C321.245 140.916 322.867 149.684 318.972 154.877C315.078 160.07 307.608 171.111 307.608 171.111C307.608 171.111 299.491 173.383 297.869 165.266L307.935 146.436C307.935 146.436 309.557 139.941 305.662 135.395C301.768 130.849 298.836 100.655 308.891 103.902Z" fill="#FF0000"/>
<path opacity="0.1" d="M303.544 116.076C303.544 116.076 302.896 126.13 305.809 131.662C308.721 137.194 308.733 144.325 305.809 148.228" fill="black"/>
<path opacity="0.1" d="M301.922 103.74C301.922 103.74 304.518 101.144 311.988 100.816C319.458 100.489 322.702 98.22 322.702 98.22" fill="black"/>
<path opacity="0.1" d="M319.98 59.939C321.952 60.1817 324.218 60.8597 324.919 62.7127C325.181 63.3946 325.188 64.1458 325.369 64.8508C326.105 67.6861 329.299 69.0075 331.267 71.1763C333.005 73.1025 333.771 75.6798 334.349 78.2031C335.97 85.4389 336.361 92.8961 335.505 100.262C334.873 105.655 333.579 110.948 333.217 116.357C332.855 121.766 333.517 127.456 336.472 132.001C337.743 133.955 339.423 135.673 340.324 137.822C338.464 139.332 335.894 139.548 333.494 139.629C330.702 139.724 327.909 139.724 325.115 139.629C323.651 139.579 322.122 139.483 320.858 138.743C319.923 138.145 319.154 137.319 318.624 136.343C317.025 133.646 316.625 130.372 316.698 127.228C316.771 124.085 317.264 120.957 317.322 117.809C317.353 116.095 317.218 114.273 316.232 112.871C315.519 111.857 314.436 111.175 313.512 110.355C310.045 107.273 308.843 102.334 308.727 97.6922C308.612 93.0501 309.378 88.4003 308.985 83.7736C308.831 81.963 308.153 79.7864 306.373 79.4358C305.811 79.3241 305.218 79.4358 304.678 79.2201C303.249 78.6692 303.388 76.6544 302.98 75.179C302.521 73.5224 301.107 72.2435 300.71 70.5561C299.774 66.6267 304.775 61.9384 308.053 60.5708C311.385 59.1762 316.467 59.5075 319.98 59.939Z" fill="black"/>
<path d="M320.304 59.2918C322.277 59.5345 324.542 60.2125 325.243 62.0655C325.505 62.7473 325.513 63.4986 325.694 64.2035C326.429 67.0389 329.623 68.3602 331.592 70.5291C333.329 72.4553 334.096 75.0325 334.674 77.5558C336.295 84.7917 336.685 92.2489 335.829 99.6145C335.197 105.008 333.903 110.301 333.541 115.71C333.179 121.118 333.841 126.808 336.796 131.354C338.067 133.307 339.747 135.025 340.649 137.175C338.788 138.685 336.218 138.901 333.818 138.982C331.027 139.077 328.234 139.077 325.439 138.982C323.976 138.932 322.446 138.835 321.183 138.096C320.247 137.497 319.478 136.672 318.948 135.696C317.349 132.999 316.949 129.725 317.022 126.581C317.095 123.438 317.588 120.309 317.646 117.162C317.677 115.448 317.542 113.626 316.556 112.223C315.843 111.21 314.761 110.528 313.836 109.708C310.369 106.626 309.167 101.687 309.051 97.045C308.936 92.4029 309.703 87.7531 309.31 83.1264C309.155 81.3158 308.477 79.1392 306.698 78.7886C306.135 78.6769 305.542 78.7886 305.003 78.5729C303.573 78.022 303.712 76.0072 303.304 74.5317C302.845 72.8752 301.432 71.5962 301.035 69.9089C300.099 65.9795 305.099 61.2911 308.377 59.9236C311.71 58.5251 316.791 58.8565 320.304 59.2918Z" fill="#472727"/>
</g>
<defs>
<linearGradient id="paint0_linear" x1="184.289" y1="268.017" x2="184.289" y2="12.7899" gradientUnits="userSpaceOnUse">
<stop stop-color="#808080" stop-opacity="0.25"/>
<stop offset="0.54" stop-color="#808080" stop-opacity="0.12"/>
<stop offset="1" stop-color="#808080" stop-opacity="0.1"/>
</linearGradient>
<linearGradient id="paint1_linear" x1="-108479" y1="190248" x2="-108479" y2="46015.8" gradientUnits="userSpaceOnUse">
<stop stop-color="#808080" stop-opacity="0.25"/>
<stop offset="0.54" stop-color="#808080" stop-opacity="0.12"/>
<stop offset="1" stop-color="#808080" stop-opacity="0.1"/>
</linearGradient>
<clipPath id="clip0">
<rect width="372" height="308.501" fill="white"/>
</clipPath>
</defs>
</svg>
